<svg xmlns="http://www.w3.org/2000/svg" width="133.8" height="49.9" viewBox="0 0 133.8 49.9">
  <style>
    .st0{fill:#d4ad4e}.st1{fill:#141414}.st2{fill:#f4f4f4}
  </style>
  <path class="st0" d="M47.1 29.2c-.4-.1-.5 0-.5.2l.1.1c.2-.1.3-.2.4-.3zM38.1 3.8l-.1.1v.2c.1 0 .1-.1.2-.1 0-.1-.1-.1-.1-.2zM37.1 3.6c0 .1 0 .1.1.2.2 0 .3-.1.2-.3h-.2s0 .1-.1.1zM35.2 4.5v-.2l-.1.1.1.1zM46.6 28.7c0-.1.1-.2.1-.3-.1.1-.1.2-.1.3zM40.1 31.9c0-.1 0-.1 0 0 0-.1 0 0 0 0zM45.3 30.5c-.1 0-.1.1-.2.1 0 .1.1.2.2.3v-.4zM44.4 31.6v-.1s0 .1-.1.1h.1zM45.8 30.8l.1.1h.1s.1-.1 0-.1l-.1-.1-.1.1zM44.8 30.9v.3c-.1 0-.2 0-.3.1.1.1.2.2.2.3h.1c.2-.2.3-.4.4-.6-.1-.1-.2-.1-.4-.1zM45.3 31zM46.2 29.4h.3c0-.1.1-.3.1-.4h-.1c-.1.1-.3.2-.3.4zM34.2 8.8s-.1 0-.1.1V9h.1v-.2zM37.5 2.3c0 .1-.1.1-.1.2h.1v-.2zM35.9 5.4c0-.1.1-.1 0 0l.1-.2V5l-.2.2h.1v.2zM34.4 10.3c0-.1-.2-.1-.2-.2v.2h.2zM35.7 31.2c-.1-.4-.4-.4-.7-.3 0 0 .1 0 .1.1v-.1c.1.1.2.2.2.3.2.1.3.1.4 0zM33.9 17c-.1 0-.1 0 0 0-.1.1-.1.1 0 0 0 .1 0 0 0 0z"/>
  <path class="st0" d="M50.4 16.6c-.2-.5.2-.9-.1-1.4.2-.3 0-.6 0-.9 0-.7.1-1.5.1-2.2v-1.5c0-.3-.1-.5-.3-.6.1-.3.2-.5.4-.8-.1-.2-.4-.4-.1-.7.1-.1 0-.3 0-.4 0-.1-.1-.2 0-.3.3-.6.1-1.3.1-1.9 0-.8-.3-1.5-.7-2.2-.4-.7-.9-1.2-1.5-1.6.1.1.2.3.3.5.4.7.7 1.4.7 2.2 0 .6.1 1.3-.1 1.9v.7c-.3.3 0 .5.1.6-.1.3-.2.5-.4.8.2.2.3.3.3.6 0 .5-.1 1 0 1.5.1.7-.1 1.5-.1 2.2 0 .3.1.6 0 .9.3.4-.1.9.1 1.3.2.5.1 1.2 0 1.8-.1.4 0 .9 0 1.3.1.8 0 1.5 0 2.3 0 .2-.1.3-.2.5-.2.3-.2.7 0 1 0 .1.1.2.1.3-.1.5.2.9-.1 1.4-.2.3-.2.6 0 .9.1.1.2.3.1.3-.3.7 0 1.3 0 2 .1.7 0 1.4 0 2.1 0 .3-.3.5-.1.9.1.2-.1.6-.1.9-.1.2-.1.4-.2.6-.5.9-1.1 1.8-2.1 2.2-.6.2-1.2.6-1.9.5-.1 0-.2 0-.4.1-.1 0-.2.1-.2.1-.6-.2-1.3-.1-1.9-.2-.1 0-.3-.1-.3 0-.3.2-.6.1-.9 0-.3-.1-.5-.1-.7 0-.1.1-.3.1-.5.1-.6 0-1.2.2-1.8-.1h-.2c-1.3.5-2.4 0-3.5-.6.3.5.7.8 1.2 1.1 1.1.6 2.2 1.1 3.5.6h.2c.6.3 1.2.1 1.8.1.2 0 .3 0 .5-.1s.4-.1.7 0c.3.2.6.3.9 0 .1-.1.2 0 .3 0 .6 0 1.3-.1 1.9.2.1 0 .2 0 .2-.1.1 0 .2-.1.4-.1.7.1 1.3-.3 1.9-.5 1-.4 1.6-1.3 2.1-2.2.1-.2.2-.4.2-.6.1-.3.3-.7.1-.9-.2-.4.1-.6.1-.9v-2.1c-.1-.7-.3-1.3 0-2 0-.1 0-.2-.1-.3-.2-.3-.3-.6 0-.9.4-.4 0-.9.1-1.4 0-.1-.1-.2-.1-.3-.2-.3-.2-.7 0-1 .1-.1.2-.3.2-.5 0-.8.1-1.5 0-2.3 0-.4-.1-.8 0-1.3.2-.4.2-1.1 0-1.6zM44.1 1.9h-.8c.4.2.5.2.8 0zM34.2 8s-.1 0 0 0l-.2-.2-.2.2s.1.1.1.2c.1-.1.2-.1.3-.2zM35.5 3.6c-.1-.1-.2-.2-.3-.2.1.1.2.2.3.2 0 .1 0 .1 0 0zM46.9 24.2s0 .1 0 0c0 .1 0 .1 0 0 0 .1 0 .1 0 0 0 .1 0 .1 0 0 0 .1 0 .1 0 0zM34.5 4.1c0-.1.1-.2.1-.3h-.1c-.1 0-.1.1-.1.2 0 0 .1 0 .1.1zM34.2 5c-.1-.1-.2-.3-.3-.4-.2.1-.2.2-.3.4.2 0 .4.1.5.2.1-.1.1-.2.1-.2z"/>
  <path class="st0" d="M46.9 24v.2c.2 0 .1-.1 0-.2zM34.8 27.8h-.3v.2c0-.1.1-.2.3-.2zM35.1 31.5c.1 0 .1.1.1.1h.1c0-.1 0-.1-.1-.2-.1 0-.2-.1-.3-.1l.2.2zM35 31c.1-.2.1-.4.1-.5-.1.1-.2.2-.3.4-.4-.4-.1-.8 0-1.2 0-.1-.1-.2-.1-.3v-.1c-.1.2-.3.4-.4.6.1 0 .2.1.2.3-.2 0-.3.1-.5.1.1.1.1.2.2.3v-.1c.3.2.6.3.8.5zM33.9 29.9c.1 0 .2-.1.3-.1-.2-.4 0-.8.2-1.2-.1-.1-.2-.3-.3-.4l-.1.1v-.1h.2l.1-.1c-.1-.2-.2-.4-.3-.5-.3.2-.3.3-.2.6.1.3.3.6.3 1-.1.3-.1.5-.2.7zM35.5 29.3h-.2c0 .1.1.1.1.2.1-.1.1-.2.1-.2zM35.9 28.8c.1 0 .1 0 0 0v-.2.2zM43.9 4.7c-.1-.1-.3-.3-.4-.3-.5-.1-1-.2-1.5-.2h-2.6v.3c-.2-.1-.2-.2-.2-.3-.2 0-.3.1-.5.1-.3.1-.6.1-1 .1 0 .3-.1.5-.3.6.1.1.2.1.4.2l-.4.4c-.3 0-.4-.1-.4-.2s0-.1.1-.2c0 .1-.1.1-.1.2-.2.2-.4.3-.6.2 0 .2 0 .3-.1.5.1 0 .1 0 .2.1.1.5-.4.4-.5.7 0 .2.2.4.3.7 0 .4.2.8 0 1.3v.3c0 .2.1.5.1.7v3.8c0 .7-.2 1.4 0 2.1 0 .1 0 .3-.1.4-.1.2 0 .3 0 .5.1.6.1 1.3-.2 1.9.2.4.5.8 0 1.3v.1c.1.5.1 1 .2 1.5s.2 1-.2 1.4c.1.2.3.4.3.6 0 .4-.1.8-.1 1.2v.9c0 .4.2.8.1 1-.2.3 0 .4.1.6v.3c-.2-.1-.3-.2-.5-.3 0 .1-.1.1-.1.1v.2h-.1v-.2c-.1 0-.2-.1-.3-.1v.3c0 .1-.1.3-.1.4h.1c.2-.1.3-.2.5-.1v.4c.1 0 .2.1.3.1V28h.1v.3c.2 0 .3.1.5.1.1-.1.1-.2.2-.3.2.1.3.2.5.3v-.3c0-.2-.2-.3-.1-.6s0-.7-.1-1v-.9c0-.4.1-.8.1-1.2 0-.2-.2-.4-.3-.6.4-.4.3-.9.2-1.4-.1-.5-.1-1-.2-1.5v-.1c.4-.4.2-.9 0-1.3.4-.6.3-1.2.2-1.9 0-.2-.1-.3 0-.5.1-.1.1-.3.1-.4-.1-.7.1-1.4 0-2.1v-2.1-1.7c0-.2-.1-.5-.1-.7 0-.1-.1-.2 0-.3.2-.4.1-.8 0-1.3 0-.3-.2-.5-.3-.7.1-.3.6-.3.5-.7-.3-.1-.5-.2-.5-.6 0-.1-.2-.2-.3-.3.2.1.2 0 .3-.1.1.2.2.3.3.4.2.3.5.3.7 0 .2-.3.7-.6.6-1 .3 0 .7 0 1-.1.5-.2 1.1-.2 1.6-.2H43c.5 0 .9.1 1.4.2-.1-.1-.3-.4-.5-.7zm-5.6.3c0-.3.1-.3.3-.3 0 .2-.1.2-.3.3zm.9.2c0-.1-.1-.1-.1-.2l.1-.1.2.2c-.1 0-.1.1-.2.1zM35 28.7c0 .1 0 .1 0 0 .1-.3 0-.3-.3-.4.1.1.1.3.2.4 0 .1.1.1.1 0zM39.1 31.4s.1 0 0 0l.2-.2h-.1c0 .1 0 .1-.1.2zM36 30.4h.1s0 .1-.1 0c.2.2.3.3.5.1-.3-.3-.2-.5.1-.8-.3 0-.5.2-.6.4h-.1c-.1.2 0 .2.1.3zM37.1 31.5c-.1-.1-.1-.1 0 0-.2-.2-.2-.1-.4 0 .1.1.2.1.3.2 0-.1 0-.2.1-.2zM37.4 30.7l-.1-.1-.1-.1c-.1-.1-.2-.1-.3-.1 0 0 0 .1-.1.1.1.1.1.2 0 .4l.1.1c.1-.1.2-.1.3-.2.1-.1.1-.1.2-.1zM36.6 30.6c-.2.1-.4.2-.5.1-.1.3-.3.6-.2.9.1 0 .2.1.3.1.1-.1.2-.3.3-.4-.2 0-.3 0-.4-.2.2-.1.4-.2.6-.4-.1 0-.1-.1-.1-.1z"/>
  <path class="st0" d="M36.6 29.6l-.2-.2c0 .1.1.2.2.2 0 .1 0 .1 0 0zM37.7 31.3c-.1-.1-.2-.1-.3-.1.1.1.2.1.3.3.1-.1 0-.2 0-.2zM37.2 29.5c0-.2 0-.4-.1-.6-.1-.1-.2-.1-.3 0 .1.1.1.2.1.3l.3.3zM37.7 30.5c.1-.1 0-.2 0-.3-.1 0-.1 0-.2-.1v.1s0 .1-.1.1c.1.1.1.2.3.2zM38 31v.1c0 .1.1.1.1.1l.1.1c.1 0 .1-.1.1-.2s-.2-.2-.3-.3v.2zM37.6 29.1c-.1 0-.1 0 0 0-.1.1-.1.1 0 0-.1.1-.1.1 0 0zM35.7 30.1c0 .1 0 .1 0 0 0 .1.1.1 0 0 .1.1 0 .1 0 0z"/>
  <path class="st1" d="M44.3 31.1h-.2.2zM44 31.1zM43.9 30.7c0 .1 0 .2.1.4 0-.1.2-.3-.1-.4zM37.2 32.2c-.2.1-.4.1-.5-.2-.2-.1-.4-.2-.6-.2-.1 0-.2-.1-.3-.1-.1 0-.2-.1-.3-.1l-.1.1h-.1c.1 0 .1.1.2.1.1.1.2.1.3.2v-.1c.1.2.2.3.3.5.4.2.8.3 1.2.5.1-.2.2-.3.3-.5-.1-.3-.2-.3-.4-.2zM35.9 5.4v-.2h-.1l-.1.1c.1 0 .1.1.2.1zM38.8 32c.1-.1.1-.2.2-.3-.1 0-.1-.1-.2-.1 0 .1-.1.2-.1.3V32.2l.2.1c.1 0 .1-.1.1-.2V32h-.2zM37.1 30.9h.2v-.2c0 .1-.1.2-.2.2zM43.7 31.1s-.1-.1 0 0h-.1.1c-.1 0 0 0 0 0zM44.2 31.6c0-.1 0-.1.1-.2 0 0-.1-.1-.2 0h-.3c-.1 0-.3 0-.4.1.3.2.3.4.2.7 0 .1.1.3.2.4h.2c.1-.3 0-.6.3-.8h.1s0-.1.1-.1c-.2-.1-.2-.1-.3-.1zM39.2 31.1s-.1 0-.1.1l.1.1v-.2c0 .1.1.1 0 0 .1.1.1.1 0 0zM44 31.1zM38 31.6c-.1.3-.1.4.2.6.1 0 .1.1.2.2-.1-.1-.1-.2-.2-.3 0-.3-.1-.4-.2-.5zM38 31.5v.1-.1z"/>
  <path class="st1" d="M38 31.5l-.2-.2c0 .1.1.1.1.2-.2-.1-.3-.2-.3-.3-.1 0-.1 0-.2.1 0 0-.2-.1-.2-.2s.1-.2.1-.2h-.2s-.1 0-.1-.1c0 0-.1 0-.1-.1-.2.1-.4.2-.6.4.1.2.2.3.4.2h.2c.2-.1.2 0 .4.1l.1.1c0 .1-.1.2-.1.2 0 .1-.1.1-.1.2.1-.1.2-.1.2-.1.1-.1.2-.1.2-.2 0 0 0 .1.1.1.1.1.2.1.3.1-.2 0-.1-.1 0-.3zM36.1 32.4v-.1zM43 30.2zm.7-1.2l-.1-.1c0-.2.2-.3.4-.4l.1.1-.4.4zM44.5 29.4c-.1.1-.2.2-.3.4l.1.1.1-.1c.1-.1.1-.2.1-.4zM46.5 31.6l-.1.1.1.1c0-.1.1-.1.1-.1 0-.1-.1-.1-.1-.1zM35.4 31.3c-.1-.1-.2-.2-.2-.3v.1s-.1 0-.1-.1c-.3-.2-.5-.3-.8-.5v.1c.2.4.4.9.6 1.3h.1c0-.2-.1-.4-.1-.5.1.1.2.1.3.2 0 0-.1-.1-.1-.2.1 0 .2.1.3.1.1 0 .1 0 .2.1-.1-.2-.1-.2-.2-.3zM35 18.2s0-.1.1-.1c.1-.2.1-.3-.1-.5v.4c-.2 0-.1 0 0 .2-.1-.1-.1-.1 0 0zM46.9 21.9c.1-.1.2-.2.3-.2l-.2-.2c0 .1-.1.2-.1.4 0-.1 0 0 0 0zM47.2 9.2h-.1v.1h.1c-.1-.1 0-.1 0-.1zM46.9 14.6c.4-.2.5-.4.5-1-.3.3-.5.6-.5 1zM47.3 23.8l-.1.1c0 .1.1.1.1.2 0 0 .1-.1.2-.1l-.2-.2zM46.6 17.8c0 .1 0 .1 0 0 .1.1.1 0 .2 0 0 0 0-.1-.1-.1 0 .1-.1.1-.1.1zM46.9 3.8c.1 0 .1.1.2.1 0 0 .1-.1.2-.1-.1 0-.2-.1-.2-.1-.1 0-.2.1-.2.1zM47.5 25.1c-.2.1-.3.1-.5-.1-.1-.2-.3-.3-.6-.2 0 .2-.1.4 0 .5.1.1.3.3.4.3.3-.1.6-.1.7-.5zM47.5 25.1zM47 10.6c0 .1 0 .2.1.3.1 0 .1 0 .2-.1-.1-.1-.1-.2-.2-.3 0 .1-.1.1-.1.1zM46.9 27.6l.1-.1-.1-.1v.2c-.1 0 0 0 0 0zM33.8 9.9c.1 0 .2.1.4.1-.2-.3-.2-.3-.4-.1zM34.2 19c0-.2 0-.3.1-.6-.6.3-.6.3-.1.6zM33.6 7.9c.1.3.2.4.4.3.1 0 .2-.2.1-.3 0 .1-.1.1-.2.2 0-.1-.1-.1-.1-.2s.1-.1.1-.2c0 .1-.2.2-.3.2zM33.8 17.1V17h-.1s0 .1-.1.1h.2zM46.6 5.2c-.1-.1-.1-.2-.2-.3-.1.1-.2.1-.2.2.1.1.2.1.4.1-.1.1 0 .1 0 0zM34.5 13c-.1 0-.1-.1-.2-.1l-.1.1c0 .1.1.1.1.1s.1-.1.2-.1zM34.2 5c0 .1 0 .1-.1.2-.1-.1-.3-.2-.5-.3-.1.2 0 .4 0 .6.4.2.7.4 1.1.5.1-.1.1-.2.1-.3 0-.4.4-.8.4-1.3l-.1-.1.1-.1v-.1V4c.1-.1.3-.2.5-.3-.1-.1-.1-.2-.2-.2 0 0-.1 0-.1.1-.1-.1-.2-.2-.2-.3h-.1c-.1.4-.2.7-.3.9-.2.3-.4.5-.6.8zM34 8.9s.1 0 .1-.1v-.2H34v.3zM37.4 3.5h-.2.2zM34.5 24.6zM47.1 23.2c-.3.1-.2.3-.1.5.1-.2.4-.3.1-.5z"/>
  <path class="st1" d="M34.5 4.1c.1-.1.2-.1.3-.2-.1 0-.1-.1-.1-.1-.1.1-.1.2-.2.3zM34.5 17.6c0 .3-.1.5-.1.7.3-.2.3-.2.1-.7zM34.4 25.5s0-.1 0 0c-.1-.1-.1-.1-.2 0 .1 0 .1.1.2 0 0 .1 0 0 0 0zM47 28.4c-.1-.1-.2-.1-.3-.1l-.1.1c0 .1-.1.2-.1.3V29h-.1c0 .1-.1.3-.1.4h.1c.1.4.2.7.3 1h.2c.1-.5.2-.9.3-1.4.2-.3 0-.5-.2-.6zm-.2 1.1l-.1-.1c0-.2.1-.3.5-.2-.2.1-.3.2-.4.3zM34.5 25.1s.1-.1 0 0c0-.1 0-.1-.1-.1.1 0 0 0 .1.1zM40.4 31.8h-.2-.1-.1c-.3.2-.4.6-.6 1 .4.1.4-.2.6-.3.1-.1.2-.1.3-.2.1 0 .1-.1.2-.1.2-.1.3-.2.5-.3 0-.1 0-.2-.1-.2-.1.1-.3.1-.5.1zM34 29.3zM46.2 29.4c-.1-.2-.1-.3-.1-.4-.1.1-.1.2-.1.4 0 .1.1 0 .2 0zM44.8 2.6v-.1c-.3.1-.6.2-1 .3.6.2.6.2 1-.2zM46.2 3.8l.1.1.3-.3-.1-.1-.3.3zM38.1 3H38c0 .1-.2.3.2.4-.1-.2-.1-.3-.1-.4zM46.6 30.6L46 30l-.1-.1c-.2.2-.5 0-.7.3l-.1.1c.1.3-.1.4-.3.6.1 0 .3 0 .5.1 0-.1-.2-.2-.2-.3 0-.1 0-.1.2-.2v.5c-.1.2-.3.4-.4.6h-.1c.1.3.1.6 0 .9H45.5c.2-.2.3-.4.4-.6-.2 0-.4-.1-.5-.1-.1-.4.3-.5.4-.7 0-.1.1-.1.1-.1l-.1-.1.1-.1.1.1v.1h.4c0-.2.1-.2.2-.4zM43.4 3.2h.2c0-.1.1-.2.1-.2s-.1 0-.1-.1c-.1.1-.2.2-.2.3zM41.5 32.3s.1.1 0 0c.1.1.1 0 .1 0h-.1zM40.7 32.5s-.1.1 0 0c-.1.1 0 .1 0 .2 0 0 .1 0 .2-.1-.1 0-.1 0-.2-.1zM37.1 3.1c.4-.1.6-.3.5-.9 0 .1-.1.1-.1.2v.2h-.1c-.1.1-.2.3-.3.5zM42.7 31.5s.1 0 0 0c.1 0 .1 0 0 0 .1 0 .1 0 0 0zM47.3 30.1v.2s0 .1.1.1c.1-.1.2-.2.4-.3-.3-.1-.5-.1-.5 0zM41.9 32.7l.2.2h.1s.1-.1.3-.2c-.2-.1-.3-.2-.4-.2-.1 0-.2.1-.2.2zM35.6 32.2c0 .1.1.2.1.2.1.1.2 0 .4-.1-.1 0-.3 0-.5-.1zM46.6 6.5l-.2-.2s-.1 0-.1.1c.1 0 .1.1.3.1-.1.1-.1 0 0 0zM47.3 19.9c.3 0 .4-.1.4-.4-.4.1-.4.1-.4.4zM35.7 2.4c-.1 0-.2.1-.2.2 0 .4.3.3.6.4-.1-.5-.2-.7-.4-.6zM47.5 24.9v.2c.2 0 .1-.1 0-.2zM43.3 1.9H43c.5.7.9.6 1.7 0h-.6c-.3.2-.4.2-.8 0zM35.9 4.3c0 .1.1.2.2.3.2-.1.3-.2.4-.4-.2-.1-.3-.2-.4-.3-.1.2-.2.3-.2.4zM35 12.2v-1.1c0-.1-.2-.1-.2-.2l-.2.2c.1.4.2.7.3 1.1.1.1.1.1.1 0z"/>
  <path class="st1" d="M45.9 31.8v-.5c-.3.3 0 .4 0 .5zM46.5 24.1c.1.1.2.1.4.2v-.2c.1.1.2.2 0 .2.1 0 .1.1.2.1v-.7c-.3 0-.5 0-.6.4zM47.1 23.7s-.1 0 0 0zM45.9 31.8zM34 26.1c-.5.3-.5.3-.2 1-.1-.4.5-.6.2-1zM34.2 10.1c.1.1.2.1.2.2.4 0 .6-.3.5-.7-.3.1-.5.3-.8.4.1 0 .1.1.1.1zM34 16.4v-.2c-.1.1-.2.1-.4.2.2.2.3.1.4 0zM34.2 10zM34.8 8.9s-.1-.1-.1-.2l-.2.2s.1.1.1.2c0-.1.1-.2.2-.2zM36.8 30.3c.1 0 .2 0 .3.1-.1-.1-.1-.2-.2-.3 0 .1 0 .2-.1.2zM38.3 31.2c0 .1-.1.1-.1.2h.1v-.2zM35.6 29.7s-.1 0-.1-.1c0 .1 0 .1.1.2v-.1zM36 28.3v.5c.1.1.3.2.5.2h.2c.1 0 .2 0 .3.1 0-.1-.1-.2-.1-.3-.3-.2-.6-.5-.9-.5zM34.9 29.6s0-.1 0 0c0-.1 0-.1 0 0 0-.1 0-.1 0 0zM36.1 29.6c-.2.1-.3.2-.5.3.2 0 .4-.1.5-.3zM34.8 29.3c0-.1-.1-.1-.1-.2l-.1.1v-.1h.2c.1-.1.1-.2.2-.2v-.1c-.1-.2-.1-.3-.2-.4.3 0 .4.1.3.4.1-.1.2-.1.4-.1-.2-.2-.3-.4-.5-.6.1 0 .3 0 .4-.1.1-.2.1-.3.1-.4v-.3c-.1 0-.2-.1-.3-.1-.1 0-.2-.1-.3-.1v.7h-.1c-.1 0-.3.1-.4.1 0 .1-.1.2-.1.4 0-.1-.1-.1-.1-.2l-.1.1H34c.1.1.2.3.3.4-.2.4-.4.8-.2 1.2h.2c.2-.2.3-.4.5-.5zm-.1-.9c0 .1.1.1.1.2v.1c-.1 0-.1-.1-.2-.1 0-.1 0-.2.1-.2zM36.6 29.6v-.3c-.1 0-.1.1-.2.1.1.1.1.2.2.2zM35.8 27.5v-.2l-.1.1.1.1c-.1 0 0 0 0 0zM34 28.3c0-.1 0-.1 0 0 0-.1 0-.1 0 0 0-.1 0-.1 0 0zM36 30.5c.1 0 .1-.1 0 0 .1-.1 0-.1 0 0 0-.1 0-.1 0 0 0-.1 0 0 0 0z"/>
  <path class="st2" d="M49.1 31c.1-.3.3-.7.1-.9-.2-.4.1-.6.1-.9v-2.1c-.1-.7-.3-1.3 0-2 0-.1 0-.2-.1-.3-.2-.3-.3-.6 0-.9.4-.4 0-.9.1-1.4 0-.1-.1-.2-.1-.3-.2-.3-.2-.7 0-1 .1-.1.2-.3.2-.5 0-.8.1-1.5 0-2.3 0-.4-.1-.8 0-1.3.1-.6.2-1.2 0-1.8-.2-.5.2-.9-.1-1.3.2-.3 0-.6 0-.9 0-.7.2-1.5.1-2.2V9.4c0-.3-.1-.5-.3-.6.1-.3.2-.5.4-.8-.1-.2-.4-.4-.1-.6.1-.1 0-.3 0-.4 0-.1-.1-.2 0-.3.3-.6.1-1.3.1-1.9 0-.8-.3-1.5-.7-2.2-.1-.2-.2-.3-.3-.5l-.3-.3c-.5-.5-1-.9-1.7-1.2-.3-.1-.7-.3-1.1-.3-.6 0-1.2-.3-1.7 0h-.2c-.7-.2-1.4.1-2.1-.1-.6.2-1.2.1-1.8 0-.2 0-.5 0-.6.1-.3.3-.6.1-.9 0-.2-.1-.4-.1-.6-.2-1.7-.2-3 .6-4.2 1.7-.8.7-1.1 1.7-1.2 2.8-.1.9 0 1.8 0 2.7v1.2c0 .5-.1 1 .1 1.5.1.3.2.6 0 .9 0 .1-.1.2-.1.3v2.9c0 .6-.1 1.3 0 1.9 0 .3.1.7.2.9-.1.2-.2.4-.2.7-.1.5.1 1 0 1.6-.1.5 0 1 0 1.5 0 .2.1.4.1.7 0 .1.1.2.1.4-.2 1-.2 1.9-.2 2.9 0 .4 0 .7.3.9-.3.6-.4 1.2-.3 1.7.1.4.2.8.1 1.2v.7c.1.7 0 1.4.2 2.2v.1c.2.4.5.5.6.8.3.6.7 1 1.3 1.3 1.1.6 2.2 1.1 3.5.6h.2c.6.3 1.2.1 1.8.1.2 0 .3 0 .5-.1s.4-.1.7 0c.3.2.6.3.9 0 .1-.1.2 0 .3 0 .6 0 1.3-.1 1.9.2.1 0 .2 0 .2-.1.1 0 .2-.1.4-.1.7.1 1.3-.3 1.9-.5 1-.4 1.6-1.3 2.1-2.2.3-.1.3-.3.4-.5zm-4.8.7l-.1.1c-.2.2-.2.5-.3.8h-.2c-.1-.2-.2-.3-.2-.4.1-.3.1-.5-.2-.7.2 0 .3-.1.4-.1h.5s.1 0 .1.1c0 0 .1 0 0 .2 0-.1 0 0 0 0zm.5-29.1c-.4.4-.4.4-1 .1.4-.1.7-.2 1-.3v.2zm2.9 27.5c-.2.1-.3.2-.4.3l-.1-.1v-.2c.1-.1.3-.1.5 0zm-1.5-.7h-.3c0-.2.1-.3.1-.4.1-.1.2-.1.4-.1h.2v-.1-.2c0-.1 0-.2.1-.3l.1-.1c.1 0 .2 0 .3.1.2.2.4.3.3.6-.1.5-.2.9-.3 1.4h-.2c-.1-.3-.2-.6-.3-1h-.1c-.2.1-.2.1-.3.1zm-1.5-.4c-.4.3-.7.6-1.1.8v.3h-.2c-.2 0-.3.1-.3.3v.2c0-.1-.1-.1-.1-.2-.3-.4-.6-.4-1-.4h-.6c-.2 0-.5.1-.6.2-.3.2-.5.3-.8.1-.1-.1-.3-.1-.5-.1-.1.2-.2.3-.3.5-.2-.1-.4-.2-.6-.4l-.1-.1c-.1-.1-.2-.2-.2-.4-.2.2-.3.4-.3.5v.4c0 .1 0 .1.1.2l.3.3v.2h-.1s-.1 0-.1-.1l-.1-.1c0-.1 0-.1-.1-.2h-.7s-.1.1-.1.2.2.2.2.2c.1 0 .1-.1.2-.1s.2 0 .3.1c.1.1.2.1.2.2l.1.1c.1.1.1.3.2.4 0 .1.1.2.2.3-.1-.1-.2-.1-.2-.2-.3-.2-.2-.3-.2-.6-.1.1-.2.2-.4.2-.1 0-.2 0-.3-.1l-.1-.1c-.1.1-.2.1-.2.2-.1 0-.2.1-.2.1h-.1c.1.3.3.3.5.2.2-.1.2-.1.4.2-.1.2-.2.3-.3.5-.4-.2-.8-.3-1.2-.5-.1.1-.2.2-.4.1 0 0-.1-.1-.1-.2.2 0 .3.1.5.1-.1-.2-.2-.3-.3-.5v.1c-.1-.1-.2-.1-.3-.2-.1 0-.1-.1-.2-.1l-.1-.1c-.1-.1-.2-.1-.3-.2 0 .1.1.3.1.5h-.1c-.2-.4-.4-.9-.6-1.3-.1-.1-.1-.2-.2-.3.1 0 .3-.1.5-.1-.1-.2-.1-.3-.2-.3h-.2c-.1 0-.2 0-.3.1.1-.2.1-.4.1-.6 0-.4-.2-.7-.3-1-.1-.3-.1-.5.2-.6.1.2.2.3.3.5 0 .1.1.1.1.2 0-.2.1-.3.1-.4v-.2h.3v-.3-.3c.1 0 .2.1.3.1.1 0 .2.1.3.1.1 0 .2.1.3.1l.1-.1.1-.1c.2.1.3.2.5.3v-.3c0-.2-.2-.3-.1-.6s0-.7-.1-1v-.9c0-.4.1-.8.1-1.2 0-.2-.2-.4-.3-.6.4-.4.3-.9.2-1.4-.1-.5-.1-1-.2-1.5V20c.4-.4.2-.9 0-1.3.4-.6.3-1.2.2-1.9 0-.2-.1-.3 0-.5.1-.1.1-.3.1-.4-.1-.7.1-1.4 0-2.1v-2.1V10c0-.2-.1-.5-.1-.7 0-.1-.1-.2 0-.3.2-.4.1-.8 0-1.3 0-.3-.2-.5-.3-.7.1-.3.6-.3.5-.7-.1 0-.1 0-.2-.1-.2-.2-.3-.4-.3-.7 0 0 0-.1-.1-.1s-.1-.1-.2-.2l.1-.1s.1 0 .2-.1v.2c.1.1.1.2.2.3.1.1.1.1.2.1.2.1.4.1.6-.2 0-.1.1-.1.1-.2l.2-.2c.2-.2.4-.4.3-.6.3 0 .7 0 1-.1.2-.1.3-.1.5-.1h2.8c.5 0 1 .1 1.5.2.2 0 .3.2.4.3.2.3.4.5.6.8l.1.1c.1.1.2.1.3.2.3.2.4.6.3.9-.1.3-.1.4-.1.6V9c0 .5 0 .9.2 1.3.1.4-.1.9-.2 1.3s0 .7.4.9c-.1.1-.3.2-.4.3 0 .5.1.9 0 1.4v.3c.3 1.2-.1 2.3 0 3.5 0 .5 0 .9.1 1.4 0 .2.1.3.2.5.2.3.2.6-.1.9-.2.2-.2.3-.2.5v1.6c0 .2.2.4.2.6 0 .2-.2.4-.2.6 0 .5.1 1.1.1 1.6 0 .1.1.1 0 .2-.3.4 0 .8.2 1.3-.1.1-.3.1-.5.2.3.2.4.3.5.4v.1c-.1.2-.5.4-.2.8 0 0-.2.1-.4.3zm-.3 2.1H44c0-.1 0-.2-.1-.4.3.1.1.2.1.4h.4c0-.1 0-.1-.1-.1h.1v.1zm0-1.3l-.1.1-.1-.1c0-.2.1-.3.3-.4 0 0 .1 0 .1-.1l.1.1c-.1.2-.2.3-.3.4zm-1.7 1.7c.1 0 .1 0 0 0 .1 0 .1 0 0 0 .1 0 0 0 0 0zm-1.1.8s0 .1 0 0c0 .1-.1 0 0 0-.1 0-.1 0 0 0zm2.1-1.2s-.1 0 0 0h-.1s0-.1.1 0c-.1-.1 0 0 0 0zm-5.1.8c0-.1.1-.2.1-.3.1 0 .1.1.2.1v.4c0 .1-.1.1-.1.2 0 0-.2 0-.2-.1V32v-.1zm.4-.7l.1-.1h.2c-.1.1-.2.1-.2.2l-.1-.1zM34.1 8s.1 0 0 0c.1.1 0 .3-.1.3-.3.1-.4-.1-.4-.3.1-.1.2-.1.3-.1.1-.1.2 0 .2.1zm.8 1.6c.1.5-.1.7-.5.7h-.3v-.2-.2c-.1 0-.2-.1-.4-.1.3-.1.3-.1.5.2.2-.2.5-.3.7-.4zm-.5-.7c0-.1.1-.1.2-.2.1.1.2.2.1.2 0 .1-.1.1-.2.2 0-.1-.1-.2-.1-.2zm1.1-6.3c0-.1.1-.2.2-.2.2-.1.3.1.3.6-.3-.1-.6-.1-.5-.4zm.6 1.3c.1.1.2.2.4.3l-.4.4c-.1-.1-.2-.2-.2-.3 0-.1.1-.2.2-.4zm1.3-1.4s.1-.1.1-.2.1-.1.1-.2c.1.6 0 .8-.5.9.1-.1.2-.3.3-.5zm0 1c0 .2-.1.3-.2.3h-.1v-.2l.1-.1h.2zm-3.6 13.6c-.1 0-.1 0-.1-.1s.1-.1.1-.1h.1c0 .1 0 .1-.1.2.1-.1.1 0 0 0zm.2 9c.3.4-.2.6-.2 1-.3-.7-.3-.7.2-1zm.2-7.7c0 .3-.1.4-.1.6-.4-.3-.4-.3.1-.6zm.2 7s0 .1 0 0v.2c-.1 0-.1-.1 0-.2-.1.1-.1 0 0 0zm.1-.4s.1 0 0 0l.1.1c-.1 0-.1 0-.1-.1-.1 0 0 0 0 0zm0-.4zm.4-6.5c0-.1-.1-.1-.1-.1v-.4c.2.1.2.3.1.5.1 0 .1 0 0 0 .1.1.1.1 0 0 .1.1.1.1 0 0zm.1-6.9v1.1h-.1c-.1-.4-.2-.7-.3-1.1 0-.1.1-.2.2-.2s.2.1.2.2zm-.6 7.1c0-.2.1-.4.1-.7.2.5.2.5-.1.7zm-.1-5.2l-.1-.1.1-.1s.1 0 .2.1c-.1 0-.2.1-.2.1zm-.8 3.3c.2-.1.3-.1.4-.2 0 .1.1.1 0 .2 0 .1-.1.2-.4 0zm.5-7.8h.1V8.9H34v-.1-.2zm3.9-4.7l.1-.1c.1.1.1.1.1.2-.1 0-.1.1-.2.1.1-.1.1-.1 0-.2zm5.4-.8c.1-.1.2-.2.3-.2 0 0 .1 0 .1.1s-.1.2-.1.2c-.1 0-.2 0-.3-.1.1.1.1.1 0 0zm3.2.4l.1.1-.3.3-.1-.1.3-.3zm.3 22.1c-.1 0-.3-.2-.4-.3-.1-.1 0-.3 0-.5.3-.1.4 0 .6.2.1.2.3.2.5.1v-.2c.1.1.2.2 0 .2-.1.4-.4.4-.7.5zm.2 2l-.1.1v-.1c0-.1 0-.1.1 0 0-.1 0-.1 0 0zm-.6-21.3l.2.2s-.1 0-.1.1c-.1-.1-.1-.2-.1-.3-.1.1 0 0 0 0zm-.2-1.2c0-.1.1-.1.2-.2.1.1.1.2.2.3l-.1.1c-.1-.1-.2-.1-.3-.2zm1.4 14.5c0 .2-.1.4-.4.4.1-.4.1-.4.4-.4zm-.5 4.1v.7c-.1 0-.1-.1-.2-.1-.1-.1-.2-.1-.4-.2.1-.4.3-.4.6-.4-.1 0 0 0 0 0-.1-.2-.2-.4.1-.5.2.2-.1.3-.1.5zm.2.1c.1 0 .1.1.2.1-.1.1-.1.1-.2.1 0 0-.1-.1-.1-.2 0 .1.1.1.1 0zm0-2.1c-.1.1-.2.2-.3.2l-.1-.1.3-.3s0 .1.1.2zm-.7-3.8c0-.1 0-.2.1-.2 0 0 0 .1.1.1-.1.1-.1.1-.2.1zm.8-4.3c.1.5 0 .8-.5 1 0-.4.2-.7.5-1zm-.3-2.7c0-.1-.1-.2-.1-.3h.1c.1.1.1.2.2.3h-.2zM47 9.2s0-.1 0 0l.1-.1c.1.1 0 .1-.1.1.1.1 0 0 0 0zm.1-5.3c-.1 0-.1-.1-.2-.1l.1-.1c.1 0 .1 0 .2.1 0 .1-.1.1-.1.1zm-.6 27.7l.1.1-.1.1-.1-.1.1-.1zM43 1.9H44.7c-.8.6-1.2.6-1.7 0zM38 3h.1c0 .1 0 .3.1.4-.4-.1-.2-.3-.2-.4zm-3.5 1.1c0-.1-.1-.1-.1-.2s.1-.1.1-.2h.1l.1.1c0 .2-.1.2-.2.3zm-.6.5c.1.1.2.2.3.4.2-.3.4-.5.6-.8.1-.2.2-.5.4-.8h.1c.1 0 .2.1.3.2 0 .1.1.1.2.2-.2.1-.3.2-.5.3v.4c0 .5-.4.8-.4 1.3 0 .1-.1.1-.1.3-.4-.2-.8-.3-1.1-.5V5c0-.2.1-.3.2-.4zm6.1 28c-.2.1-.2.3-.6.3.2-.4.3-.7.6-1h.9c0 .1 0 .1.1.2-.2.1-.3.2-.5.3-.1 0-.1.1-.2.1s-.2 0-.3.1zm.8.1c-.1 0-.1.1-.2.1l-.1-.1.1-.1c.2 0 .2 0 .2.1zm1.4.2c-.1 0-.1 0 0 0-.1 0-.1 0 0 0-.2-.1-.2-.2-.3-.2.1-.1.1-.2.2-.2s.2.1.4.2c-.2.1-.3.2-.3.2zm2.6-.4c.1-.3.1-.6 0-.9-.1-.1-.1-.2-.2-.3.1-.1.2-.3.3-.4.2-.2.3-.3.3-.6 0-.1.1-.3.2-.5h-.3v-.1c.1 0 .2.1.3.1.2 0 .4-.1.4 0l.1.1.1.1.6.6c0 .2-.1.2-.2.2H46h-.1l-.1.1c-.1.2-.5.3-.4.7.2 0 .3 0 .5.1 0-.2-.3-.3 0-.5v.5c-.1.2-.3.4-.4.6H45c-.1.2-.1.2-.2.2z"/>
  <path class="st2" d="M37.4 30c0-.1 0-.1-.1-.2 0-.1-.1-.2-.2-.3l-.3-.3c-.1-.1-.2-.1-.3-.1h-.2c-.2 0-.3-.1-.5-.2 0-.1.1-.1.1-.2v-.1-.2-.1-.1c0-.1 0-.2-.1-.3-.1-.2-.3-.1-.5.1h-.1c-.1 0-.2 0-.4.1.2.2.3.4.5.6-.2 0-.3.1-.4.1l-.1.1-.2.2h-.1c0 .1.1.1.1.2.1.1.1.2.2.2v.1c-.2.4-.4.8 0 1.2.1-.1.2-.2.3-.4.1-.2.2-.3.4-.5l.1-.1c.1-.1.3-.2.5-.3.1-.1.2-.1.3-.1.1 0 .1-.1.2-.1v.4c-.3.2-.3.5-.1.8-.2.1-.3 0-.4-.1-.3-.2-.2-.2-.4 0 .2.2.4.3.6.3.2 0 .4 0 .5-.1.1 0 .1-.1.2-.2 0 0 0-.1.1-.1 0 0 .1-.1.1-.2.1.1.2.2.2.3l.1.1c.1-.1.1-.1.1-.2l.1-.1v-.1c-.2 0-.2-.1-.3-.1zm-2.1-.8h.2c.2.1.2.2.1.4v.1c0-.1-.1-.1-.1-.2-.1 0-.1-.1-.2-.3zM36.3 28.4c.1 0 .1 0 0 0 .1-.1.1-.1 0 0 .1-.1.1-.2.1-.3h-.1v.3c0-.1 0-.1 0 0z"/>
  <path class="st2" d="M34.8 28.5c0-.1 0-.1-.1-.2l-.1.1c0 .1.1.2.2.1-.1.1 0 0 0 0zM34.6 29.1zM36.6 31.3s.1 0 0 0c.1 0 .1 0 0 0z"/>
  <g>
    <path class="st0" d="M74.2 29.2c-.4-.1-.5 0-.5.2l.1.1c.1-.1.2-.2.4-.3zM65.2 3.8c-.1 0-.2.1-.2.1 0 .1.1.1.1.2.1 0 .1-.1.2-.1 0-.1-.1-.1-.1-.2zM64.2 3.6c0 .1 0 .1.1.2.2 0 .3-.1.2-.3h-.2l-.1.1zM62.3 4.5v-.2l-.1.1.1.1zM73.7 28.7c0-.1.1-.2.1-.3-.1.1-.2.2-.1.3zM67.2 31.9c0-.1 0-.1 0 0 0-.1 0 0 0 0zM72.4 30.5c-.1 0-.1.1-.2.1 0 .1.1.2.2.3v-.4zM71.4 31.6v-.1s0 .1-.1.1h.1zM72.9 30.8l.1.1h.1s.1-.1 0-.1l-.1-.1c-.1 0-.1.1-.1.1zM71.9 30.9v.3c-.1 0-.2 0-.3.1.1.1.2.2.2.3h.1c.2-.2.3-.4.4-.6-.1-.1-.2-.1-.4-.1zM72.4 31zM73.2 29.4s.1 0 0 0h.3c0-.1.1-.3.1-.4h-.1c-.1.1-.2.2-.3.4zM61.2 8.8s-.1 0-.1.1V9h.1c.1-.1.1-.2 0-.2zM64.6 2.3c0 .1-.1.1-.1.2h.1v-.2zM63 5.4c0-.1 0-.1 0 0 .1-.1.1-.2.1-.2l-.1-.1-.2.2h.1c.1 0 .1 0 .1.1zM61.5 10.3c0-.1-.2-.1-.2-.2v.2h.2zM62.8 31.2c-.1-.4-.4-.4-.7-.3 0 0 .1 0 .1.1v-.1c.1.1.2.2.2.3.2.1.3.1.4 0zM61 17s-.1 0 0 0c-.1 0-.1 0 0 0-.1.1-.1.1 0 0-.1.1 0 0 0 0z"/>
    <path class="st0" d="M77.5 16.6c-.2-.5.2-.9-.1-1.4.2-.3 0-.6 0-.9 0-.7.1-1.5.1-2.2v-1.5c0-.3-.1-.5-.3-.6.1-.3.2-.5.4-.8-.1-.2-.4-.4-.1-.7.1-.1 0-.3 0-.4 0-.1-.1-.2 0-.3.3-.6.1-1.3.1-1.9 0-.8-.3-1.5-.7-2.2-.4-.7-.9-1.2-1.5-1.6.1.1.2.3.3.5.4.7.7 1.4.7 2.2 0 .6.1 1.3-.1 1.9v.7c-.3.3 0 .5.1.6-.1.3-.2.5-.4.8.2.2.3.3.3.6 0 .5-.1 1 0 1.5.1.7-.1 1.5-.1 2.2 0 .3.1.6 0 .9.3.4-.1.9.1 1.3.2.5.1 1.2 0 1.8-.1.4 0 .9 0 1.3.1.8 0 1.5 0 2.3 0 .2-.1.3-.2.5-.2.3-.2.7 0 1 0 .1.1.2.1.3-.1.5.2.9-.1 1.4-.2.3-.2.6 0 .9.1.1.2.3.1.3-.3.7 0 1.3 0 2 .1.7 0 1.4 0 2.1 0 .3-.3.5-.1.9.1.2-.1.6-.1.9-.1.2-.1.4-.2.6-.5.9-1.1 1.8-2.1 2.2-.6.2-1.2.6-1.9.5-.1 0-.2 0-.4.1-.1 0-.2.1-.2.1-.6-.2-1.3-.1-1.9-.2-.1 0-.3-.1-.3 0-.3.2-.6.1-.9 0-.3-.1-.5-.1-.7 0-.1.1-.3.1-.5.1-.6 0-1.2.2-1.8-.1h-.2c-1.3.5-2.4 0-3.5-.6.3.5.7.8 1.2 1.1 1.1.6 2.2 1.1 3.5.6h.2c.6.3 1.2.1 1.8.1.2 0 .3 0 .5-.1s.4-.1.7 0c.3.2.6.3.9 0 .1-.1.2 0 .3 0 .6 0 1.3-.1 1.9.2.1 0 .2 0 .2-.1.1 0 .2-.1.4-.1.7.1 1.3-.3 1.9-.5 1-.4 1.6-1.3 2.1-2.2.1-.2.2-.4.2-.6.1-.3.3-.7.1-.9-.2-.4.1-.6.1-.9v-2.1c-.1-.7-.3-1.3 0-2 0-.1 0-.2-.1-.3-.2-.3-.3-.6 0-.9.4-.4 0-.9.1-1.4 0-.1-.1-.2-.1-.3-.2-.3-.2-.7 0-1 .1-.1.2-.3.2-.5 0-.8.1-1.5 0-2.3 0-.4-.1-.8 0-1.3.1-.4.2-1.1 0-1.6zM71.2 1.9h-.8c.4.2.5.2.8 0zM61.2 8c-.1-.1-.1-.2-.2-.2 0 .1-.1.2-.1.2s.1.1.1.2c.1-.1.2-.1.2-.2zM62.6 3.6c-.1-.1-.2-.2-.3-.2 0 .1.1.2.3.2 0 .1 0 .1 0 0z"/>
    <path class="st0" d="M74 24.2s0 .1 0 0c-.1.1-.1.1 0 0-.1.1-.1.1 0 0 0 .1 0 .1 0 0 0 .1 0 .1 0 0zM61.6 4.1c0-.1.1-.2.1-.3h-.1c-.1 0-.1.1-.1.2 0 0 .1 0 .1.1zM61.3 5c-.1-.1-.2-.3-.3-.4-.2.1-.2.2-.3.4.2 0 .3.1.5.2 0-.1.1-.2.1-.2zM74 24v.2c.2 0 .1-.1 0-.2zM61.8 27.8h-.3v.2c.1-.1.2-.2.3-.2zM62.2 31.5c.1 0 .1.1.1.1h.1c0-.1 0-.1-.1-.2-.1 0-.2-.1-.3-.1l.2.2zM62.1 31c.1-.2.1-.4.1-.5-.1.1-.2.2-.3.4-.4-.4-.1-.8 0-1.2 0-.1-.1-.2-.1-.3v-.1c-.1.2-.3.4-.4.6.1 0 .2.1.2.3-.2 0-.3.1-.5.1.1.1.1.2.2.3v-.1c.3.2.6.3.8.5zM60.9 29.9c.1 0 .2-.1.3-.1-.2-.4 0-.8.2-1.2-.1-.1-.2-.3-.3-.4l-.1.1v-.1h.2l.1-.1c-.1-.2-.2-.4-.3-.5-.3.2-.3.3-.2.6.1.3.3.6.3 1 0 .3-.1.5-.2.7zM62.6 29.3h-.2c0 .1.1.1.1.2.1-.1.1-.2.1-.2zM63 28.8v-.2.2zM71 4.7c-.1-.1-.3-.3-.4-.3-.5-.1-1-.2-1.5-.2h-2.6v.3c-.2-.1-.2-.2-.2-.3-.2 0-.3.1-.5.1-.3.1-.6.1-1 .1 0 .3-.1.5-.3.6.1.1.2.1.4.2l-.4.4c-.1-.1-.2-.2-.2-.3 0-.1 0-.1.1-.2-.1.1-.1.1-.1.2-.2.2-.4.3-.6.2 0 .2 0 .3-.1.5.1 0 .1 0 .2.1.1.5-.4.4-.5.7 0 .2.2.4.3.7 0 .4.2.8 0 1.3v.3c0 .2.1.5.1.7v3.8c0 .7-.2 1.4 0 2.1 0 .1 0 .3-.1.4-.1.2 0 .3 0 .5.1.6.1 1.3-.2 1.9.2.4.5.8 0 1.3v.1c.1.5.1 1 .2 1.5s.2 1-.2 1.4c.1.2.3.4.3.6 0 .4-.1.8-.1 1.2v.9c0 .4.2.8.1 1-.2.3 0 .4.1.6v.3c-.2-.1-.3-.2-.5-.3 0 .1-.1.1-.1.1v.2h-.1v-.2c-.1 0-.2-.1-.3-.1v.3c0 .1-.1.3-.1.4h.1c.2-.1.3-.2.5-.1.1.1.1.2.1.3.1 0 .2.1.3.1v-.3h.1v.3c.2 0 .3.1.5.1.1-.1.1-.2.2-.3.2.1.3.2.5.3v-.3c0-.2-.2-.3-.1-.6s0-.7-.1-1v-.9c0-.4.1-.8.1-1.2 0-.2-.2-.4-.3-.6.4-.4.3-.9.2-1.4-.1-.5-.1-1-.2-1.5v-.1c.4-.4.2-.9 0-1.3.4-.6.3-1.2.2-1.9 0-.2-.1-.3 0-.5.1-.1.1-.3.1-.4-.1-.7.1-1.4 0-2.1v-2.1-1.7c0-.2-.1-.5-.1-.7 0-.1-.1-.2 0-.3.2-.4.1-.8 0-1.3 0-.3-.2-.5-.3-.7.1-.3.6-.3.5-.7-.3-.1-.5-.2-.5-.6 0-.1-.2-.2-.3-.3.1-.1.2-.2.3-.2.1.2.2.3.3.4.2.3.5.3.7 0 .2-.3.7-.6.6-1 .3 0 .7 0 1-.1.5-.2 1.1-.2 1.6-.2h1.7c.5 0 .9.1 1.4.2-.5.2-.6-.1-.8-.4zm-5.7.3c0-.3.1-.3.3-.3.1.2-.1.2-.3.3zm1 .2c0-.1-.1-.1-.1-.2l.1-.1.2.2c-.1 0-.1.1-.2.1zM62.1 28.7c0 .1 0 .1 0 0 .1-.3 0-.3-.3-.4.1.1.1.3.2.4 0 .1 0 .1.1 0zM66.2 31.4l.2-.2h-.1c0 .1-.1.1-.1.2zM63 30.4c.1 0 .1 0 0 0 .1 0 .1 0 0 0h.1s0 .1-.1 0c.2.2.3.3.5.1-.3-.3-.2-.5.1-.8-.3 0-.5.2-.6.4h-.1c0 .2.1.2.1.3zM64.1 31.5c0-.1 0-.1 0 0-.2-.2-.2-.1-.4 0 .1.1.2.1.3.2 0-.1.1-.2.1-.2zM64.5 30.7l-.1-.1-.1-.1c-.1-.1-.2-.1-.3-.1 0 0 0 .1-.1.1.1.1.1.2 0 .4l.1.1c.1-.1.2-.1.3-.2.1-.1.1-.1.2-.1zM63.7 30.6c-.2.1-.4.2-.5.1-.2.3-.3.6-.2.9.1 0 .2.1.3.1.1-.1.2-.3.3-.4-.2 0-.3 0-.4-.2.2-.1.4-.2.6-.4-.1 0-.1-.1-.1-.1zM63.7 29.6l-.2-.2c0 .1.1.2.2.2 0 .1 0 .1 0 0zM64.8 31.3c-.1-.1-.2-.1-.3-.1.1.1.2.1.3.3.1-.1 0-.2 0-.2zM64.3 29.5c0-.2 0-.4-.1-.6-.1-.1-.2-.1-.3 0 .1.1.1.2.1.3l.3.3zM64.7 30.5c.1 0 .1 0 0 0 .1-.1 0-.2 0-.3-.1 0-.1 0-.2-.1v.1s0 .1-.1.1c.1.1.2.2.3.2zM65.1 31v.1c0 .1.1.1.1.1l.1.1c.1 0 .1-.1.1-.2s-.2-.2-.3-.3v.2zM64.6 29.1c0 .1 0 .1 0 0 0 .1 0 .1 0 0zM62.8 30.1c0 .1 0 .1 0 0 0 .1.1.1 0 0 0 .1 0 .1 0 0z"/>
    <path class="st1" d="M71.3 31.1h-.2.2zM71.1 31.1zM71 30.7c0 .1 0 .2.1.4 0-.1.2-.3-.1-.4zM64.3 32.2c-.2.1-.4.1-.5-.2-.2-.1-.4-.2-.6-.2-.1 0-.2-.1-.3-.1-.1 0-.2-.1-.3-.1l-.1.1h-.1c.1 0 .1.1.2.1.1.1.2.1.3.2v-.1c.1.2.2.3.3.5.4.2.8.3 1.2.5.1-.2.2-.3.3-.5-.2-.3-.2-.3-.4-.2zM63 5.4v-.2h-.1l-.1.1s.1.1.2.1zM65.9 32c.1-.1.1-.2.2-.3-.1 0-.1-.1-.2-.1 0 .1-.1.2-.1.3V32.2l.2.1c.1 0 .1-.1.1-.2V32h-.2zM64.2 30.9h.2v-.2c0 .1-.1.2-.2.2zM70.8 31.1c-.1 0-.1-.1 0 0h-.1.1c-.1 0-.1 0 0 0zM71.3 31.6c0-.1 0-.1.1-.2 0 0-.1-.1-.2 0h-.3c-.1 0-.3 0-.4.1.3.2.3.4.2.7 0 .1.1.3.2.4h.2c.1-.3 0-.6.3-.8h.1s0-.1.1-.1c-.2-.1-.2-.1-.3-.1zM66.3 31.1s-.1 0-.1.1l.1.1c-.1 0 0-.1 0-.2 0 .1 0 .1 0 0 0 .1 0 .1 0 0zM71.1 31.1zM65.1 31.6c-.1.3-.1.4.2.6.1 0 .1.1.2.2-.1-.1-.1-.2-.2-.3 0-.3-.1-.4-.2-.5zM65.1 31.5v.1-.1z"/>
    <path class="st1" d="M65 31.5l-.2-.2c0 .1.1.1.1.2-.2-.1-.3-.2-.3-.3-.1 0-.1 0-.2.1 0 0-.2-.1-.2-.2s.1-.2.1-.2h-.2s-.1 0-.1-.1c0 0-.1 0-.1-.1-.2.1-.4.2-.6.4.1.2.2.3.4.2h.2c.2-.1.2 0 .4.1l.1.1c0 .1-.1.2-.1.2 0 .1-.1.1-.1.2.1-.1.2-.1.2-.1.1-.1.2-.1.2-.2 0 0 0 .1.1.1.1.1.2.1.3.1-.1 0 0-.1 0-.3.1 0 .1 0 0 0 .1 0 .1 0 0 0zM63.2 32.4v-.1zM70.1 30.2zm.7-1.2l-.1-.1c0-.2.2-.3.4-.4l.1.1c-.2.1-.3.3-.4.4zM71.6 29.4c-.1.1-.2.2-.3.4l.1.1.1-.1c.1-.1.1-.2.1-.4zM73.6 31.6l-.1.1.1.1c0-.1.1-.1.1-.1 0-.1-.1-.1-.1-.1zM62.5 31.3c-.1-.1-.2-.2-.2-.3v.1s-.1 0-.1-.1c-.3-.2-.5-.3-.8-.5v.1c.2.4.4.9.6 1.3h.1c0-.2-.1-.4-.1-.5.1.1.2.1.3.2 0 0-.1-.1-.1-.2.1 0 .2.1.3.1.1 0 .1 0 .2.1-.1-.2-.2-.2-.2-.3zM62 18.2s0-.1.1-.1c.1-.2.1-.3-.1-.5v.4c-.1 0-.1 0 0 .2 0-.1 0-.1 0 0zM74 21.9c.1-.1.2-.2.3-.2l-.2-.2c0 .1-.1.2-.1.4 0-.1 0 0 0 0zM74.3 9.2h-.1v.1h.1c-.1-.1-.1-.1 0-.1zM74 14.6c.4-.2.5-.4.5-1-.4.3-.5.6-.5 1zM74.4 23.8l-.1.1c0 .1.1.1.1.2 0 0 .1-.1.2-.1l-.2-.2zM73.7 17.8c0 .1 0 .1 0 0 .1.1.1 0 .2 0 0 0 0-.1-.1-.1 0 .1-.1.1-.1.1zM74 3.8c.1 0 .1.1.2.1 0 0 .1-.1.2-.1-.1 0-.2-.1-.2-.1-.1 0-.2.1-.2.1zM74.5 25.1c-.2.1-.3.1-.5-.1-.1-.2-.3-.3-.6-.2 0 .2-.1.4 0 .5.1.1.3.3.4.3.3-.1.7-.1.7-.5zM74.6 25.1s-.1 0 0 0zM74.1 10.6c0 .1 0 .2.1.3.1 0 .1 0 .2-.1-.1-.1-.1-.2-.2-.3 0 .1-.1.1-.1.1zM74 27.6l.1-.1-.1-.1c0 .1-.1.1 0 .2-.1 0 0 0 0 0zM60.9 9.9c.1 0 .2.1.4.1-.2-.3-.2-.3-.4-.1zM61.2 19c0-.2 0-.3.1-.6-.5.3-.5.3-.1.6zM60.7 7.9c.1.3.2.4.4.3.1 0 .2-.2.1-.3 0 .1-.1.1-.2.2 0-.1-.1-.1-.1-.2 0 .1.1 0 .1-.1-.1 0-.2.1-.3.1zM60.9 17.1V17h-.1s0 .1-.1.1h.2zM73.7 5.2c-.1-.1-.1-.2-.2-.3-.1.1-.2.1-.2.2.1.1.2.1.4.1-.1.1-.1.1 0 0zM61.5 13c-.1 0-.1-.1-.2-.1l-.1.1c0 .1.1.1.1.1.1 0 .2-.1.2-.1zM61.3 5c0 .1 0 .1-.1.2-.2-.1-.3-.2-.5-.3-.1.2 0 .4 0 .6.4.2.7.3 1.1.5.1-.1.1-.2.1-.3 0-.4.4-.8.4-1.3l-.1-.1.1-.1v-.1V4c.1-.1.3-.2.5-.3-.1-.1-.1-.2-.2-.2 0 0-.1 0-.1.1-.1-.1-.2-.2-.2-.3h-.1c-.1.4-.2.7-.3.9-.2.3-.4.5-.6.8zM61.1 8.9s.1 0 .1-.1v-.2h-.1v.3zM64.5 3.5h-.2.2zM61.6 24.6zM74.2 23.2c-.3.1-.2.3-.1.5 0-.2.4-.3.1-.5z"/>
    <path class="st1" d="M61.6 4.1c.1-.1.2-.1.3-.2-.1 0-.1-.1-.1-.1-.1.1-.1.2-.2.3zM61.5 17.6c0 .3-.1.5-.1.7.4-.2.4-.2.1-.7zM61.5 25.5s0-.1 0 0c-.1-.1-.1-.1-.2 0 .1 0 .1.1.2 0 0 .1 0 0 0 0zM74.1 28.4c-.1-.1-.2-.1-.3-.1l-.1.1c0 .1-.1.2-.1.3V29h-.1c0 .1-.1.3-.1.4h.1c.1.4.2.7.3 1h.2c.1-.5.2-.9.3-1.4.2-.3 0-.5-.2-.6zm-.3 1.1l-.1-.1c0-.2.1-.3.5-.2-.2.1-.3.2-.4.3zM61.6 25.1s.1-.1 0 0c0-.1 0-.1-.1-.1.1 0 0 0 .1.1-.1 0 0 0 0 0zM67.5 31.8h-.2-.1-.1c-.3.2-.4.6-.6 1 .4.1.4-.2.6-.3.1-.1.2-.1.3-.2.1 0 .1-.1.2-.1.2-.1.3-.2.5-.3 0-.1 0-.2-.1-.2-.2.1-.3.1-.5.1zM61 29.3zM73.3 29.4s-.1 0 0 0c-.1-.2-.1-.3-.1-.4-.1.1-.1.2-.1.4 0 .1.1 0 .2 0-.1 0-.1 0 0 0zM71.9 2.6v-.1c-.3.1-.6.2-1 .3.6.2.6.2 1-.2zM73.3 3.8l.1.1.3-.3-.1-.1-.3.3zM65.2 3h-.1c0 .1-.2.3.2.4-.1-.2-.1-.3-.1-.4zM73.6 30.6L73 30l-.1-.1c-.2.2-.5 0-.7.3l-.1.1c.1.3-.1.4-.3.6.1 0 .3 0 .5.1 0-.1-.2-.2-.2-.3 0-.1 0-.1.2-.2v.5c-.1.2-.3.4-.4.6h-.1c.1.3.1.6 0 .9H72.5c.2-.2.3-.4.4-.6-.2 0-.4-.1-.5-.1-.1-.4.3-.5.4-.7 0-.1.1-.1.1-.1l-.1-.1.1-.1.1.1v.1h.4c.1-.2.2-.2.2-.4zM70.5 3.2h.2c0-.1 0-.2.1-.2 0 0-.1 0-.1-.1-.1.1-.2.2-.2.3-.1 0 0 0 0 0zM68.6 32.3s0 .1 0 0c.1.1.1 0 .1 0h-.1zM67.8 32.5s-.1.1 0 0c-.1.1 0 .1 0 .2 0 0 .1 0 .2-.1-.1 0-.2 0-.2-.1zM64.2 3.1c.4-.1.6-.3.5-.9 0 .1-.1.1-.1.2v.2h-.1c-.1.1-.2.3-.3.5zM69.8 31.5c.1 0 .1 0 0 0 .1 0 0 0 0 0zM74.4 30.1v.2s0 .1.1.1c.1-.1.2-.2.4-.3-.4-.1-.5-.1-.5 0zM68.9 32.7l.2.2h.1s.1-.1.3-.2c-.2-.1-.3-.2-.4-.2l-.2.2zM62.7 32.2c0 .1.1.2.1.2.1.1.2 0 .4-.1-.1 0-.3 0-.5-.1zM73.7 6.5l-.2-.2s-.1 0-.1.1c.1 0 .1.1.3.1-.1.1-.1 0 0 0zM74.4 19.9c.3 0 .4-.1.4-.4-.4.1-.4.1-.4.4zM62.8 2.4c-.1 0-.2.1-.2.2 0 .4.3.3.6.4-.1-.5-.2-.7-.4-.6zM74.6 24.9v.2c.2 0 .1-.1 0-.2zM70.4 1.9h-.3c.5.7.9.6 1.7 0h-.6c-.3.2-.4.2-.8 0zM63 4.3c0 .1.1.2.2.3.2-.1.3-.2.4-.4-.2-.1-.3-.2-.4-.3-.1.2-.2.3-.2.4zM62.1 12.2v-1.1c0-.1-.2-.1-.2-.2l-.2.2c.1.4.2.7.3 1.1 0 .1.1.1.1 0z"/>
    <path class="st1" d="M73 31.8v-.5c-.3.3 0 .4 0 .5zM73.6 24.1c.1.1.2.1.4.2v-.2c.1.1.2.2 0 .2.1 0 .1.1.2.1v-.7c-.3 0-.5 0-.6.4zM74.1 23.7zM73 31.8zM61 26.1c-.5.3-.5.3-.2 1 0-.4.6-.6.2-1zM61.3 10.1c.1.1.2.1.2.2.4 0 .6-.3.5-.7-.3.1-.5.3-.8.4.1 0 0 .1.1.1-.1 0 0 0 0 0zM61.1 16.4v-.2c-.1.1-.2.1-.4.2.2.2.3.1.4 0zM61.2 10c.1 0 .1 0 0 0 .1 0 .1 0 0 0 .1 0 .1 0 0 0 .1 0 .1 0 0 0zM61.8 8.9s-.1-.1-.1-.2l-.2.2s.1.1.1.2l.2-.2zM63.9 30.3c.1 0 .2 0 .3.1-.1-.1-.1-.2-.2-.3 0 .1-.1.2-.1.2zM65.4 31.2c0 .1-.1.1-.1.2h.1v-.2zM62.7 29.7s-.1 0-.1-.1c0 .1 0 .1.1.2v-.1zM63.1 28.3v.5c.1.1.3.2.5.2h.2c.1 0 .2 0 .3.1 0-.1-.1-.2-.1-.3-.3-.2-.6-.5-.9-.5zM62 29.6s0-.1 0 0c0-.1 0-.1 0 0 0-.1 0-.1 0 0zM63.2 29.6c-.2.1-.3.2-.5.3.2 0 .3-.1.5-.3zM61.8 29.3c0-.1-.1-.1-.1-.2l-.1.1v-.1h.2c.1-.1.1-.2.2-.2v-.1c-.1-.2-.1-.3-.2-.4.3 0 .4.1.3.4.1-.1.2-.1.4-.1-.2-.2-.3-.4-.5-.6.1 0 .3 0 .4-.1.1-.2.1-.3.1-.4v-.3c-.1 0-.2-.1-.3-.1-.1 0-.2-.1-.3-.1v.7h-.1c-.1 0-.3.1-.4.1 0 .1-.1.2-.1.4 0-.1-.1-.1-.1-.2l-.1.1H61c.1.1.2.3.3.4-.2.4-.4.8-.2 1.2h.2c.3-.2.4-.4.5-.5zm0-.9c0 .1.1.1.1.2v.1c-.1 0-.1-.1-.2-.1 0-.1 0-.2.1-.2zM63.7 29.6v-.3c-.1 0-.1.1-.2.1.1.1.1.2.2.2zM62.9 27.5v-.2l-.1.1.1.1c-.1 0-.1 0 0 0z"/>
    <path class="st1" d="M61 28.3c.1-.1.1-.1 0 0 .1-.1.1-.1 0 0 0-.1 0-.1 0 0zM63.1 30.5s0-.1 0 0c0-.1 0-.1 0 0 0-.1 0-.1 0 0 0-.1 0 0 0 0z"/>
    <path class="st2" d="M76.2 31c.1-.3.3-.7.1-.9-.2-.4.1-.6.1-.9v-2.1c-.1-.7-.3-1.3 0-2 0-.1 0-.2-.1-.3-.2-.3-.3-.6 0-.9.4-.4 0-.9.1-1.4 0-.1-.1-.2-.1-.3-.2-.3-.2-.7 0-1 .1-.1.2-.3.2-.5 0-.8.1-1.5 0-2.3 0-.4-.1-.8 0-1.3.1-.6.2-1.2 0-1.8-.2-.5.2-.9-.1-1.3.2-.3 0-.6 0-.9 0-.7.2-1.5.1-2.2V9.4c0-.3-.1-.5-.3-.6.1-.3.2-.5.4-.8-.1-.2-.4-.4-.1-.6.1-.1 0-.3 0-.4 0-.1-.1-.2 0-.3.3-.6.1-1.3.1-1.9 0-.8-.3-1.5-.7-2.2-.1-.2-.2-.3-.3-.5l-.3-.3c-.5-.5-1-.9-1.7-1.2-.3-.1-.7-.3-1.1-.3-.6 0-1.2-.3-1.7 0h-.2c-.7-.2-1.4.1-2.1-.1-.6.2-1.2.1-1.8 0-.2 0-.5 0-.6.1-.3.3-.6.1-.9 0-.2-.1-.4-.1-.6-.2-1.7-.2-3 .6-4.2 1.7-.8.7-1.1 1.7-1.2 2.8-.1.9 0 1.8 0 2.7v1.2c0 .5-.1 1 .1 1.5.1.3.2.6 0 .9 0 .1-.1.2-.1.3v2.9c0 .6-.1 1.3 0 1.9 0 .3.1.7.2.9-.1.2-.2.4-.2.7-.1.5.1 1 0 1.6-.1.5 0 1 0 1.5 0 .2.1.4.1.7 0 .1.1.2.1.4-.2 1-.2 1.9-.2 2.9 0 .4 0 .7.3.9-.3.6-.4 1.2-.3 1.7.1.4.2.8.1 1.2v.7c.1.7 0 1.4.2 2.2v.1c.2.4.5.5.6.8.3.6.7 1 1.3 1.3 1.1.6 2.2 1.1 3.5.6h.2c.6.3 1.2.1 1.8.1.2 0 .3 0 .5-.1s.4-.1.7 0c.3.2.6.3.9 0 .1-.1.2 0 .3 0 .6 0 1.3-.1 1.9.2.1 0 .2 0 .2-.1.1 0 .2-.1.4-.1.7.1 1.3-.3 1.9-.5 1-.4 1.6-1.3 2.1-2.2.3-.1.3-.3.4-.5zm-4.8.7s-.1 0 0 0l-.1.1c-.3.2-.2.5-.3.8h-.2c-.1-.2-.2-.3-.2-.4.1-.3.1-.5-.2-.7.2 0 .3-.1.4-.1h.5s.1 0 .1.1v.2c0-.1 0 0 0 0zm.5-29.1c-.4.4-.4.4-1 .1.4-.1.7-.2 1-.3v.2zm2.9 27.5c-.2.1-.3.2-.4.3l-.1-.1v-.2c.1-.1.2-.1.5 0zm-1.5-.7c-.1 0-.1 0 0 0H73c0-.2.1-.3.1-.4.1-.1.2-.1.4-.1h.2v-.1-.2c0-.1 0-.2.1-.3l.1-.1c.1 0 .2 0 .3.1.2.2.4.3.3.6-.1.5-.2.9-.3 1.4H74c-.1-.3-.2-.6-.3-1h-.1c-.2.1-.3.1-.3.1zm-1.5-.4s-.1 0 0 0c-.4.3-.7.6-1.1.8v.3h-.2c-.2 0-.3.1-.3.3v.2c0-.1-.1-.1-.1-.2-.3-.4-.6-.4-1-.4h-.6c-.2 0-.5.1-.6.2-.3.2-.5.3-.8.1-.1-.1-.3-.1-.5-.1-.1.2-.2.3-.3.5-.2-.1-.4-.2-.6-.4l-.1-.1c-.1-.1-.2-.2-.2-.4-.2.1-.3.2-.3.4v.4c0 .1 0 .1.1.2l.3.3v.2h-.1s-.1 0-.1-.1l-.1-.1c0-.1 0-.1-.1-.2h-.7s-.1.1-.1.2.2.2.2.2c.1 0 .1-.1.2-.1s.2 0 .3.1c.1.1.2.1.2.2l.1.1c.1.1.1.3.2.4 0 .1.1.2.2.3-.1-.1-.2-.1-.2-.2-.5-.1-.5-.2-.4-.5-.1.1-.2.2-.4.2-.1 0-.2 0-.3-.1l-.1-.1c-.1.1-.2.1-.2.2-.1 0-.2.1-.2.1h-.1c.1.3.3.3.5.2.2-.1.2-.1.4.2-.1.2-.2.3-.3.5-.4-.2-.8-.3-1.2-.5-.1.1-.2.2-.4.1 0 0-.1-.1-.1-.2.2 0 .3.1.5.1-.1-.2-.2-.3-.3-.5v.1c-.1-.1-.2-.1-.3-.2-.1 0-.1-.1-.2-.1l-.1-.1c-.1-.1-.2-.1-.3-.2 0 .1.1.3.1.5H62c-.2-.4-.4-.9-.6-1.3-.1-.1-.1-.2-.2-.3.1 0 .3-.1.5-.1-.1-.2-.1-.3-.2-.3h-.2c-.1 0-.2 0-.3.1.1-.2.1-.4.1-.6 0-.4-.2-.7-.3-1-.1-.3-.1-.5.2-.6.1.2.2.3.3.5 0 .1.1.1.1.2 0-.2.1-.3.1-.4v-.2h.3v-.3-.3c.1 0 .2.1.3.1.1 0 .2.1.3.1.1 0 .2.1.3.1l.1-.1.1-.1c.2.1.3.2.5.3v-.3c0-.2-.2-.3-.1-.6s0-.7-.1-1v-.9c0-.4.1-.8.1-1.2 0-.2-.2-.4-.3-.6.4-.4.3-.9.2-1.4-.1-.5-.1-1-.2-1.5V20c.4-.4.2-.9 0-1.3.4-.6.3-1.2.2-1.9 0-.2-.1-.3 0-.5.1-.1.1-.3.1-.4-.1-.7.1-1.4 0-2.1v-2.1V10c0-.2-.1-.5-.1-.7 0-.1-.1-.2 0-.3.2-.4.1-.8 0-1.3 0-.3-.2-.5-.3-.7.1-.3.6-.3.5-.7-.1 0-.1 0-.2-.1-.2-.1-.3-.2-.3-.5 0 0 0-.1-.1-.1s-.1-.1-.2-.2l.1-.1c.2-.2.3-.2.3-.3 0 .1.1.1.1.1.1.1.1.2.2.3.1.1.1.1.2.1.2.1.4.1.6-.2 0-.1.1-.1.1-.2l.2-.2c.2-.2.4-.4.3-.6.3 0 .7 0 1-.1.2-.1.3-.1.5-.1H69c.5 0 1 .1 1.5.2.2 0 .3.2.4.3.2.3.4.5.6.8l.1.1c.1.1.2.1.3.2.3.2.4.6.3.9-.1.2-.1.4-.1.6 0 .6 0 1.1-.1 1.7 0 .5 0 .9.2 1.3.1.4-.1.9-.2 1.3s0 .7.4.9c-.1.1-.3.2-.4.3 0 .5.1.9 0 1.4v.3c.3 1.2-.1 2.3 0 3.5 0 .5 0 .9.1 1.4 0 .2.1.3.2.5.2.3.2.6-.1.9-.1.1-.2.3-.2.4v1.6c0 .2.2.4.2.6 0 .2-.2.4-.2.6 0 .5.1 1.1.1 1.6 0 .1.1.1 0 .2-.3.4 0 .8.2 1.3-.1.1-.3.1-.5.2.3.2.4.3.5.4v.1c-.1.2-.5.4-.2.8.1.2-.1.3-.3.5zm-.3 2.1h-.4c0-.1 0-.2-.1-.4.3.1.1.2.1.4h.4c0-.1 0-.1-.1-.1h.1v.1zm0-1.3l-.1.1-.1-.1c0-.2.1-.3.3-.4 0 0 .1 0 .1-.1l.1.1c-.1.2-.2.3-.3.4zm-1.7 1.7s.1 0 0 0c.1 0 .1 0 0 0zm-1.2.8c.1 0 .1 0 0 0 .1 0 .1.1 0 0 0 .1 0 0 0 0zm2.2-1.2c-.1 0-.1 0 0 0h-.1s0-.1.1 0c-.1-.1-.1 0 0 0zm-5.1.8c0-.1.1-.2.1-.3.1 0 .1.1.2.1v.4c0 .1-.1.1-.1.2 0 0-.2 0-.2-.1V32v-.1zm.4-.7l.1-.1h.2c-.1.1-.2.1-.2.2l-.1-.1zM61.2 8c.1.1 0 .3-.1.3-.3.1-.4-.1-.4-.3.1-.1.2-.1.3-.1.1-.1.2 0 .2.1zm.8 1.6c.1.5-.1.7-.5.7h-.3v-.2-.2c-.1 0-.2-.1-.4-.1.2-.1.2-.1.4.1.3-.1.6-.2.8-.3zm-.5-.7c0-.1.1-.1.2-.2.1.1.2.2.1.2 0 .1-.1.1-.2.2 0-.1-.1-.2-.1-.2zm1-6.3c0-.1.1-.2.2-.2.2 0 .4.2.3.6-.2-.1-.5-.1-.5-.4zm.6 1.3c.1.1.2.2.4.3l-.4.4c-.1-.1-.2-.2-.2-.3.1-.1.2-.2.2-.4zm1.4-1.4s.1-.1.1-.2.1-.1.1-.2c.1.6 0 .8-.5.9.1-.1.2-.3.3-.5zm0 1c0 .2-.1.3-.2.3h-.1v-.2l.1-.1h.2zm-3.6 13.6c-.1 0-.1 0-.1-.1s.1-.1.1-.1h.1c-.1.1 0 .1-.1.2.1-.1 0 0 0 0zm.1 9c.3.4-.2.6-.2 1-.2-.7-.2-.7.2-1zm.3-7.7c0 .3-.1.4-.1.6-.4-.3-.4-.3.1-.6zm.1 7c.1 0 .1.1 0 0v0c0 .1 0 0 0 0zm.2-.4l.1.1c-.1 0-.2 0-.1-.1-.1 0 0 0 0 0zm0-.4zm.4-6.5c0-.1-.1-.1-.1-.1v-.4c.2.1.2.3.1.5.1 0 .1 0 0 0 0 .1 0 .1 0 0 0 .1 0 .1 0 0zm.1-6.9v1.1H62c-.1-.4-.2-.7-.3-1.1 0-.1.1-.2.2-.2s.2.1.2.2zm-.6 7.1c0-.2.1-.4.1-.7.2.5.2.5-.1.7zm-.1-5.2l-.1-.1.1-.1s.1 0 .2.1c-.1 0-.2.1-.2.1zm-.8 3.3c.2-.1.3-.1.4-.2 0 .1.1.1 0 .2 0 .1-.1.2-.4 0zm.5-7.8h.1V8.9h-.1v-.1-.2zM65 3.9l.1-.1c.1.1.1.1.1.2-.1 0-.1.1-.2.1.1-.1 0-.1 0-.2zm5.4-.8c.1-.1.2-.2.3-.2 0 0 .1 0 .1.1s-.1.2-.1.2c-.1 0-.2 0-.3-.1.1.1 0 .1 0 0zm3.2.4l.1.1-.3.3-.1-.1.3-.3zm.3 22.1c-.1 0-.3-.2-.4-.3-.1-.1 0-.3 0-.5.3-.1.4 0 .6.2.1.2.3.2.5.1v-.2c.1.1.2.2 0 .2-.1.4-.5.4-.7.5zm.2 2l-.1.1v-.1c-.1-.1 0-.1.1 0-.1-.1 0-.1 0 0zm-.6-21.3l.2.2s-.1 0-.1.1c-.1-.1-.1-.2-.1-.3-.1.1-.1 0 0 0zm-.2-1.2c0-.1.1-.1.1-.2.1.1.1.2.2.3l-.1.1c0-.1-.1-.1-.2-.2zm1.4 14.5c0 .2-.1.4-.4.4.1-.4.1-.4.4-.4zm-.6 4.1v.7c-.1 0-.1-.1-.2-.1-.1-.1-.2-.1-.4-.2.2-.4.4-.4.6-.4-.1-.2-.2-.4.1-.5.3.2-.1.3-.1.5zm.3.1c.1 0 .1.1.2.1-.1.1-.1.1-.2.1 0 0-.1-.1-.1-.2 0 .1.1.1.1 0zm0-2.1c-.1.1-.2.2-.3.2l-.1-.1.3-.3c-.1 0 0 .1.1.2zm-.7-3.8c0-.1 0-.2.1-.2 0 0 0 .1.1.1-.1.1-.1.1-.2.1zm.8-4.3c.1.5 0 .8-.5 1 0-.4.1-.7.5-1zm-.4-2.7c0-.1-.1-.2-.1-.3h.1c.1.1.1.2.2.3h-.2zm0-1.7s0-.1 0 0l.1-.1c0 .1 0 .1-.1.1.1.1 0 0 0 0zm.1-5.3c-.1 0-.1-.1-.2-.1l.1-.1c.1 0 .1 0 .2.1l-.1.1zm-.6 27.7l.1.1-.1.1-.1-.1s0-.1.1-.1zM70.1 1.9H71.8c-.8.6-1.3.6-1.7 0zM65 3h.1c0 .1 0 .3.1.4-.3-.1-.1-.3-.2-.4zm-3.4 1.1c0-.1-.1-.1-.1-.2s.1-.1.1-.2h.1l.1.1c0 .2-.1.2-.2.3zm-.6.5c.1.2.2.3.3.4.2-.3.4-.5.6-.8.1-.2.2-.5.3-.8h.1c.1 0 .2.1.3.2 0 .1.1.1.2.2-.2.1-.3.2-.5.3v.4c0 .5-.4.8-.4 1.3 0 .1-.1.1-.1.3-.4-.2-.8-.3-1.1-.5V5c.1-.2.1-.3.3-.4zm6.1 28c-.2.1-.2.3-.6.3.2-.4.3-.7.6-1h.9c0 .1 0 .1.1.2-.2.1-.3.2-.5.3-.1 0-.1.1-.2.1s-.2 0-.3.1zm.8.1c-.1 0-.1.1-.2.1l-.1-.1.1-.1c.1 0 .2 0 .2.1zm1.3.2c-.2-.1-.2-.2-.3-.2.1-.1.1-.2.2-.2s.2.1.4.2c-.1.1-.2.2-.3.2zm2.7-.4c.1-.3.1-.6 0-.9-.1-.1-.1-.2-.2-.3.1-.1.2-.3.3-.4.2-.2.3-.3.3-.6 0-.1.1-.3.2-.5h-.3v-.1c.1 0 .2.1.3.1.2 0 .4-.1.4 0l.1.1.1.1.6.6c0 .2-.1.2-.2.2h-.4-.1l-.1.1c-.1.2-.5.3-.4.7.2 0 .3 0 .5.1 0-.2-.3-.3 0-.5v.5c-.1.2-.3.4-.4.6h-.5c-.1.2-.2.2-.2.2z"/>
    <path class="st2" d="M64.5 30c0-.1 0-.1-.1-.2 0-.1-.1-.2-.2-.3l-.3-.3c-.1-.1-.2-.1-.3-.1h-.2c-.2 0-.3-.1-.5-.2 0-.1.1-.1.1-.2v-.1-.2-.1-.1c0-.1 0-.2-.1-.3-.1-.2-.3-.1-.5.1h-.1c-.1 0-.2 0-.4.1.2.2.3.4.5.6-.2 0-.3.1-.4.1l-.1.1-.2.2h-.1c0 .1.1.1.1.2.1.1.1.2.2.2v.1c-.2.4-.4.8 0 1.2.1-.1.2-.2.3-.4.1-.2.2-.3.4-.5l.1-.1c.1-.1.3-.2.5-.3.1-.1.2-.1.3-.1.1 0 .1-.1.2-.1v.4c-.3.2-.3.5-.1.8-.2.1-.3 0-.4-.1-.3-.2-.2-.2-.4 0 .2.2.4.3.6.3.2 0 .4 0 .5-.1.1 0 .1-.1.2-.2 0 0 0-.1.1-.1 0 0 .1-.1.1-.2.1.1.2.2.2.3l.1.1c.1-.1.1-.1.1-.2l.1-.1v-.1c-.2 0-.3-.1-.3-.1zm-2.1-.8h.2c.2.1.2.2.1.4v.1c0-.1-.1-.1-.1-.2-.1 0-.2-.1-.2-.3zM63.4 28.4s.1 0 0 0c.1-.1.1-.1 0 0 .1-.1.1-.2.1-.3h-.1v.3c0-.1 0-.1 0 0z"/>
    <path class="st2" d="M61.8 28.5c0-.1 0-.1-.1-.2l-.1.1c.1.1.2.2.2.1 0 .1 0 0 0 0zM61.6 29.1c.1 0 .1 0 0 0 .1 0 .1 0 0 0zM63.7 31.3c.1 0 0 0 0 0z"/>
  </g>
  <g>
    <path class="st0" d="M7.7 28c.5.7 1 1 1.7.9 0-.2-.1-.5-.1-.9.3.3.5.4.8.7.2-.2.3-.5.5-.6.4-.3.8-.3 1 .1.1.2.2.3.4.4-.1-.3-.2-.6-.3-1-.2-.1-.4-.2-.6-.2-.4-.2-.8-.2-1.1-.7-.3.1-.6.1-.8.2 0-.2 0-.3.1-.4-.1 0-.1.1-.2.2-.2.2-.3.4-.5.6-.3-.3-.4-.4-.8-.7.1.4.1.7.1.9-.4.1-.7 0-1-.2-.1.2-.3.3-.4.4.1.2.1.3.2.5h.1c.1 0 .2.1.2.1-.1.1-.1.1-.2.3-.2.1-.3.1-.5.2.2 1.2.4 2.3.5 3.4V35.4c0 .2 0 .5-.1.7-.1.5-.1.5.1.9-.5.6-.3 1.3-.1 2 .1.5.4.9-.2 1.3-.1.1-.1.7 0 .9.5.7.3 1.4 0 1.9.1.9.2 1.6.4 2.3 0 .3.1.6.2.8.2.6.2 1.1-.2 1.6-.4.6-1 .6-1.6.6-.8-.1-1.6-.2-2.3-.2-.2 0-.4.1-.6.2-.2 0-.3.1-.5.1v.2c0 .5.2.9.7 1.1.5.2.9.3 1.4.1.2-.1.4-.2.6-.2.8 0 1.6.1 2.3.2.6 0 1.2 0 1.6-.6.4-.5.4-1.1.2-1.6-.1-.3-.1-.6-.2-.8-.1-.7-.2-1.4-.4-2.3.2-.5.5-1.2 0-1.9-.1-.2-.1-.8 0-.9.6-.4.3-.8.2-1.3-.1-.7-.4-1.4.1-2-.2-.5-.2-.4-.1-.9.1-.2.1-.5.1-.7v-2.8-.4c-.2-1.1-.4-2.3-.5-3.4.1-.3.3-.3.4-.4L8 29c-.3.1-.6.1-.7-.2-.2-.4.1-.6.4-.8zm2.1-.8c-.3.4-.6.7-1.1.3.4-.1.7-.1 1.1-.3zm-3 2.3c-.3.1-.5-.1-.5-.4.2-.1.5-.3.6 0 .1.1 0 .3-.1.4zm.7 1.5c-.1 0-.1 0 0 0h-.1.1zM15 25.4l-.1-.1-.2.2.2.2c0-.1 0-.1.1-.3-.1.1 0 .1 0 0zM15.8 25.7c.1 0 .1 0 .2-.1l-.1-.1c0 .1 0 .1-.1.2zM19.5 41h.7v-.1c-.2-.1-.5-.1-.7-.2v.3zM3.3 40.2c.1-.1.1-.2.2-.2l-.1-.1c0 .1 0 .2-.1.3zM15 24.5c.1.1.1.2.2.3 0-.1.1-.2.1-.3H15zM3.2 40.9H3v.1c.1 0 .2 0 .2-.1zM16.2 31.1c-.1 0-.1-.1-.3-.2l.1.2h.2zM19.9 41.8c0 .4 0 .8.1 1.2.3 0 .5.1.6.3.4.1.6.1.7.1.1 0 .1-.1.2-.1-.1-.2-.2-.3-.3-.5H21v-.2c-.3.1-.6.2-.7-.3.1-.1.2-.1.2-.2-.2-.2-.4-.2-.6-.3zM3.6 35.9l-.2-.2h-.1c0 .1-.1.2-.3.3.2.1.3.2.3.2.2 0 .2-.2.3-.3zM2.6 25.9s-.1 0 0 0zM8.2 25.7c-.2.1-.4.1-.6.2-.1 0-.2.1-.3.1 0 .1 0 .1.1.2.3.1.5-.1.8-.5zM4.1 26.8c0-.2.1-.4.3-.5-.2-.2-.4-.1-.6.1.1.2.2.3.3.4zM4.2 25.7c.1-.1.2-.2.2-.3-.1-.1-.2-.1-.2-.1l-.2.1c0 .1.1.1.2.3zM3.3 25.6v-.3c-.1 0-.2 0-.3.1l.1.1c.1 0 .1.1.2.1zM3.7 24.5c.3-.2.6-.3.4-.7-.3.1-.5.2-.4.7zM18.7 20.5s0 .1.1.1c0 0 .1 0 .1-.1h-.2zM14.5 23.9c0-.2 0-.3-.1-.6 0 .1-.1.1-.1.2.1.1.2.3.2.4zM15.2 23.2z"/>
    <path class="st0" d="M14.2 23.3s0 .1.1.1c0 0 .1 0 .2-.1v-.1c-.2.1-.2.1-.3.1zM14.4 23.3zM8 5.5c0-.1-.1-.2-.2-.3-.1.1-.2.2-.2.3 0 .1.1.2.2.3.1-.1.2-.2.2-.3zM26.1 49.9h.4c.6 0 1.2-.1 1.4-.6.3-.6.1-1.1-.3-1.6-.5-.7-1.1-1.5-1.6-2.3-.4-.6-.8-1.3-.9-2.1-.1-1.2-.7-2.1-1-3.2-.1-.5-.3-.9-.7-1.2 0-.9-.5-1.6-.8-2.4-.2-.7-.4-1.3-1-1.8.2-.5.1-.9-.3-1.3-.1-.1-.2-.2-.2-.4-.1-.6-.3-1.1-.8-1.5-.3-.3-.5-.6-.3-1-.7-.6-.8-1.2-.5-2.1-.3-.2-.7-.4-.4-.9.6-.1.4.5.8.7.2-.1.4-.3.6-.4.5-.4.9-.9 1.4-1.2.2-.2.6-.2.8-.4.7-.8 1.5-1.6 1.8-2.7.3-1.2.4-2.5.1-3.6-.2-.8.1-1.4-.1-2.2-.1-.6.1-1.3.1-2 0-.5-.1-.9-.4-1.2v-.3c.1-.1.2-.2.5-.3-.2-.3-.3-.6-.1-1 .2-.5.3-1.2 0-1.8-.3-.5-.2-1-.1-1.5.1-.3.2-.6.2-.9 0-1.3-.3-2.5-.9-3.6-.3-.4-.6-.9-1-1.2-.3-.2-.6-.4-.8-.6.1.1.1.2.2.3.6 1.1.9 2.3.9 3.6 0 .3-.1.6-.2.9-.2.5-.3 1 .1 1.5.3.6.2 1.2 0 1.8-.1.4-.1.7.1 1-.2.2-.4.3-.5.3v.3c.4.3.5.7.4 1.2-.1.7-.3 1.3-.1 2 .1.7-.1 1.4 0 2.2.3 1.2.2 2.4-.1 3.6-.3 1.1-1 1.9-1.8 2.7 0 .3-.4.3-.6.4-.5.4-1 .8-1.4 1.2-.2.2-.4.3-.6.4-.4-.2-.3-.7-.7-.7-.1.1-.1.3-.2.4 0 .1.1.2.3.3 0-.1.1-.1.1-.2.1.1.2.2.1.2 0 0 0 .1-.1.1-.3.9-.2 1.5.5 2.1-.1.2-.1.3-.1.5.1.1.1.2.1.3.1.1.1.2.2.2.4.4.7.9.8 1.5 0 .1.1.3.2.4.4.3.5.8.3 1.2.6.5.8 1.1 1 1.8.2.8.8 1.5.8 2.4.4.3.6.7.7 1.2.3 1.1.9 2 1 3.2.1.7.5 1.4.9 2.1.1.1.1.2.2.3.2.3.4.5.6.8.1.1.2.3.2.4.2.3.4.5.6.8.4.5.5 1.1.3 1.6-.3.6-.8.7-1.4.6h-.4c-.9-.3-1.9-.3-2.9-.2h-.9c.1.3.2.6.3.8.1.3.5.5.8.6.5.1 1 .2 1.5.1 1 .1 1.9.1 2.9.4zm-7.8-21.5c0-.1-.1-.2-.1-.2 0-.1.1-.1.2-.1 0 .1.1.1.1.2 0 0-.1 0-.2.1zM15.2 26.8c-.1 0-.1.1-.1.1-.1 0-.1-.1-.2-.1 0 .1.1.1.1.2l.2-.2zM15.9 7c-.2-.2-.3-.4-.5-.6-.4-.4-1.1-.5-1.7-.8-.5.3-1 0-1.5-.3-.2.5-.7.4-1.1.4-.7 0-1.3-.1-2 0-.8.1-1.5.4-2.3.7v.8s.1-.1.2-.1v.7c-.3-.2-.4-.4-.3-.5-.3.2-.7.4-1 .6V8h.8v1.4c0 .6.2 1.3.2 1.9 0 1-.1 2-.1 3 0 .5 0 .9-.4 1.2.2.6.7 1.1.5 1.8-.2.5.1 1.2-.5 1.5 0 .1.1.3.1.4.2.2.4.5.6.7 0 0-.1 0-.1.1l.4.4c.2-.1.4-.2.6-.4.1.1.1.2.2.3.5-.3.2-1 .4-1.5.3-.7-.2-1.2-.5-1.8.4-.3.5-.7.4-1.2-.1-1 .1-2 .1-3 0-.6-.2-1.3-.2-1.9V9.5h-.7v-.1c.4-.2.7-.4 1.1-.6V8c.8-.2 1.5-.5 2.3-.6.6-.1 1.3 0 2 0 .4 0 .9.2 1.1-.4.6.3 1.1.6 1.5.3.3.1.5.2.8.3-.2-.3-.3-.4-.4-.6zM7.1 8.5s-.1 0-.1-.1v-.2l.1.1c.1.1.1.2 0 .2zm2.3-1.2c0-.1-.2-.2-.2-.3 0 0 .1-.1.2-.3.1.2.2.3.2.3 0 .1-.1.2-.2.3zM16.2 3.7c-.1.1-.1.2-.1.3 0 0 .1-.1.1-.3 0 .1 0 0 0 0zM4.5 4.9h-.2s.1.1.2.1v-.1zM17.5 3.8s0 .1.1.1c0 0 .1 0 .1-.1 0 0 0-.1-.1-.1 0 0-.1 0-.1.1zM6.6 23.7v.3c.2 0 .4-.1.6-.1.1-.1.1-.3.2-.4l.3.3h.2c-.1-.6-.2-.6-.6-.5h-.1l-.1.1-.1-.1c-.1 0-.2.1-.2.2.1 0 .1.1.2.1-.2 0-.2.1-.4.1.1 0 0 0 0 0zM2.6 5.1c0 .1.1.1.1.2.1 0 .2-.1.2-.1 0-.1-.1-.2-.2-.2l-.1.1zM5.8 29.5c-.1 0-.1 0 0 0zM4.8 26c.3-.2.5-.4.4-.7-.2.1-.5.3-.4.7z"/>
    <path class="st1" d="M4.8 27.5c-.1 0-.1 0 0 0 0 .4.1.6.4.5l.1-.1c0-.1.1-.2 0-.3-.1-.3-.3-.2-.5-.1zM13 23c0 .1-.1.2-.1.2.1 0 .2.1.2.1l.1-.1c0-.1-.1-.2-.2-.2zM17.6 5.4c0-.1 0-.2-.1-.3 0-.1-.1-.1-.1-.2s-.3-.1-.3 0c-.1.1-.2.3-.2.5v.1c.1.1.2.3.4.5.1-.1.1-.2.2-.3 0-.1.1-.2.1-.3zM5.7 27.3c.1 0 .1 0 .2-.1 0-.1-.1-.3-.1-.4-.2.1-.2.3-.1.5zM8.8 24.9v-.1c-.1-.4-.2-.4-.6-.4H8c-.4.1-.5.3-.5.7.2 0 .3-.1.5-.1s.5 0 .8-.1zM18.8 19.3h-.1c0 .1 0 .1.1.2l.1-.1s0-.1-.1-.1zM14.9 22.4c-.1 0-.1.1-.2.1.1.1.1.2.2.2 0 0 .1-.1.2-.1 0-.1-.1-.2-.2-.2zM21 42.4v-.3c-.2 0-.3-.1-.5-.1-.1.1-.2.1-.2.2.2.5.4.3.7.2zM21.2 42.6c.1.2.2.3.3.5.2-.1.4-.3.5-.4 0-.1-.1-.1-.1-.2-.2-.3-.4-.1-.6 0 0 .1-.1.1-.1.1zM18.8 35.6c.1 0 .1-.1 0-.1v.1c-.1 0 0 0 0 0zM21.9 44.6c.1 0 .2-.1.4-.2-.1-.2-.3-.5-.4-.7-.1 0-.3.1-.4.1-.2 0-.3-.1-.4-.4 0 0 .1 0 .1-.1-.2.1-.3.1-.7-.1.2.3.1.8.3 1 .7.3.9.4 1.1.4zM17.4 29.5l-.3-.3-.1.1c.1.1.1.2.2.4 0-.2.1-.2.2-.2zM20.6 41c.2-.7.2-1-.5-1.5.1.4.1.7.2 1-.2-.1-.4-.1-.7-.2 0 .1 0 .3-.1.4.2.1.4.1.7.2v.1h.4zM16.5 31.4zM18.9 36.1c-.6 0-.6 0-.5.7.2-.3.4-.5.5-.7zM17.1 31.3c-.2 0-.4.1-.5.1.1.2.3.4.5.2v-.3zM16.3 30.7c-.2-.1-.4.1-.5.4.2.1.5.2.7.3.2-.3.1-.6-.2-.7zm-.3.4s0-.1-.1-.2c.1.1.2.1.3.2H16zM17.5 36.3c.3-.2.5-.3.8-.5-.6-.1-.6-.1-.8.5zM16.5 6.4s-.1.1 0 0c-.1.1-.1.1-.1.2 0 0 .1 0 .1-.1v-.1zM4.5 20.8c0 .1 0 .1.1.2.1 0 .1-.1.2-.1 0-.1-.1-.1-.1-.2-.1 0-.2.1-.2.1zM3.1 14.6h.4v-.2c-.1 0-.3 0-.4.1v.1zM2.8 14h.1s0-.1-.1-.1h-.1c.1 0 .1.1.1.1zM2.7 5.3h.1zM2.9 7.6l-.1-.1-.1.1s0 .1.1.1.1 0 .1-.1zM3.7 13h.1v-.1-.1l-.1.2zM3.9 9.1c0 .1 0 .2.1.2h.2c0-.1-.1-.2-.1-.3 0 0-.2 0-.2.1zM2.7 17.6l.2-.2c0-.1 0-.1-.1-.3-.1.1-.2.2-.2.3-.1.1 0 .2.1.2zM2.7 5l-.1.1v.1c0-.1 0-.1.1-.2zM3.5 6.3v.3h.6v-.2c-.1-.2-.3-.5-.6-.1zM5 4.5c.1 0 .2.1.2.1l.2-.2-.2-.2c-.1.1-.1.2-.2.3zM5.7 24.8c0-.2-.1-.5-.2-.5-.2 0-.6 0-.7.2-.4.5-.8.8-1.5.8v.3c-.1 0-.1 0-.2-.1l-.1-.1c-.2.1-.4.2-.5.5.3 0 .6.1.8.1.2.2.4.5.5.8.1 0 .1 0 .2.1-.2 0-.3-.2-.3-.5.2-.1.4-.2.6-.1.1-.1.3-.2.4-.3-.1-.4.2-.5.4-.7v-.1c.4-.3.6-.4.6-.4zm-1.5.9c-.1-.2-.2-.2-.2-.3 0 0 .1-.1.2-.1s.2.1.2.1c-.1.1-.1.1-.2.3zM15.2 3.1c0 .1.1.1.2.2 0 0 .1-.1.2-.1-.1-.1-.2-.2-.3-.2 0-.1-.1 0-.1.1zM13.7 3.1c0-.1-.1-.1-.2-.2-.1.1-.2.2-.2.3l.3.3c0-.1.1-.2.1-.4zM5.3 6.2v-.7c-.3.2-.4.4 0 .7zM4.5 5c-.1 0-.2-.1-.2-.1-.2 0-.3.2-.3.4.5 0 .5 0 .6-.5h-.1V5zM4 3.7c-.1 0-.2.1-.3.1.1.1.1.2.2.3.1-.1.2-.2.2-.3L4 3.7zM4.4 19.4c0 .1.1.1.1.2.1-.1.2-.1.2-.1 0-.1-.1-.1-.1-.2-.1 0-.1 0-.2.1zM4.4 11.7s-.1-.1-.2-.1c0 0 0 .1-.1.2.1 0 .1.1.2.1.1-.1.2-.2.1-.2zM4.8 26.6c0 .1.1.2.2.3.1-.1.1-.2.2-.2-.1-.1-.2-.1-.2-.1-.1-.2-.2-.1-.2 0zM14.3 23.4s0-.1-.1-.1h.2V23v-.2h-.7v.2c.1.3.2.5.6.4zM24.6 44.1c.3.4.5.8.8 1.2-.1-.1-.1-.3-.2-.4-.2-.3-.4-.5-.6-.8zM15.3 23.2c-.1 0-.1 0 0 0 .1.2.2.3.3.4 0-.1.1-.1.1-.2-.1-.2-.2-.4-.6-.4H15c.1 0 .1.1.1.1 0 .1.1.1.2.1-.1 0-.1 0 0 0zM20 33.3zM5.4 6.8c0 .1-.1.1 0 .2 0 0 .1 0 .1.1 0-.1 0-.1.1-.1-.1-.2-.1-.2-.2-.2zM4.8 22l.2.2c.1 0 .2-.1.3-.2-.2-.1-.3-.1-.4-.1 0 0 0 .1-.1.1zM6.3 19.4c.1.2.3.3.4.5 0 0 .1 0 .1-.1-.2-.2-.4-.5-.6-.7.1.2.1.3.1.3zM7.6 25.9zM7 24.3c.1-.2.2-.3.2-.5-.2 0-.4.1-.6.1v-.3c0-.1.1-.2.1-.3l.2-.2c-.1-.1-.2-.2-.3-.2 0 .1-.1.1-.3 0-.1.8-.1.8.7 1.4zM5.3 23.2s.1 0 .2-.1l-.5-.5c.1.5.1.5.3.6zM7.2 23.2h.1c.4 0 .4 0 .6.5h-.2c.2.2.4.4.8.1l-.9-.9c-.1.1-.3.2-.4.3zM6 20.2s0 .1 0 0c0 .1.1.1 0 0 .1 0 .1 0 0 0zM10.5 24.7c.1.1.2.2.3.4.1-.1.1-.2.2-.2-.1-.1-.3-.2-.4-.3 0-.1-.1.1-.1.1zM14.3 23.5c-.1.2-.2.4.1.6 0-.1.1-.2.1-.2 0-.1-.1-.3-.2-.4zM3.2 30.9c-.1-.2-.2-.4-.5-.3l-.1.2c.2.3.4.4.6.1zM3.2 40.9c0 .1-.1.1-.2.1v-.1h-.1c-.1 0-.2.2-.1.3.1.4.4.4.8.2-.1-.2-.2-.4-.4-.5zM15.1 27.3c.4.1.5-.2.7-.6.1-.2.2-.4.2-.6.1-.3.2-.5.3-.8 0 0-.1-.1-.1-.2-.1.1-.1.2-.2.2v.2l-.1.1c-.5.7-.4.7-1.3.9.2.4.3.7.5.8zm-.2-.6l.1-.1c.1 0 .1.1.2.2-.1.1-.2.1-.2.1s-.1-.1-.1-.2zM3.6 35.9c0 .1-.1.2-.2.3 0 0-.2-.1-.3-.2l.3-.3c-.4.1-.4.3-.1 1.1.2-.2.4-.3.4-.5.1-.2 0-.4 0-.7h-.2c0 .2.1.3.1.3zM3.1 39.9c0 .1.1.2.2.3 0-.1.1-.1.1-.2l.1.1c0-.1.1-.1.1-.1-.1 0-.2-.1-.3-.1 0-.2-.2-.1-.2 0zM14.4 24.6s.1 0 0 0c.1 0 .1 0 0 0 0-.1 0 0 0 0zM16.9 26.7c0-.1-.1-.1-.1-.2-.1 0-.2.1-.2.1 0 .1.1.1.1.2.1 0 .2 0 .2-.1zM3.6 35.7zM16.1 4c0-.1.1-.2.1-.3-.4-.3-.5-.3-1 .2.6.3.7.3.9.1zM19.9 21.6c-.3 0-.6 0-1-.1 0 .1-.1.2-.1.3.2.1.5.3.7.3.3.1.4-.1.4-.5zM16.6 23.2l-.3.3c.1.1.1.2.2.2l.2-.1c0-.2 0-.2-.1-.4zM19.8 13.1c0 .1.1.2.1.2.1 0 .1-.1.2-.2-.1 0-.1-.1-.2-.2 0 .1-.1.1-.1.2zM16.9 32.4h.2c-.1 0-.1-.1-.3-.2 0 .1.1.2.1.2zM13.2 25.2c.1.1.1.2.2.2s.2-.1.3-.2c-.2-.1-.3-.1-.4-.1 0-.1 0 0-.1.1zM15.9 28.9c0 .1.1.2.1.2.1 0 .1 0 .2-.1-.1-.1-.2-.1-.2-.2 0 0-.1 0-.1.1zM15.8 30.1s.1 0 0 0c.1 0 .1-.1 0 0 .1-.1 0-.1 0 0 0-.1 0 0 0 0zM15.8 24.9c.1-.2.2-.3.2-.5h-.7-.1c0 .1-.1.2-.1.3.1.2.2.4.4.7.2-.1.3-.3.3-.5zM12.4 24.4h.4v-.2c-.1 0-.3 0-.4.1-.1-.1-.1.1 0 .1zM4.3 41.2c-.1.3-.2.7-.4 1.1.8-.5.9-.6.4-1.1z"/>
    <path class="st1" d="M3.6 35.7l.2-.2-.1-.1c0 .1 0 .2-.1.3zM15.1 25.6c0-.1-.1-.1-.2-.2v.1c0 .1-.1.1-.1.2l.1.1.2-.2zM17.8 21.9s0 .1.1.1.2-.1.2-.1c0-.1 0-.1-.1-.3-.2.2-.2.2-.2.3zM20 9.7v-.1h-.1l.1.1c-.1 0 0 0 0 0zM3.7 27.8c-.1.4-.2.8-.2 1.3.9-.5.9-.8.2-1.3zM18.8 5.9c.2-.9.1-1.2-.3-1.2-.1 0-.4.1-.4.3-.3.4 0 .6.7.9zM3.4 27.1v.2l.1.1c0-.1.1-.1.1-.2-.1-.1-.1-.1-.2-.1zM18.9 8.9c-.2.3-.2.3 0 .7v-.7zM4.3 39.6c0 .1.1.1.1.1.1 0 .2-.1.2-.1s-.1-.1-.2-.3c0 .1-.1.2-.1.3zM4.4 37.2l-.2-.2c-.1 0-.2.2-.3.3.2.1.3.2.3.2.1-.1.2-.2.2-.3zM18.9 7.5c0-.1-.1-.3-.2-.3-.3 0-.3.3-.3.5 0 .1.1.3.3.6.1-.4.2-.6.2-.8zM4.2 30.8c0-.8 0-.8-.6-.8.2.3.2.7.6.8zM20 18.7c.1-.2-.1-.3-.3-.3-.1.1-.1.3-.2.4.2.1.5.2.5-.1zM19.5 18.9c0-.1 0-.1 0 0zM19.4 19.2c0-.1 0-.2.1-.3l-.2.2c0 .1 0 .1.1.1zM3 33.9c0-.1.1-.1.1-.2s-.1-.2-.2-.3c-.1.1-.2.2-.1.3 0 .1.1.1.2.2zM2.7 36.7v-.9c-.3.3-.3.6 0 .9zM20 38.8v-.1s-.1 0 0 .1c-.1 0-.1 0 0 0zM2.8 32.3s.1.1.2.1l.1-.1c0-.1-.1-.1-.1-.3-.2.1-.2.2-.2.3zM16.1 28l-.2-.2-.1.1c0 .1.1.1.1.2 0 0 .1 0 .2-.1zM20.3 17.6c-.2.1-.5.2-.7.4 0 0 .1.3.1.4.2-.2.5-.4.7-.6 0-.1-.1-.1-.1-.2zM19.7 18.4zM20.3 10.2l-.1-.1c0 .1-.1.1 0 .2 0 0 .1 0 .1.1-.1-.2 0-.2 0-.2z"/>
    <path class="st2" d="M6.1 26.5c.2.3.5.6.7.7.3.2.6.2 1 .2 0-.2-.1-.5-.1-.9.3.3.5.4.8.7.2-.2.3-.5.5-.6l.2-.2c.3-.2.6-.1.7.2.3.5.7.5 1.1.7.2.1.4.2.6.2.1 0 .2.1.3.1 0-.1.1-.2.2-.3.1-.1.3-.1.4-.1 0 .1.1.3 0 .4-.1.1-.3.2-.5.3.2.3.3.5.4.7v.1c.2.6.3 1.3.6 1.9.4.6.4 1.3.6 1.9.4 1.1.7 2.3 1.4 3.3.1.1 0 .2.1.3.4.8.5 1.7 1 2.5.6.9 1.1 1.9 1.2 3 .1.4.1.9.4 1.2.6 1 .9 2 1 3.1 0 .3.1.5.2.8.1.2.2.5.3.7.1.3.5.5.8.6.2 0 .4.1.5.1.3 0 .6.1.9 0 1-.1 1.9-.1 2.9.2h.4c.6 0 1.2-.1 1.4-.6.3-.6.1-1.1-.3-1.6-.2-.3-.4-.5-.6-.8-.3-.4-.6-.8-.8-1.2-.1-.1-.1-.2-.2-.3-.4-.6-.8-1.3-.9-2.1-.1-1.2-.7-2.1-1-3.2-.1-.5-.3-.9-.7-1.2 0-.9-.5-1.6-.8-2.4-.2-.7-.4-1.3-1-1.8.2-.5.1-.9-.3-1.2-.1-.1-.2-.2-.2-.4-.1-.6-.3-1.1-.8-1.5l-.2-.2c-.1-.1-.1-.2-.1-.3 0-.1 0-.3.1-.5-.7-.6-.8-1.2-.5-2.1-.1 0-.1-.1-.2-.2l-.3-.3c0-.1 0-.2.1-.4h.1c.5 0 .4.5.7.7.2-.1.4-.3.6-.4.5-.4.9-.9 1.4-1.2.2-.2.6-.2.8-.4 1-.7 1.7-1.5 2-2.7.3-1.2.4-2.5.1-3.6-.2-.8.1-1.4 0-2.2-.1-.6.1-1.3.1-2 0-.5-.1-.9-.4-1.2v-.3c.1-.1.2-.2.5-.3-.2-.3-.3-.6-.1-1 .2-.5.3-1.2 0-1.8-.3-.5-.2-1-.1-1.5.1-.3.2-.6.2-.9 0-1.3-.3-2.5-.9-3.6-.1-.1-.1-.2-.2-.3-.2-.3-.4-.5-.6-.7l-.2-.2c-.9-.6-1.6-1.3-2.6-1.7-.7-.3-1.5-.6-2.3-.4S15 0 14.3.4c0 0-.1-.1-.2-.1-.3 0-.5-.1-.8-.1-.5 0-1 .2-1.4.1-.5-.1-1 0-1.4-.1-.9 0-1.8 0-2.6.1-.1 0-.3 0-.4-.1-.3 0-.6-.1-.8-.1-1.3.1-2.4.1-3.6 0C2.4 0 1.7-.1.9.1.5.2.3.5.1.8c-.2.7-.1 1.3.2 1.9.1.3.2.6.1.9 0 .1-.1.3 0 .4 0 .9.1 1.8.1 2.8 0 .6-.1 1.3.1 1.9.1.5.2 1 0 1.5-.1.2-.1.5 0 .6.5.5.2 1 .1 1.5-.1.7-.3 1.5-.1 2.1.2.7 0 1.4 0 2.1-.1 1.2-.1 3.1.2 4.5v.4c-.4 1.1-.3 2.2.1 3.3.1.2 0 .4 0 .6-.3 1.1-.5 2.2-.1 3.3 0 .1.1.3 0 .4-.3.3-.2.7-.2 1.1 0 .6-.2 1.3.1 1.9-.3.8-.2 1.6 0 2.5.1.4.1.8.1 1.3-.1.8-.2 1.7-.1 2.5 0 .2.1.4 0 .5-.2.3-.1.6.2.9.1.1.1.4.1.5-.5.6-.3 1.3-.1 1.9 0 .2.1.5.1.7-.1.7-.3 1.5-.4 2.2-.1.7-.1 1.4-.2 2.2 0 .5.3.9.7 1.1.3.2.6.2.9.2.2 0 .3 0 .5-.1s.4-.2.6-.2c.8 0 1.6.1 2.3.2.6 0 1.2 0 1.6-.6.4-.5.4-1.1.2-1.6-.1-.3-.1-.6-.2-.8-.1-.7-.2-1.4-.4-2.3.2-.5.5-1.2 0-1.9-.1-.2-.1-.8 0-.9.6-.4.3-.8.2-1.3-.1-.7-.4-1.4.1-2-.2-.5-.2-.4-.1-.9.1-.2.1-.5.1-.7v-2.8-.4c-.2-1.1-.4-2.3-.5-3.4.2-.1.4-.1.5-.2 0-.1-.1-.2-.1-.4-.1-.2-.1-.3-.2-.5-.3.1-.6.1-.7-.2-.1-.2 0-.4 0-.5-.1-.3 0-.4.2-.5zm7.6-23.4c0 .1-.1.2-.2.4l-.3-.3c.1-.1.2-.2.2-.3.2.1.3.2.3.2zM8.8 24.9c-.3.1-.6.1-.9.2-.2 0-.3.1-.5.1 0-.5.2-.7.5-.7h.2c.4 0 .4 0 .6.4h.1zM4.2 37.4s-.2-.1-.3-.2c.1-.1.2-.2.3-.2l.2.2c0 .1-.1.2-.2.2zm-.6 4c-.4.2-.6.1-.8-.2 0-.1.1-.2.1-.3H3.2c.2.1.3.3.4.5zM5.3 4.5c-.1 0-.1 0-.2-.1.1-.1.1-.2.2-.2 0 0 .1.1.2.1-.2.1-.2.2-.2.2zm0 1v.7c-.4-.3-.3-.5 0-.7zm1.4 1.8c0-.1.1-.1 0 0 .1-.1.1-.1 0 0 .1-.4.1-.6.1-.9.8-.2 1.5-.5 2.3-.6.6-.1 1.3 0 2 0 .4 0 .9.2 1.1-.4.6.3 1.1.6 1.5.3.6.3 1.3.4 1.7.8.2.2.4.4.5.6.1.2.3.4.4.6.1.2.3.4.4.7.5.8.4 1.7.5 2.6.1.6 0 1.2-.1 1.8-.2.8-.1 1.6 0 2.4.1.8 0 1.7.2 2.5.1.3-.2.7-.4 1-.5 1.1-1.5 1.7-2.4 2.5-.1.1-.3 0-.5 0-.4 0-.5 0-.6.4v.3c-.2-.1-.3-.2-.5-.3-.1-.1-.2-.2-.4-.3-.5.2-1.1.2-1.7.1-.5-.1-1-.1-1.4.1-.4.1-.7.2-1-.3-.1.1-.2.1-.2.2-.4.3-.7.4-1.3 0 .3-.1.4-.2.7-.3-.2-.2-.4-.5-.6-.7l-.4-.4c-.1-.2-.3-.3-.4-.5 0-.1 0-.2-.1-.3 0-.1-.1-.2-.1-.4.6-.3.3-1 .5-1.5.3-.7-.2-1.2-.5-1.8.4-.3.5-.6.4-1.2-.1-1 .1-2 .1-3 0-.6-.2-1.3-.2-1.9V8h-.5v-.1c.3-.3.6-.5.9-.6zm.9-1.8c0-.1.1-.1.2-.3.1.1.2.2.2.3 0 .1-.1.2-.2.2-.1-.1-.2-.1-.2-.2zm12.1 12.9c0-.2-.1-.4-.1-.5.2-.2.5-.2.7-.4 0 .1.1.1.1.2-.2.3-.5.5-.7.7.2-.1.4 0 .4.3-.1.3-.3.3-.5.2 0 .1-.1.2-.1.3 0 0-.1 0-.1-.1.1-.1.1-.2.2-.2v-.1c0-.1 0-.2.1-.4zm.3-8.7s-.1 0 0 0c-.1 0-.1-.1-.1-.1h.1v.1zm-.1 3.2l.2.2c-.1.1-.2.1-.2.2 0-.1-.1-.2-.1-.2 0-.1.1-.1.1-.2zm.2-2.7V10s.1 0 .1.1c0 0 0 .1-.1.1.1.1 0 .1 0 0zm-.6 12c-.2 0-.5-.2-.7-.3 0-.1.1-.2.1-.3.3 0 .6 0 1 .1 0 .3-.1.5-.4.5zm-1.5-.3s-.1.1-.2.1l-.1-.1c0-.1.1-.1.1-.2.2.1.2.2.2.2zm.4 14.9c-.1-.8-.1-.8.5-.7-.1.2-.3.4-.5.7zm.4-1.2s-.1 0 0 0v-.1.1zm-3-4.5c0-.4.2-.5.5-.4.3.1.4.4.3.7.2 0 .4-.1.5-.1v.3c-.3.2-.4 0-.5-.2-.3-.1-.6-.2-.8-.3zm.7-7.5c-.1 0-.1-.1-.2-.2l.3-.3c.1.2.1.3.1.3 0 .2-.1.3-.2.2zm-.3 5.3c-.1.1-.2.1-.2.1s-.1-.1-.1-.2l.1-.1c.1.1.1.2.2.2zm-.1-.9c-.1.1-.2.1-.2.1 0-.1-.1-.1-.1-.2l.1-.1c0 .1.1.2.2.2zm-.2 2s0 .1 0 0c0 .1-.1.1 0 0-.1.1-.1 0 0 0-.1 0 0 0 0 0zm1.2 2.3h-.2s0-.1-.1-.2c.1.1.2.2.3.2zm.1-2.7c-.1-.1-.1-.2-.2-.4l.1-.1.3.3c-.1.1-.2.1-.2.2zm-.5-2.7c0-.1-.1-.2-.1-.2 0-.1.1-.1.2-.1 0 .1.1.1.1.2 0 0-.1 0-.2.1zm-.6-2.4c-.1.2-.2.3-.2.5-.1.2-.2.3-.3.5-.2-.3-.3-.5-.4-.7-.1-.1-.1-.2-.2-.3h.4c.2-.1.4-.1.7 0 0-.1 0-.1 0 0 0-.1 0-.1 0 0zm-1 1.1l-.2.2-.1-.1-.2-.2.2-.2.1.1c.1.1.2.1.2.2zm-1.9-2.5s0 .1-.1.1-.1 0-.2-.1c0-.1.1-.1.1-.2l.2.2zm-.4 1.1v.2h-.4v-.1c.1-.1.2-.1.4-.1zm1-1.5h.7v.6c.1.3.2.4.1.6 0 .1 0 .1-.1.2-.3-.2-.2-.4-.1-.6 0-.1.1-.1.1-.2-.1 0-.1 0-.2.1-.4.1-.4-.1-.5-.4v-.3zm1.9.8c0 .1-.1.1-.1.2l-.3-.3-.1-.1-.1-.1h.1c.3-.1.5 0 .5.3zm-.8-.8c-.1 0-.1-.1-.2-.2.1 0 .1-.1.2-.1s.1.1.2.1c-.1.2-.1.2-.2.2zm-.4 1.9s-.1 0 0 0h-.1s0-.1.1 0zm4.4-15.7v.7c-.3-.3-.3-.3 0-.7zm-.1 11.7h-.2l.1-.1c.1 0 .1 0 .1.1zm-.1-1.3h.1s0 .1.1.1l-.1.1c-.1 0-.1-.1-.1-.2zm-.1-12.2s0 .1 0 0c.1 0 .3.2.3.3 0 .2-.1.4-.2.7-.2-.3-.3-.5-.3-.6-.1-.1-.1-.4.2-.4zm-2.1-.5s-.1 0-.1.1v-.1h.1c0-.1 0-.1 0 0zm1.1-1.2c0 .1 0 .2-.1.3-.1.1-.1.2-.2.3-.1-.2-.3-.4-.3-.5v-.1c0-.2.1-.4.2-.5h.3c0 .1.1.1.1.2-.1.1 0 .2 0 .3zm0-1.5s0-.1-.1-.1c.1 0 .1-.1.1 0 0 0 0 .1.1.1h-.1zM7.4 23.5c-.1.1-.1.3-.2.4 0 .1-.1.3-.2.4-.8-.6-.8-.6-.7-1.4.2.1.3.1.4.1.1.1.2.1.3.2l.1.1.1-.1c.1-.1.3-.2.4-.3l.9.9c-.4.3-.6.1-.8-.1-.1 0-.2-.2-.3-.2zm-2.2 1.8c0 .4-.2.6-.4.7-.1.1-.3.2-.4.3-.1.1-.2.3-.3.5-.1 0-.1 0-.2-.1-.2-.3-.4-.5-.5-.8-.3 0-.5-.1-.8-.1.1-.2.3-.4.5-.5.1 0 .2-.1.3-.1.6.1 1-.2 1.4-.8.1-.1.5-.2.7-.2.1 0 .2.4.2.5 0 .1-.2.2-.5.4v.2zM2.7 36.7c-.3-.3-.3-.6 0-.9v.9zM5.4 22c-.2.1-.2.2-.3.2-.1 0-.2-.1-.3-.1.1-.1.1-.2.2-.3.1 0 .2.1.4.2zm.6-1.7s0-.1 0 0c0-.1 0-.1 0 0 .1-.1.1-.1 0 0 .1 0 0 0 0 0zm-.5 2.8c-.1.1-.2.1-.2.1-.2-.1-.2-.1-.3-.6.2.2.4.3.5.5zm-1.4.7c.1.4-.2.5-.4.7-.1-.5.1-.6.4-.7zm.3-4.4c.1 0 .2-.1.2-.1 0 .1.1.1.1.2s-.1.1-.2.1c0-.1-.1-.2-.1-.2zm-.1-7.8c.1 0 .1.1.2.1 0 0 0 .1-.1.1s-.1-.1-.2-.1c0-.1.1-.1.1-.1zM4 9.3c0-.1-.1-.2-.1-.2 0-.1.2-.1.2-.1 0 .1 0 .1.1.3H4zM3.7 13l.1-.1v.2c-.1 0-.1 0-.1-.1zm-.2 1.4v.2h-.4v-.2h.4zm-.8 3.2c-.1-.1-.2-.1-.1-.2 0-.1.1-.2.2-.3.1.1.1.2.1.3l-.2.2zM3 33.9c-.1-.1-.2-.1-.2-.2 0 0 .1-.1.1-.3.1.1.2.2.2.3 0 0-.1.1-.1.2zm-.1-2c.1.2.1.2.1.3 0 0 0 .1-.1.1s-.2 0-.2-.1c.1 0 .1-.1.2-.3zm-.2-1c0-.1 0-.2.1-.2.3-.1.4.1.5.3-.3.2-.5.1-.6-.1zm.7-3.6v-.2c.1 0 .1 0 .2.1 0 .1 0 .1-.1.2 0-.1-.1-.1-.1-.1zm.3.5c.8.6.7.8-.2 1.3 0-.5.1-.9.2-1.3zM5.4 6.9v-.2l.1.1s0 .1-.1.1c.1.1 0 .1 0 0zM4.6 21c0-.1-.1-.1-.1-.2l.1-.1c.1.1.1.1.1.2l-.1.1zM4.3 4.9H4.6c-.1.5-.1.5-.6.4 0-.2.1-.4.3-.4zm-.4-.8c-.1-.2-.1-.2-.2-.3.1 0 .2-.1.3-.1.1 0 .2.1.2.1l-.3.3zm.2 2.3v.2h-.6v-.3c.3-.4.5-.1.6.1zM2.9 7.5l.1.1-.1.1-.1-.1.1-.1zm0 6.3s0 .1.1.1c-.1 0-.1.1-.1 0 0 0 0-.1-.1-.1h.1zm.2 26.1s.1-.1.2-.1.2.1.3.1l-.1.1s-.1.1-.1.2l-.3-.3zm.5-4.2v.7c0 .2-.2.3-.4.5-.3-.8-.3-1 .1-1.1h.1c.1 0 .1-.1.2-.1 0-.1 0-.2.1-.3 0 0 .1 0 .1.1l-.2.2zm0-5.7c.6 0 .6 0 .6.8-.4-.1-.4-.5-.6-.8zm.8 9.3c.1.2.2.3.2.3 0 .1-.1.1-.2.1l-.1-.1c0-.1.1-.2.1-.3zm6.4-14.2c-.1-.1-.2-.2-.3-.4l.1-.2c.1.1.3.2.4.3 0 .1-.1.2-.2.3zm2.4.1c.1 0 .1-.1.2-.1s.2 0 .4.1c-.2.1-.3.2-.3.2-.1-.1-.2-.2-.3-.2zm2.6.5l.1-.1s0-.1.1-.1c.1-.1.1-.2.2-.2.1.1.2.1.1.2-.1.3-.2.5-.3.8-.1.2-.2.4-.2.6-.1.3-.3.6-.7.6-.2-.1-.3-.4-.6-.7.9-.5.8-.4 1.3-1.1zm2.6 10.1c-.3.2-.5.3-.8.5.1-.6.1-.6.8-.5zM20 43c0-.4 0-.7-.1-1.2.2.1.4.1.7.2.2 0 .3.1.5.1v.5h.2c.1 0 .1 0 .2-.1.2-.1.4-.3.6 0 0 .1.1.1.1.2-.2.1-.4.3-.5.4-.1 0-.1.1-.2.1 0 0-.1 0-.1.1.1.3.2.4.4.4.1 0 .2-.1.4-.1.1.2.3.5.4.7-.2.1-.3.2-.4.2-.2 0-.5-.1-1.1-.3-.2-.2-.1-.7-.3-1-.4-.1-.5-.2-.8-.2zm0-3.5c.7.5.7.8.5 1.5h-1.1v-.3c0-.1 0-.2.1-.4.2.1.4.1.7.2 0-.3-.1-.6-.2-1zm0-.7c-.1 0-.1 0 0 0v-.1.1zM18.8 5.9c-.8-.2-1-.4-.8-.9.1-.1.3-.3.4-.3.5 0 .6.3.4 1.2zm-2.5-2.1l-.2.2c-.2.2-.3.1-.8-.1.4-.4.5-.5 1-.1-.1-.1-.1 0 0 0zm-.9-.6c-.1 0-.1-.1-.2-.2l.1-.2c.1 0 .2.1.3.2-.1.2-.2.2-.2.2zM2.7 5c.1.1.1.2.2.3 0 0-.1.1-.2.1 0-.1-.1-.1-.1-.2v-.1l.1-.1zm1.6 36.2c.5.5.5.7-.4 1.1.1-.5.2-.8.4-1.1zm1.5-11.7c-.1 0-.1 0 0 0zm-.5-1.7c0 .1-.1.1-.1.1-.3.1-.5-.1-.5-.4h.1c.2-.1.4-.2.6.1 0 0-.1.1-.1.2zm-.3-.9c-.1-.1-.2-.2-.2-.3 0 0 .1-.1.2-.1s.2.1.2.1c0 .1-.1.1-.2.3zm2.3-.7c-.1 0-.2-.1-.2-.1.1 0 .1 0 .2-.1.1 0 .2-.1.3-.1.2-.1.4-.1.6-.2-.3.4-.5.6-.9.5z"/>
  </g>
  <g>
    <path class="st0" d="M111.7 42.9h-.1c-.1 0-.1 0-.2-.1.1.2.2.3.3.5.3-.2.3-.3 0-.4zM111.5 42.3s-.1 0-.1.1v.1l.1-.2zM111.4 41.6s0-.1.1-.1h-.2s0 .1-.1.1c.1-.1.2 0 .2 0zM114.8 43v.8c.2 0 .4 0 .5.1.1-.3.2-.5.3-.8h-.1c-.2.1-.5 0-.7-.1zM112.3 42.7c-.1 0-.1 0-.2-.1 0 0 0 .1-.1.1.1 0 .1.1.2.1s.1-.1.1-.1zM111.2 20.4c0-.1-.1-.1-.1-.2-.2-.4-.4-.6-.7-.8.2.3.4.5.6.8 0 .1.1.2.2.2zM132.7 18.6c.6 0 1-.4 1.1-1 .1-.4 0-.8 0-1.2-.1-1.3-.3-2.6-.4-4-.1 0-.2-.2-.6-.4.3-.2.5-.3.7-.4 0-.2-.1-.3-.1-.4-.2-.5-.6-1 .1-1.4.1 0 .1-.2.1-.3 0-.7 0-1.4-.2-2-.3-1-.4-2.2-1.5-2.7-.1 0-.1-.1-.1-.2-.3-.7-.8-1.1-1.4-1.5 0 .1.1.2.1.3.8.6 1 1.7 1.2 2.6.2.6.1 1.3.2 2 0 .1 0 .3-.1.3-.7.4-.2 1-.1 1.4 0 .1.1.2.1.4-.2.1-.4.3-.7.4.3.3.5.4.6.4.2 1.4.3 2.7.4 4 0 .4.1.8 0 1.2-.1.6-.5 1-1.1 1h-4.1v.3c.1.8.6 1.3 1.3 1.3 1.5-.1 3-.1 4.5-.1zM113.8 43.6c-.1 0-.1 0 0 0-.1 0-.1 0 0 0zM113.8 43.6c0 .2-.1.4-.1.7.3-.3.3-.5.1-.7zM114.7 41.5zM114.8 33c-.2-.1-.4-.1-.7-.1v.4c-.1.4-.1.9-.2 1.4l-.3.9c-.1.2-.1.4-.1.6.1 1 .2 1.9.2 2.8-.1.1-.3.1-.4.1.1 0 .1 0 .2.1 0 .2-.1.4-.1.6 0 .1-.1.2-.1.3h.5c.1-.1.2-.1.2-.2v.1c-.1 0-.2.1-.3.1h-.1c0 .4.5.1.7.3v.1c.3 0 .7.3 1.1 0-.1-.9-.2-1.9-.2-2.8 0-.2.1-.4.1-.6l.3-.9c.1-.5.1-.9.2-1.4.1-.8-.3-1.6-1-1.8zM110.7 40.9c.1-.2.2-.3.2-.4 0 0 .1 0 .1.1-.1-.3-.3-.6-.4-.9h-.1l-.3.3c0 .1-.1.1-.1.2.1.1.1.2.2.4.2 0 .3.2.4.3zM112.2 41.3c-.1 0-.1-.1-.1-.1s0 .1.1.1c-.1 0 0 0 0 0zM116 44.2s0-.1 0 0zM127.1 5.9zM124.9 44.2c-.1 0-.1 0-.2-.1 0 .1.1.1.1.2 0 0 .1 0 .1-.1zM125.5 3v-.2h-.3c.1.1.2.2.3.2zM118.8 27.4c.2.4.5.6.8.9-.2-.2-.3-.4-.5-.6l-.3-.3zM123.4 31.9c0-.3 0-.4-.1-.6l-.3-.3c-.2-.1-.4-.1-.6-.1.5.4.9.9 1.4 1.3.1.1.2.2.3.2h.1c-.4-.1-.6-.3-.8-.5zM121.6 44.3c-.2 0-.3 0-.5-.1.1.1.1.2.2.2s.2 0 .3-.1zM127.4 5.6c0 .1.1.2.1.4l.3-.3c-.1-.1-.2-.1-.2-.2-.1 0-.1 0-.2.1z"/>
    <path class="st0" d="M127 49.7c1.2 0 2.3-.4 3.4-1 .5-.2.9-.6 1.2-1 .9-.9 1.7-2 1.7-3.3 0-.9.5-1.8 0-2.8 0-.1.1-.2.1-.2.1-.4.1-.8 0-1.3-.1-.4-.2-.9.1-1.3.1-.2.1-.4 0-.6-.2-.5-.1-1 0-1.5.2-1.3-.1-2.5-.5-3.7-.3-.7-.9-1.1-1.3-1.7-.4-.4-.7-.8-1.2-1.1v.1c.3.3.6.7.8 1.1.5 1.2.7 2.4.5 3.7-.1.5-.2 1 0 1.5.1.2 0 .4 0 .6-.3.4-.1.9-.1 1.3.1.4.1.9 0 1.3 0 .1-.1.2-.1.2.5.9 0 1.8 0 2.8 0 1.4-.8 2.4-1.7 3.3-.4.4-.8.8-1.2 1-1.1.5-2.1 1-3.4 1-2.1 0-4.2.2-6.3.1-1.1-.1-2.2.3-3.3-.1-.2-.1-.5.1-.8.1-.1 0-.3.1-.4.1-1.1-.4-2.2-.2-3.2-.9-.2-.1-.4-.2-.5-.3.1.1.1.2.2.3.5.8 1.3 1.1 2 1.6 1 .6 2.2.5 3.2.9.1 0 .3 0 .4-.1.3 0 .5-.2.8-.1 1.1.4 2.2 0 3.3.1 2.1.1 4.2 0 6.3-.1z"/>
    <path class="st0" d="M118.1 44.2c.1-.1.1-.1 0 0 0-.1-.1-.1-.1-.1v.1c.1-.1.1-.1.1 0zM111 43.4c.1 0 .2.1.3.1-.2-.3-.3-.5-.4-.7-.1 0-.2.1-.3.2 0 .1.1.1.1.1.1 0 .2.1.3.3zM127.4 42.6s-.1 0-.2.1v.2c0-.1.1-.2.2-.3 0 .1 0 0 0 0zM116.9 25.7l.4.4c-.1-.2-.3-.4-.3-.6l-.2-.2c-.2-.1-.4-.2-.5-.3-.2-.1-.4-.2-.5-.3.3.2.7.6 1.1 1zM113.2 22.2c-.1-.2-.3-.3-.5-.5.1.3.3.4.5.5 0 .1.2.2.3.3l-.3-.3zM127.4 40zM114.4 42.9v-.2l-.1.1v.2c0-.1.1-.1.1-.1zM127.8 41.9c0-.1-.1-.1-.1-.1v.1h.1zM112.4 41.3c.1.2.2.4.3.5.1-.1.1-.3.1-.5h-.4zM112.8 41.3c0 .1 0 .1 0 0zM127.3 42.3h.3c-.1-.1-.2-.1-.3 0zM113.2 43.9c.2-.3.3-.4.4-.6h-.1c-.1.1-.2.3-.3.6-.1 0 0 0 0 0zM124.5 44.1c-.1 0-.2-.1-.3-.1v.1h.3z"/>
    <path class="st0" d="M114.4 42.8c0 .1 0 .1 0 0 0 .1 0 .1 0 0-.1.1-.1.2-.1.2.1 0 .1-.1.1-.2zM112.3 43.9c.1-.2.2-.3.4-.5h-.2c-.3.1-.4.3-.2.5-.1 0 0 0 0 0zM127 33c.1 0 .1 0 0 0 .1 0 .1 0 0 0 .1 0 .1-.1 0 0 0-.1 0 0 0 0zM114.2 43.5c-.1.1-.2 0-.5-.1 0 .1 0 .1.1.2.1 0 .3-.1.4-.1zM121.1 26.1s0 .1 0 0c0 .1 0 0 0 0zM125 7.9c-.3-.3-.6-.5-.8-.7 0 0-.1-.1-.2-.1-.6-.4-1.2-.9-2.1-.8-.4 0-.9 0-1.3-.1-.3-.1-.6-.2-.8-.2-.5.1-.8.2-1.2.2-.8.1-1.7.2-2.5.4-.2 0-.5.1-.5.1l-1.5 1.5c-.2.6-.3 1.5-.9 2.2-.3.3-.3.6-.1.9.7.8.4 1.8.5 2.5.2.4.4.7.6 1 .2.2.5.4.7.5.2.1.4.2.5.3-.1-.1-.1-.2-.2-.4-.1-.7.3-1.7-.5-2.5-.2-.3-.2-.6.1-.9.7-.7.8-1.6.9-2.2l1.5-1.5c.1 0 .3-.1.5-.1.8-.1 1.7-.2 2.5-.4.4-.1.8-.1 1.2-.2.2.1.5.2.8.2.4.1.9.1 1.3.1.5 0 .9.2 1.3.4.2 0 .2-.1.2-.2zm-11.6 2.4c0-.1 0-.1 0 0 0-.1 0-.1.1-.1h.1c-.1 0-.2.1-.2.1zM113.2 39c-.1 0-.2 0-.3-.1 0 .1.2.1.3.1zM113.8 42.8s.1 0 0 0c.1 0 .1 0 0 0-.1-.6-.2-.6-.9-.5 0 .1 0 .1.1.2.1 0 .2-.1.5-.1 0 .1.1.3.3.4zM110.2 37.3h.2c.1-.1 0-.2-.1-.3 0 .1 0 .2-.1.3zM112.8 41.1v.2c.1 0 .1-.1.1-.1l-.1-.1zM111.8 5c0-.1 0-.1 0 0-.1-.1-.1 0-.1 0h.1zM115.6 41.3z"/>
    <path class="st1" d="M127.4 39.8c0 .1 0 .1 0 0v.2c0 .1.1.3.2.4h.3l.3-.6c0-.1-.1-.1-.1-.2-.3.1-.6.1-.7.2zM124.5 43l-.1.1c.1 0 .1.1.2.1-.1-.1-.1-.1-.1-.2zM126.7 35.1c-.1-.1-.3-.2-.4-.3 0 .1-.1.2-.1.3.1.1.3.1.4.2 0-.1 0-.1.1-.2z"/>
    <path class="st1" d="M124.6 43.3c.1 0 .2-.1.2-.1.1-.1.2-.2.4-.3 0-.1-.1-.1-.1-.2l-.5.5c-.1 0 0 .1 0 .1zM128.7 7.4c.1 0 .1-.1.2-.2 0 0 0-.1.1-.3-.2-.1-.4-.2-.6-.2-.2 0-.4.2-.5.3-.1.1 0 .3.1.4.2.1.3.2.5.1 0 0 .1-.1.2-.1zM121.4 44h-.1c.1 0 .2.1.2.1s0-.1-.1-.1zM114.3 40.4c0 .1-.1.3-.1.4-.1.2-.1.4-.2.5.2.1.4.1.6.2-.2-.2-.3-.3-.4-.5l.5-.5c-.2 0-.3 0-.4-.1zM125.1 41.9c-.1 0-.1 0 0 0l-.1.1c.1 0 .1 0 .1-.1 0 .1 0 .1 0 0zM116.2 42v-.1h.1c-.1 0-.1.1-.1.1zm8-1.2c-.1 0-.1 0 0 0v-.1l.1.1h-.1zM127.5 5.4l-.1.1c.1 0 .1 0 .1-.1.1.1.1.1 0 0 .1.1.2.1.2.1s-.1-.1-.2-.1zM114.5 45.5c.3-.2.3-.4.2-.5l-.1-.1v.1c0 .1-.1.3-.1.5zM126.4 4.2c.2-.5.2-.9 0-1.4h-.8V3c-.1 0-.2-.1-.2-.2.3.5.5.9.9 1.2-.1.2 0 .2.1.2zM117 45.3c.9-.3.9-.5.3-1.3-.1 0-.2.1-.3.1-.3.1-.6.1-.9 0h-.1-.1V44c-.1-.1-.2-.1-.3-.2v.8c0 .5.2.8.6.9.1-.7.5-1.2.7-1-.1.2-.2.4-.3.7.3.2.4.2.4.1zM114 45.1s0-.1 0 0c.2-.4.3-.5.5-.8.1.2.1.3.1.4h.5c.1-.1.1-.3.2-.4-.2-.1-.3-.3-.3-.5s-.1-.5 0-.8l-.3-.3v-.1c0 .1 0 .1-.1.2 0 .1-.1.1-.1.2v.4h-.1v.2h-.4c.3.2.3.4-.1.7 0-.2.1-.4.1-.7 0-.1 0-.1-.1-.2 0-.1 0-.1-.1-.2 0 .1-.1.1-.1.2-.1.2-.2.3-.4.6v-.1c-.1-.1-.1-.3-.2-.4h-.1-.2c-.1.2-.3.3-.4.5 0 0-.1 0-.1-.1v.1c.1.1.2.2.2.4.2.2.3.5.5.7l.1.1h.1l.2-.2c.1-.1.1-.2.2-.3.1-.1.1-.2.2-.3 0 .3.1.4.2.7zm-.7-1.1c.1 0 .1.1.2.1l-.2.2s-.1 0-.1-.1c.1-.1.1-.2.1-.2zM118.2 44l-.1-.1c0 .1 0 .1.1.1zM112 44.6c-.2-.4-.4-.7-.6-1 .2-.1.3-.2.4-.3-.1-.2-.2-.3-.3-.5-.2-.1-.4-.1-.6 0 .1.2.3.4.4.7-.1-.1-.2-.1-.3-.1 0 .1.1.2.1.3.1.3.2.5.4.7.1.1.2.2.5.2l-.1.1c.1 0 .1 0 .2.1 0-.1 0-.1-.1-.2zM117.1 43.2v-.1h-.1s0 .1.1.1c-.1 0 0 0 0 0zM128.9 36.8c0 .1-.1.1-.1.2.1 0 .3.1.4.1l.1-.2c-.1 0-.2-.1-.4-.1zM123.2 45.6s-.1 0 0 0c0 0-.1 0-.1-.1-.4-.1-.8-.3-1.2-.4.3.6.6.8 1 .7 0 0 .1-.1.3-.2zM127.4 35.1h-.1s0 .1.1.1c0 0 .1 0 .1-.1h-.1zM111.4 42.3s.1 0 .1-.1.1-.2.1-.2c.1-.1.1-.2.2-.3.2.1.4.2.5.2 0-.1-.1-.3-.2-.5v-.1c0-.1-.1-.1-.1-.2-.1-.1-.2-.2-.2-.3-.2.1-.4.1-.5.1-.1-.1-.1-.3-.2-.4 0 0-.1 0-.1-.1-.1.1-.2.3-.2.4.1.1.1.2.2.3.1.5.2.8.4 1.2zm-.1-.9h.2s0 .1-.1.1c0 0-.1 0-.2-.1.1.1.1 0 .1 0zM127.1 33c-.2 0-.2.1-.3.2.1.1.1.1.2.3.1-.2.2-.2.2-.3 0-.1 0-.2-.1-.2zM112.8 41.1l.1.1c.2-.2.2-.3-.1-.7v.6zM127.6 32.3c-.2-.2-.4-.5-.6-.7-.2.1-.3.2-.5.4.5.1.6.5 1.1.3zM110.2 43.1c.1-.1.3-.1.4-.1l-.1-.1c-.1.1-.2.2-.3.2zM127 42.7c.1.2.2.5.3.7.1 0 .2-.1.3-.1-.1-.2-.1-.5-.2-.7-.1.1-.2.2-.3.2v-.2c0 .1-.1.1-.1.1zM115.7 43.1c-.1 0-.1 0 0 0-.1 0-.1 0 0 0zM114.6 44.8zM110.6 39.7h0zM110.3 40.5c-.1-.1-.1-.2-.2-.4-.1.1-.1.2-.2.3.2.1.3.1.4.1zM125.4 44.4zM120.7 25.7c.1.4.2.6.3 1 .1-.2.1-.3.1-.5s-.2-.4-.4-.5zM113.3 39.6c.1-.2.1-.4.1-.6 0 0-.1-.1-.2-.1h-.1c-.1 0-.3 0-.3-.1-.3-.1-.6-.1-.8.4.1.2.1.4.1.5v.1c.1.1.2.2.4.2h.5c.2-.1.3-.3.3-.4zM113.8 19.6c.1-.1.1-.2.1-.2 0-.1-.1-.1-.1-.2l-.2.2.2.2zM110.6 36.5c-.1.2-.1.3-.2.5.1.1.1.2.1.3h.8c-.1-.4-.2-.7-.7-.8zM111.3 38.4v-.2c-.1-.1-.1-.2-.2-.3v.8c.1 0 .2-.1.2-.3zM127.8 41.9h-.1c-.2 0-.3-.1-.4-.1-.1.1-.2.2-.2.3v.2h.2c.1-.1.2-.1.3 0h.2c.1-.2.1-.3 0-.4zM110.6 38.4v-.2h-.1l.1.2zM122.6 26.9c0 .1.1.2.2.2s.1-.1.3-.2c-.1-.1-.2-.2-.3-.2-.1 0-.2.1-.2.2zM121.1 25.1c.1-.2.2-.3.4-.5-.5.1-.5.1-.4.5zM127.3 30.8c-.1-.1-.2-.1-.3-.1-.1 0-.1.1-.1.2.1 0 .1.1.2.1 0-.1.1-.1.2-.2zM121.3 44.5l-.2-.2v-.1c.1.1.1.3.2.3zM124.8 44.4c0-.1-.1-.1-.1-.2-.1 0-.1 0-.2-.1h-.3v.1c.2.6.3 1.4 1.3 1.1 0 0 .1.2.2.3.2-.2.2-.4.1-.5 0-.1-.1-.2-.1-.2-.1-.1-.2-.3-.3-.4-.2-.1-.3-.1-.5-.2 0 0-.1 0-.1.1zM122.1 27.3s-.1 0-.1.1c.1.1.1.2.2.3.1-.1.1-.1.2-.1l-.3-.3zM129.3 40.2c-.4 0-.6.1-1 .1.3.2.4.4.6.4.1 0 .2-.2.4-.5zM128.4 39.4c.2.4.4.6 1 .5-.3-.3-.5-.6-1-.5zM128.3 41.2c-.3-.2-.4-.3-.6-.4-.2.4-.1.6.3.6 0 0 .1-.1.3-.2zM109.9 40.9c0 .5.2.6.6.4-.3-.2-.5-.3-.6-.4zM128.1 42.9c.2.1.4.1.7.2-.5-.6-.5-.6-.7-.2zM128 44.1c.2-.2.5-.4.7-.6-.6-.2-.7-.1-.7.6zM122.7 44.9c0 .1.2.3.3.4.3-.4.5-.7.8-1.1-.7 0-1.1.3-1.1.7zM129.4 37.7h-.1c0 .1.1.1.1.2l.1-.1c0-.1-.1-.1-.1-.1zM130.1 2.7c0 .1.1.2.1.2.1.1.2.1.3.2 0-.1-.1-.2-.1-.3-.2-.4-.5-.8-1-1.1.3.3.5.6.7 1zM129.5 34l-.1-.1s-.1 0-.1.1v.1c.1 0 .1 0 .2-.1zM128.1 34l-.2-.2-.1.1c0 .1.1.1.2.2l.1-.1zM124.5 45.9c0 .1 0 .1 0 0 0 .1 0 .1 0 0 0 .1 0 .1 0 0zM126.5 43.8c.3.2.6.5.6.9.2-.3.4-.5.5-.7-.4-.4-.7-.5-1.1-.2zM120.2 45.4s0-.1 0 0c0-.1 0-.1 0 0 0-.1 0-.1 0 0 0-.1 0-.1 0 0zM121.1 45.4s.1-.1.2-.1c-.1-.1-.1-.2-.2-.2s-.1 0-.2.1c.1 0 .1.1.2.2zM127.1 5.9c-.1-.1-.2-.1-.2-.1-.1 0-.1.1-.1.2l.1.1c0-.1.1-.2.2-.2zM125 7.9c0-.1 0-.2.1-.2-.3-.2-.6-.3-.8-.5.1.2.5.4.7.7zM111.3 13.9h.2v-.5h-.2c.1.2.1.3 0 .5zM125.8 43.5h-.2c-.2 0-.4-.2-.6.1 0 0 0 .1.1.1 0 .1.1.2.1.2.1.1.2.3.3.4l.9-.9c-.3.1-.4.1-.6.1zM128.7 12.9c0 .1 0 0 0 0v-.2h-.1c0 .2.1.2.1.2zM112.3 4.3c.1.3.1.5.1.7 0 .2.1.4.1.6h.2c0-.5.3-.9-.4-1.3zM111 9.3c0-.2-.2-.3-.4-.5-.2.3-.4.5-.5.7 0 .3.3.3.5.3.4 0 .5-.2.4-.5zM128.4 10.9c.5 0 .8-.1 1.3-.1-.7-.6-.7-.6-1.3.1zM112.6 6.3l.1-.1s-.1 0-.1-.1v.2zM127.7 7.8c.3.3.3.3.6 0h-.6zM129 10l.1-.1-.1-.1c-.1 0-.1.1-.1.1 0 .1.1.1.1.1zM111.8 5h-.1c-.1.1-.2.2-.3.4.1 0 .2.1.3.1.1-.2.2-.3.1-.5.1 0 .1 0 0 0zM111.8 8.7s0-.1 0 0h-.1v.1l.1-.1zM113.6 4.8c0-.1-.1-.1-.1-.2l-.2.2c0 .1.1.1.2.2 0-.1.1-.2.1-.2zM128.2 12.4c.1 0 .1-.1.2-.1-.1 0-.1-.1-.2-.1 0 .1-.1.1-.1.2-.1-.1 0 0 .1 0zM116.1 3.6s.1-.1.2-.1c-.1-.1-.1-.2-.2-.3-.1.1-.1.2-.1.2-.1.1 0 .2.1.2zM118.2 45.3c.2.1.4.2.5.4.1.1.2.1.3.2v-.1-.5c-.1-.2-.4-.3-.8 0zM111.6 6.4l-.1-.1-.3.3c0 .1.1.1.2.2 0-.2.1-.3.2-.4zM121.4 3.5c0-.1-.1-.2-.1-.4-.2.4-.4.7-.5 1 .2 0 .5-.3.6-.6zM119.1 45.3c.1 0 .1 0 0 0 .1 0 .1 0 0 0 .1-.1.1 0 0 0zM127.1 7.1c-.6.3-.7.7-.9 1.1.7.1.7.1.9-1.1zM119.3 45c-.1 0-.1 0 0 0-.1 0-.1.1-.1.2 0 0 0-.1.1-.2zM111.5 7.9c-.1.1-.2.1-.2.2l.1.2c.1 0 .2-.1.3-.2 0-.1-.1-.2-.2-.2zM125.3 3.5c-.2-.3-.4-.6-.7-1h-.2c.1.4-.6.6-.3 1.1l.7.7c.2-.3.3-.5.5-.8zM117.3 3.9c.2-.1.2-.4.3-.7-.1 0-.3-.1-.4-.1-.3.3-.6.6-.9 1 .4 0 .8 0 1-.2zM111 15.5s.1-.1.2-.1c-.1-.1-.2-.1-.2-.2 0 .1-.1.1-.1.2 0 0 0 .1.1.1zM117.2 3.1c0-.2-.1-.3-.1-.5-.3.3-.2.5.1.5zM118.4 3.7l.2-.2c-.1 0-.2-.1-.3-.1 0 0-.1.1-.1.2.1 0 .1.1.2.1zM117.2 3.1z"/>
    <path class="st2" d="M115.7 48.2c1.1.4 2.2 0 3.3.1 2.1.1 4.2 0 6.3-.1 1.2 0 2.3-.4 3.4-1 .5-.2.9-.6 1.2-1 .9-.9 1.7-2 1.7-3.3 0-.9.5-1.8 0-2.8 0-.1 0-.2.1-.2.1-.4.1-.8 0-1.3-.1-.4-.2-.9.1-1.3.1-.2.1-.4 0-.6-.2-.5-.1-1 0-1.5.2-1.3-.1-2.5-.5-3.7-.2-.4-.5-.8-.8-1.1l-.3-.3-.3-.3c-.3-.3-.5-.6-.8-.8-.2-.2-.4-.3-.6-.4-.4-.2-.7-.6-1-1-.1-.1-.2-.3-.3-.4l-.2-.2-.6-.6c-.3-.3-.7-.6-1-.9-.5-.3-.7-.8-1.1-1.2-.8-.8-1.6-1.5-2.4-2.3-.5-.5-1.1-1-1.6-1.5l-1.2-1.2-.1-.1c-.2-.2-.5-.4-.7-.7-.2-.1-.3-.3-.5-.4-.5-.5-1-1-1.6-1.4-.1-.1-.2-.2-.4-.2-.4-.2-.8-.5-1-.9-.2-.3-.4-.6-.5-.9-.2-.3-.4-.7-.6-1-.1-.7.3-1.7-.5-2.5-.2-.3-.2-.6.1-.9.7-.7.8-1.6.9-2.2l1.5-1.5c.1 0 .3-.1.5-.1.8-.1 1.7-.2 2.5-.4.4-.1.8-.1 1.2-.2.2.1.5.2.8.2.4.1.9.1 1.3.1.8 0 1.4.4 2.1.8.1 0 .1.1.2.1.3.2.5.3.8.5 0 .1-.1.2-.1.2v.3c0 .1.1.2.1.3.3.4.9.6 1 1.1-.6.3-.5.8-.4 1.4 0 .1.1.3.1.4-.1 1.1-.3 2.1-.4 3.2-.1.4-.1.9-.1 1.3.1.8.6 1.3 1.3 1.3H131c.6 0 1-.4 1.1-1 .1-.4 0-.8 0-1.2-.1-1.3-.3-2.6-.4-4-.1 0-.2-.2-.6-.4.3-.2.5-.3.7-.4 0-.2-.1-.3-.1-.4-.2-.5-.6-1 .1-1.4.1 0 .1-.2.1-.3 0-.7 0-1.4-.2-2-.3-.9-.4-2-1.2-2.6-.1-.1-.2-.1-.3-.2-.1 0-.1-.1-.1-.2v-.1c-.2-.4-.4-.7-.7-.9l-.1-.1c-.6-.5-1.3-.7-1.9-1-1.4-.6-2.8-.5-4.2-.5-.7 0-1.3.1-2 .1-2.1-.1-4.3-.1-6.4 0-.4 0-.8.3-1.2.2-.9-.2-1.6.2-2.3.5-.7.3-1.2.9-1.8 1.4-1.1 1.1-1.8 2.4-1.9 3.9-.1.8 0 1.5 0 2.3V14c0 .9 0 1.8.4 2.7l.6.9c.3.4.6.8.8 1.2l.3.3c.3.1.5.3.7.4.3.2.5.5.7.8 0 .1.1.1.1.2l.3.3c.4.4.8.7 1.3 1.1.2.1.3.3.5.5l.3.3c.4.4.9.8 1.3 1.2l.4.4.4.4c.2.1.4.2.5.3.2.1.4.2.5.3.1.1.2.1.2.2.1.2.2.5.3.6.4.6 1 .9 1.5 1.3l.3.3c.2.2.3.4.5.6.1.1.1.2.2.2.7.7 1.5 1.4 2.3 2.1l.2.2c.2 0 .5 0 .6.1.1.1.2.1.3.3.1.1.1.3.1.6l.1.1c.2.2.4.3.6.5l.3.3c.1.1.2.1.2.2.1.1.3.2.4.3 0 .1 0 .1.1.2.2.7.5 1.4.7 2.1.1.4.3.8.2 1.1-.3.5-.1 1-.2 1.5l-.3 1.5c.2.2.7.2.5.7-.2 0-.5 0-.7.1-.2.1-.4.2-.4.3 0 .6-.7.8-.9 1.3 0 .1-.2.2-.3.2-.1 0-.2-.1-.3 0-.2 0-.4.1-.6.2-.2.1-.5.1-.7 0-.2-.1-.5 0-.7.1-.9.4-2.2.3-2.9 0-.2.1-.4.2-.6.4-.1-.2-.2-.4-.3-.5-1 .5-1 .6-1.9-.2-.1.2-.2.4-.3.8-.2-.2-.3-.4-.5-.6l.5-.5c-.3-.1-.6-.1-.8-.2h-.1c-.2-.1-.4-.1-.6-.2.1-.1.1-.3.2-.5 0-.1.1-.3.1-.4v-.1c-.2-.2-.6.1-.7-.3H112.4c-.2 0-.3 0-.4-.2v-.1c0-.1-.1-.3-.1-.5.2-.5.5-.5.8-.4.1 0 .2.1.3.1h.1c.1 0 .3 0 .4-.1-.1-.9-.2-1.9-.2-2.8 0-.2.1-.4.1-.6l.3-.9c.1-.5.1-.9.2-1.4v-.4c0-.6-.3-1.1-.8-1.4l-.1-.1c-.4-.1-.8-.1-1.1-.1-1 .1-1.9.2-2.9 0-.7-.2-1.7.4-1.8 1.1-.1.6-.1 1.4.2 1.9.4.7.1 1.4.3 2.1.2 1-.2 2 .3 2.9.1.1 0 .3 0 .4-.1.6-.3 1.2-.4 1.8v.3c.1.4.1.9.2 1.3s.2.8.4 1.2c.1.1.1.3.2.4.2.4.7.7.9 1.1.4.6.9.9 1.4 1.3.2.1.4.2.5.3 1 .6 2.2.5 3.2.9.1 0 .3 0 .4-.1.4 0 .7-.1.9 0zm6.4-20.9l.2.2s-.1.1-.2.1c-.1-.1-.1-.2-.2-.3h.2zm-.7-2.7c-.1.2-.2.3-.4.5 0-.4 0-.4.4-.5zm-.3 1.5s0 .1 0 0c0 .2 0 .3-.1.5-.1-.4-.2-.6-.3-1 .2.2.4.4.4.5zm-7.2-6.7c0 .1-.1.1-.1.2l-.2-.2c0-.1.1-.1.2-.2 0 0 .1.1.1.2zm-2.4-11.1s-.1-.1-.1-.2.1-.2.2-.2l.2.2c-.2 0-.2.1-.3.2zm.1 5.1v.5h-.2v-.5h.2zm-.9-3.6c-.2 0-.5 0-.5-.3 0-.2.3-.4.5-.7.2.3.3.4.4.5 0 .3-.1.5-.4.5zm.2 5.4c.1 0 .1.1.2.2-.1.1-.1.1-.2.1s-.1-.1-.2-.1l.2-.2zm.3-8.6l.3-.3.1.1c-.1.1-.2.2-.2.3-.1 0-.2-.1-.2-.1zm.5-1.7h.1s.1 0 .1.1c-.1.1-.1.3-.2.4 0 0-.2-.1-.3-.1.1-.1.2-.2.3-.4zm1 .6h-.2c0-.2-.1-.4-.1-.6 0-.2-.1-.4-.1-.7.7.5.4.9.4 1.3zm0 .6l-.1.1-.1-.1V6c.1.1.2.1.2.1zm-.9 2.5s0 .1 0 0c0 .1 0 .1 0 0-.1.1-.1.1 0 0-.1.1 0 0 0 0zm1.5-3.8c0-.1.1-.1.2-.2.1.1.1.2.1.2 0 .1-.1.1-.1.2l-.2-.2zm15.8 5.1l-.1.1s-.1 0-.1-.1l.1-.1.1.1zm-.7 1c.6-.7.6-.7 1.3-.1-.5.1-.8.1-1.3.1zm.4 2c-.1 0-.1.1 0 0-.1 0-.1-.1-.1-.1h.1c-.1 0-.1.1 0 .1zm-1.7-5.8c-.2 1.2-.2 1.2-.9 1.1.2-.4.3-.8.9-1.1zm.6.7h.6c-.3.3-.3.3-.6 0zm.1-2.2l-.4.4c0-.2-.1-.3-.1-.4 0-.1.1-.1.1-.1.2-.1.3 0 .4.1 0-.1 0 0 0 0zm-.9.1s.1 0 .2.1l-.2.2-.1-.1c0-.1 0-.1.1-.2zm1.2 6.4c.1.1.1.1.2.1-.1 0-.1.1-.2.1l-.1-.1s.1 0 .1-.1zm.8-4.9l-.2.2c-.1.1-.2.1-.3.1-.1 0-.3 0-.5-.1-.1-.1-.1-.3-.1-.4.1-.1.3-.3.5-.3s.3.1.6.2v.3zm-2.6-4.3c.2.4.2.9 0 1.4-.1 0-.1-.1-.2-.1-.4-.3-.6-.7-.9-1.2h.3c.3-.1.6-.1.8-.1zm-5.5 1.2c.2-.3.3-.6.5-1 .1.2.2.3.1.4-.1.3-.4.6-.6.6zm-3.6-1c-.3-.1-.4-.2-.1-.5 0 .2 0 .3.1.5.1 0 .3.1.4.1-.1.2-.1.5-.3.7-.2.2-.6.2-1 .2.3-.3.6-.6.9-1zm-1 .4c-.1 0-.1.1-.2.1s-.1-.1-.2-.2c0 0 0-.1.1-.2.2.2.3.2.3.3zm2.2.2c-.1 0-.2-.1-.3-.1 0-.1.1-.2.1-.2.1 0 .2.1.3.1 0 .1 0 .2-.1.2zm6.4.6c-.3-.3-.5-.4-.7-.7-.3-.5.3-.6.3-1.1h.2c.2.3.4.6.7 1-.2.3-.3.5-.5.8zm-2 22.8c-.1 0-.2-.1-.2-.2s.1-.2.2-.2.2.1.3.2c-.1.1-.2.2-.3.2zm-11.5 11.2c0 .1.1.1 0 .2 0 .1-.1.2-.3.3V38c.2.1.2.2.3.3zm-.1-1h-1c.1-.1.1-.2.2-.3.1-.2.2-.3.2-.5.5.1.6.4.6.8zm.2 5.5c.1 0 .1 0 .2.1h.2c.2.1.2.2 0 .4-.1.1-.2.2-.4.3.2.3.3.6.6 1v.1s0 .1.1.1c-.1 0-.1 0-.2-.1-.2-.1-.3-.1-.4-.2-.2-.2-.3-.5-.4-.7 0-.1-.1-.2-.1-.3-.1-.2-.2-.3-.4-.3-.1 0-.2 0-.4.1.1-.1.2-.2.3-.2.1-.1.2-.1.3-.2.2-.2.4-.2.6-.1zm.9-.1s0 .1-.1.1c0 0-.1 0-.2-.1 0 0 0-.1.1-.1s.2 0 .2.1zm-2.4-1.8c.2.1.3.2.6.4-.5.2-.7.1-.6-.4zm.7-2.6c0 .1 0 .1 0 0h-.1.1zm13.9 4.7l.6-.3c0 .1.1.1.1.2-.1.1-.2.3-.4.3-.1 0-.2.1-.2.1-.1 0-.2.1-.3.1-.2.1-.3.2-.5.2 0-.1-.1-.1-.1-.2l.6-.3c.1 0 .1 0 .2-.1zm-.1 2.9c.1 0 .1 0 0 0 .1.1.1.1 0 0 .1.1.1.1 0 0 .1.1.1.1 0 0zm2.6-15.2c.1 0 .1.1.3.1l-.2.2c-.1 0-.1-.1-.2-.1 0-.1 0-.2.1-.2zm.6 12.6c-.1 0-.2.1-.3.1-.1-.2-.2-.5-.3-.7h.1c.1 0 .2-.1.2-.1v.1c.2.2.3.4.3.6zm-.5-1.2c0-.1.1-.2.2-.3.1 0 .1-.1.2-.1s.2 0 .2.1l.1.1v.3h-.7v-.1zm.6-1.2c.2.1.4.2.6.4-.2.1-.3.2-.4.2-.3-.1-.4-.3-.2-.6zm1.2-.2c-.1 0-.3-.2-.6-.4.4 0 .6-.1 1-.1-.2.3-.3.5-.4.5zm-.2 2.4c-.3-.1-.5-.1-.7-.2.3-.4.3-.4.7.2zm0 .4c-.3.2-.5.4-.7.6 0-.7.1-.8.7-.6zm.7-5.8s0 .1.1.1l-.1.1c0-.1-.1-.1-.1-.2h.1zm0 2.2c-.6.1-.8-.1-1-.5.5-.1.7.2 1 .5zm-1.4-.3c0 .1.1.1.1.2l-.3.6h-.3c0-.1-.1-.3-.2-.4v-.1-.1c.2-.1.5-.1.7-.2zm-1.4-4.3c-.1-.1-.3-.1-.4-.2 0-.1.1-.2.1-.3.1.1.3.2.4.3-.1.1-.1.1-.1.2zm2.7-1.2s0-.1 0 0V34s.1 0 .1.1h-.1zm0 2.8l-.1.2c-.2 0-.3-.1-.4-.1 0-.1.1-.2.1-.2.2 0 .3.1.4.1zm-1.9-1.8s0 .1.1.1c0 0-.1 0-.1.1 0 0 0-.1-.1-.1 0-.1 0-.1.1-.1zM127 33s0-.1 0 0c.1-.1.1 0 0 0 .1 0 .2.1.2.1 0 .1-.1.2-.2.3-.1-.1-.2-.2-.2-.3.1 0 .1-.1.2-.1zm.6 11c-.2.2-.3.4-.5.7-.1-.4-.3-.7-.6-.9.4-.3.7-.2 1.1.2zm-7.4 1.3s0 .1 0 0zm2.8.3h.1c-.1.1-.3.2-.4.2-.4.1-.7-.1-1-.7.5.2.9.4 1.3.5zm0-.3c-.1-.2-.3-.3-.3-.4 0-.4.4-.6 1.1-.7-.3.4-.5.7-.8 1.1zm-1.9.1c-.1-.1-.1-.2-.1-.2.1 0 .2-.1.2-.1.1 0 .1.1.2.2-.2.1-.3.1-.3.1zm-2-.1c.1 0 .1-.1 0 0V45h.1c0 .1 0 .2-.1.3.1 0 .1 0 0 0 .1 0 .1 0 0 0v.6c-.1-.1-.2-.1-.3-.2-.2-.1-.4-.2-.5-.4.3-.3.6-.2.8 0zm-2.1 0c-.1 0-.1 0-.2.1.1-.3.2-.5.3-.7-.3-.2-.6.3-.7 1-.4-.2-.6-.4-.6-.9V44c.1.1.2.1.3.2h.2c.3.1.6.1.9 0 .1 0 .2-.1.3-.1.5.7.4.9-.5 1.2zm10.9-11.5c.1 0 .2.1.2.2l-.2.2-.2-.2s.1-.2.2-.2zm-.3-1.5c-.5.2-.6-.2-1.1-.3.2-.2.3-.3.5-.4.3.3.4.5.6.7zm-1.8 11.2c.1 0 .3-.1.5 0l-.9.9c0 .2.2.3.3.4.1.1.1.2.1.2 0 .1 0 .3-.1.5-.1-.1-.1-.3-.2-.3-1 .2-1.1-.5-1.3-1.1V44v-.1c.1 0 .2.1.3.1.1 0 .1 0 .2.1.1 0 .1 0 .2.1.2.1.3.1.5.2-.1-.1-.2-.3-.3-.4 0-.1-.1-.2-.1-.2s0-.1-.1-.1c.2-.3.4-.1.6-.1.2 0 .3-.1.3-.1zm-.7-1.6c0 .1 0 .1 0 0v.1c-.1 0-.1 0 0-.1-.1 0-.1 0 0 0zm-3.7 2.1l.1.1v.1c-.1.1-.2.2-.3.2 0 0-.1-.1-.2-.3.1 0 .2-.1.2-.1.2.1.2 0 .2 0zm-3.3 0s.1 0 .1.1v.2s-.1 0-.1-.1c-.1-.1-.1-.2 0-.2-.1 0-.1 0 0 0zm-1-.9v.1h-.1s0-.1.1-.1c-.1 0 0 0 0 0zm-1.5 0c.1 0 .1 0 0 0 0 .3-.1.6-.2.8-.1.1-.1.3-.2.4 0 .1-.1.3-.2.4h-.5c.1 0 .1.1.1.1.1.2.1.3-.2.5 0-.2 0-.3.1-.5v-.1c0-.1-.1-.2-.1-.4-.1.2-.2.4-.4.7 0 0 0 .1-.1.1V45c-.1-.2-.1-.4-.2-.6-.1.1-.1.2-.2.3-.1.1-.1.2-.2.3l-.2.2h-.1l-.1-.1c-.2-.2-.3-.5-.5-.7-.1-.1-.2-.2-.2-.4v-.1c-.1-.2 0-.4.3-.4h.5c.3-.1.3-.2 0-.8 0 0 0-.1-.1-.1 0-.1 0-.1-.1-.2.8-.2.9-.1 1 .4v.1c.1.2.1.5.4.5h.1v-.2-.1-.3-.2s.1 0 .1-.1v.1l.3.3c.3.2.6.3.9.2zm-2.7-1.9l-.1.1c0 .3-.1.4-.1.5-.1.1-.1.1-.3.1-.1 0-.3-.1-.5-.2-.1.1-.1.2-.2.3 0 .1-.1.1-.1.2 0 0 0 .1-.1.1v-.1c-.2-.4-.4-.8-.5-1.1-.1-.1-.1-.2-.2-.3-.1-.2-.2-.3-.4-.4-.1 0-.2-.1-.4 0 .1-.1.2-.2.2-.3 0-.1.1-.1.1-.2l.3-.3s.1 0 .1-.1v.1c.1.3.3.6.4.9.1.1.1.3.2.4 0 0 .2-.1.5-.1.1.1.2.2.2.3l.1.1H112.7V41v-.6c.4.6.4.6.2.8zM113.7 39.9c-.1 0-.1 0 0 0-.1 0-.1 0 0 0z"/>
    <path class="st2" d="M113.9 39.7c-.1.1-.2.1-.2.2.1 0 .2-.1.2-.2.1.1.1.1 0 0zM113.2 44.1l.1.1c.1 0 .1-.1.2-.2 0 0-.1 0-.2-.1 0 .1 0 .2-.1.2z"/>
  </g>
  <g>
    <path class="st0" d="M91.5 30.2c0 .1.2.2.2.2 0-.1-.1-.1-.2-.2.1 0 0 0 0 0zM92.1 28.6s0 .1 0 0c0 .1 0 0 0 0 .1 0 0 0 0 0zM92.1 29.9v.3c.1-.1.1-.2 0-.3zM94.5 2.7s.1 0 .1.1c0 0 .1-.1 0-.1 0-.1 0-.1-.1-.2 0 .1-.1.2 0 .2zM91.8 27.2h.2c0-.1-.1-.1-.1-.2 0 .1-.1.1-.1.2zM95.1 3.6s.1 0 .1.1c0 0 .1-.1 0-.1 0-.1 0-.1-.1-.2v.2zM92 21.3s-.1.1-.1.2v.1c.1 0 .1-.1.2-.1 0-.1 0-.1-.1-.2z"/>
    <path class="st0" d="M100.6 1.2v2.1c0 .8-.5 1.2-1.3 1.1-.7-.1-1.5-.1-2.2-.3-.4-.1-.7-.2-1.1-.3 0 .1-.1.2-.3.2l-.3.3s0 .1.1.1h-.2c-.1.1-.2.1-.3.2l-.1.1v-.1h-.1c-.3-.1-.4 0-.3.3 0 .1.1.1 0 .2-.4.7-.1 1.5-.3 2.2-.1.2-.1.5.1.8.1.1.1.2.1.4-.1 1 .1 2 0 3 0 .2-.1.3-.1.5 0 .1-.1.1-.1.2.3.3.1.7.2 1.1.1.7.1 1.4 0 2 0 .1-.1.2-.2.3.1.6.2 1.1.1 1.7v4.3c0 .2 0 .3-.1.5-.2.3-.2.6 0 .9.2.3.2.5.1.8 0 .1-.1.1-.1.2.4.7 0 1.3.1 2 0 .1-.1.3-.1.4 0 .1-.1.3 0 .4.2.4.1.7.1 1.1-.1.9-.2 1.7-.2 2.6 0 .7.2 1.4.2 2.2 0 .2.1.4.2.6.5 1.2-.5 1.7-1.4 1.6-.2 0-.5-.1-.7-.1h-.8c-.2 0-.5.1-.7.1h-.1c0 .6.5 1.1 1.3 1.1.2 0 .5-.1.7-.1h.8c.2 0 .5.1.7.1 1 .1 1.9-.4 1.4-1.6-.1-.2-.2-.4-.2-.6 0-.7-.1-1.4-.2-2.2-.1-.9.1-1.7.2-2.6 0-.4.1-.7-.1-1.1-.1-.1 0-.3 0-.4 0-.1.1-.3.1-.4-.1-.7.3-1.3-.1-2 0 0 0-.1.1-.2.1-.3.1-.5-.1-.8-.2-.3-.2-.6 0-.9.1-.1.1-.3.1-.5v-3.6c0-.2-.1-.5 0-.7.1-.6 0-1.1-.1-1.7.1-.1.2-.2.2-.3 0-.7.1-1.4 0-2-.1-.4.1-.8-.2-1.1 0 0 .1-.1.1-.2s.1-.3.1-.4c.1-1-.1-2 0-3 0-.1 0-.3-.1-.4-.3-.2-.2-.5-.1-.8.2-.7-.1-1.5.3-2.2v-.2c-.1-.3 0-.4.3-.3h.2c.3-.2.8-.3.9-.7.5.2.9.3 1.4.4.7.1 1.4.2 2.2.3.8.1 1.3-.3 1.3-1.1V2.6c-.2-1-.6-1.4-1.4-1.4zm-4.2 3.5s-.1 0-.1-.1c0 0 0-.1.1-.3v.4zM91.5 20.9c0-.1.1-.1.1-.2h-.2c0 .1.1.1.1.2zM86.5 4.1c-.3 0-.7.1-1 .3-.3.1-.6.2-.9.2 0 .5.3.9.8 1 .4.2.9.1 1.3-.1.3-.1.7-.3 1-.3.7.1 1.3.1 1.8-.4l.1.1.1-.1c.1-.1.1-.2.1-.3-.5-.2-1-.3-1.4-.8-.7.5-1.3.5-1.9.4z"/>
    <path class="st1" d="M91.9 8.9c0-.1 0-.1-.1-.3-.1.1-.2.2-.2.3l.1.1c.2 0 .2-.1.2-.1zM92.2 10.6c-.1 0-.1 0 0 0h-.1c0 .1 0 .1.1 0-.1.1-.1.1 0 0zM92.1 13s-.1.1-.2.1c.1.1.2.2.4.3.2-.3.1-.4-.2-.4zM91.5 10.3l.1.1.1-.1s0-.1-.1-.2c0 .1-.1.2-.1.2zM91.5 19.6v-.1s-.1 0 0 .1zM92.2 15.6c.1 0 .1 0 0 0 .1 0 .1 0 0 0zM92.5 9.2l-.1.1c0 .1.1.1.1.2l.1-.1c0-.1-.1-.2-.1-.2zM91.8 14.4c.1 0 .1 0 .2-.1l-.3-.9c-.6.5.1.6.1 1zM92 8.4c.1 0 .1.1.2.1 0 0 .1-.1.2-.1-.1 0-.2-.1-.2-.1-.1-.1-.1 0-.2.1zM92.5 12.2l-.1-.1s0 .1-.1.1c0 0 .1 0 .1.1.1 0 .2-.1.1-.1zM95.4 2.2c.1 0 .1-.1.2-.1 0 0 0-.1-.1-.1s-.1.1-.1.1c-.1 0-.1.1 0 .1zM91.6 20.7c0 .1-.1.1-.1.2.1.1.2.2.4.2-.1-.2-.1-.4-.3-.4zM91.5 6.5h.8v-.2c0-.1-.1-.1-.1-.1-.3-.1-.5 0-.7.3zM92 21.3c.1.1.1.2.2.2-.1 0-.1.1-.2.1v-.1c0 .1 0 .2.1.4.2-.3.3-.5.5-.7-.3-.1-.5 0-.6.1zM90.7 5.5c.1 0 .1 0 0 0 .1 0 .1 0 0 0h.1c.1 0 0-.1-.1 0 .1-.1.1-.1 0 0zM92.1 5.9s0-.1 0 0c-.1-.1-.1 0-.2 0h.2zM92.6 22.1h-.1c0 .1.1.2.1.3.1 0 .1-.1.2-.1-.1 0-.1-.1-.2-.2zM92 23.7c.1 0 .3-.1.4-.2v-.1l-.6-.3c-.1.3 0 .5.2.6zM92.8 25.1s-.1 0-.1-.1c0 0-.1.1 0 .1l.1.1c-.1 0-.1 0 0-.1zM92.6 18.4s.1 0 .1-.1c0 0 0-.1-.1-.2-.1.1-.1.1-.1.2l.1.1zM92.6 28c-.2-.4-.4-.5-.8-.5.1.2.1.3.2.5h.6zM93 3.9s0-.1-.1-.1h-.1v.1h.2zM91.3 3.4s-.1 0 0 0c-.1 0-.1 0 0 0-.1 0-.1 0 0 0-.1 0-.1 0 0 0-.1 0-.1 0 0 0-.1 0 0 0 0 0zM91.2 4.3h.1v-.1h-.1v.1zM92.6 1.9c0-.1 0-.1-.1-.2l-.1.1V2c.1 0 .2-.1.2-.1zM92.6 2.5c-.1.2-.3.4-.2.8.3-.2.4-.5.5-.8h-.3zM90.8 4.3l-.1.1.1.1.1-.1c0-.1-.1-.1-.1-.1zM90.3 2.8s0 .1.1.1c0 0 .1 0 .2-.1-.1-.1-.1-.1-.3 0 .1-.1 0-.1 0 0zM89.7 2.5c.2 0 .4.1.4-.3-.2 0-.4 0-.6-.1 0 0 0 .1-.1.1.1.1.2.3.3.3zM87.9 2.4c.2 0 .3 0 .5-.1-.2-.2-.4-.1-.5.1zM92.7 4.8s-.1.1 0 0c-.1.1 0 .1 0 0 0 .1 0 .1 0 0 0 .1 0 0 0 0zM92.6 27.3h.2c0-.4 0-.4-.5-.6-.1.1-.2.2-.3.2 0 .1.1.1.1.2h-.2c0 .1 0 .2.1.4.1-.1.1-.2.2-.3.1-.1.2-.2.4.1zM91.5 28.1l.1.1s0-.1.1-.1c0-.1-.1-.1-.2 0 .1-.1 0-.1 0 0zM94.5 2.5c-.1.1 0 .3 0 .4.3.1.4-.1.5-.3-.1-.4-.4-.4-.5-.1zm.1.3s-.1 0-.1-.1c0 0 0-.1.1-.3v.4c0-.1 0 0 0 0zM91.9 27.6s0-.1 0 0c0-.1 0-.1 0 0 0-.1 0 0 0 0zM92.2 28.8s.1 0 .3-.1l-.2-.2s-.1 0-.1.1v.1s0 .1-.1.1c0-.1 0 0 .1 0zM92.3 31.3c.1 0 .3-.1.4-.2.1-.2 0-.3-.2-.5-.3-.1-.3-.4-.2-.6 0-.2.2-.3.4-.5-.1-.2-.3-.2-.5-.1s-.2.2-.2.4v.1c.1.1.1.2 0 .3 0 .3-.1.6-.1.9.2 0 .4.2.4.2zM91.5 31.5c.1-.3.2-.6.3-1 0 0-.1-.1-.1-.2-.1 0-.2-.1-.2-.2 0 .6-.3 1 0 1.4zM93.6 3.5l.3-.3h.4c-.2-.1-.2-.2-.3-.3-.2.2-.5.2-.4.6z"/>
    <path class="st2" d="M90.1 4.7c0 .1.1.2.1.4v.2c0 .1 0 .2-.1.3-.3.3-.3.8-.3 1.2 0 .5-.1.9-.1 1.4 0 1.5-.2 2.9.1 4.4v.2c0 .5-.2 1-.1 1.4.1.7 0 1.4 0 2 0 .5-.1 1 .2 1.4-.2.5-.2 1-.2 1.5v.1c.2.3.1.7.1 1-.1.5.1 1.1-.1 1.6-.1.2 0 .6 0 .8.1.4-.2.8.3 1.1-.4.3-.4.3-.1.8-.3.3-.2.7-.2 1v1.8c0 .4.1.8.1 1.1-.1.1-.2.3-.2.4.2.8.1 1.5 0 2.3v.1c.1.6.1 1.1-.1 1.6-.1.2-.1.5-.1.7.1.6.5 1 1.2 1h.1c.2 0 .5-.1.7-.1h.8c.2 0 .5.1.7.1 1 .1 1.9-.4 1.4-1.6-.1-.2-.2-.4-.2-.6 0-.7-.1-1.4-.2-2.2-.1-.9.1-1.7.2-2.6 0-.4.1-.7-.1-1.1-.1-.1 0-.3 0-.4 0-.1.1-.3.1-.4-.1-.7.3-1.3-.1-2 0 0 0-.1.1-.2.1-.3.1-.5-.1-.8-.2-.3-.2-.6 0-.9.1-.1.1-.3.1-.5v-3.6c0-.2-.1-.5 0-.7.1-.6 0-1.1-.1-1.7.1-.1.2-.2.2-.3 0-.7.1-1.4 0-2-.1-.4.1-.8-.2-1.1 0 0 .1-.1.1-.2 0-.2.1-.3.1-.5.1-1-.1-2 0-3 0-.1 0-.3-.1-.4-.3-.2-.2-.5-.1-.8.2-.7-.1-1.5.3-2.2v-.2c-.1-.3 0-.4.3-.3h.2c.1-.1.2-.1.3-.2 0 0 .1 0 .1-.1.1-.1.3-.2.3-.3 0-.1.1-.1.1-.2.1 0 .2.1.2.1.4.1.7.3 1.1.3.7.1 1.4.2 2.2.3.8.1 1.3-.3 1.3-1.1V.9.8c0-.5-.2-.8-.6-1-.2-.1-.4-.1-.6-.1-1 0-2 .3-3 .2-.1 0-.2.1-.4.1H95c-.2 0-.4-.1-.6-.1-.9 0-1.8 0-2.6.1-.3 0-.6-.1-.9-.1h-1.8c-.3 0-.6 0-.9-.1-.7-.1-1.4.1-2.1 0-.1 0-.1.1-.2.1h-.4c-.2.1-.6.1-1.1.1-.7.1-1 .4-1 1.1v2.4c0 .5.3.8.7.9.1 0 .3.1.4.1.3 0 .6-.1.9-.2.3-.1.7-.3 1-.3.7.1 1.3.1 1.8-.4.4.5.9.6 1.4.8.2.1.4.2.5.3zm-.4-2.2c-.1 0-.2-.1-.2-.2 0 0 0-.1.1-.1.2 0 .4 0 .6.1-.1.2-.4.2-.5.2zm-1.3-.1c-.2 0-.3 0-.5.1.1-.3.3-.4.5-.1zm7.1-.4s0 .1.1.1c-.1 0-.1.1-.2.1l-.1-.1c.1 0 .1-.1.2-.1zm-3.6 25.5s0 .1 0 0c.4-.1.6.1.8.5h-.6c-.1-.1-.2-.3-.2-.5 0 .1 0 .1 0 0 0 .1 0 0 0 0-.1-.2-.1-.3-.1-.4 0-.1.1-.1.2-.2s.2-.1.3-.2c.6.2.6.2.5.6h-.2c-.2-.3-.3-.3-.5 0-.1 0-.2.1-.2.2zm.8-2.3s-.1 0-.1-.1V25s.1 0 .1.1v.1zm0-20.3s-.1 0 0 0c-.1 0 0-.1 0 0 0-.1 0 0 0 0zm0 13.3c0 .1.1.1.1.2l-.1.1-.1-.1c0-.1 0-.1.1-.2zm-.1 3.9c.1.1.1.2.2.3-.1 0-.1.1-.2.1 0-.1-.1-.2-.1-.3 0-.1.1-.1.1-.1zm-.5-9.1c.3 0 .4.1.2.5-.2-.1-.3-.2-.4-.3.1-.1.1-.2.2-.2zm-.1-2.4c.1 0 .1 0 0 0h.1c0 .1 0 .1-.1 0 .1.1.1.1 0 0zm.3 5c-.1 0-.1 0 0 0-.1 0-.1 0 0 0zm-.5 5.5c-.2 0-.3 0-.4-.2 0-.1 0-.1-.1-.2h.2c.3 0 .3.2.3.4zm-.4-1.6s.1 0 0 0c.1 0 .1.1 0 0 .1.1.1.1 0 0 .1.1.1.1 0 0zm.2-6.1c.1.4.2.6.3.9-.1 0-.1 0-.2.1.1-.4-.6-.5-.1-1zm0-3l-.1-.1.1-.1c0 .1.1.1.1.2h-.1zm.3-1.5c0 .1-.1.1-.1.2 0 0-.2-.1-.1-.1 0-.1.1-.2.2-.3 0 .1.1.1 0 .2zm.1 14.8c-.2-.1-.3-.3-.2-.6l.6.3v.1c-.2.1-.3.2-.4.2zm0-1.9v-.3c0-.1 0-.1.1-.2s.3-.1.5-.2c-.3.3-.4.5-.6.7zm.4-9.6c0-.1 0-.1.1-.1 0 0 .1 0 .1.1v.1c-.1 0-.2-.1-.2-.1zm0-2.8s-.1-.1-.1-.2c.1 0 .1-.1.1-.1 0 .1.1.1.1.1 0 .1 0 .2-.1.2zm-.2-.9c-.1 0-.1-.1-.2-.1l.1-.1c.1 0 .1 0 .2.1l-.1.1zm-.5 19.6l-.1.1-.1-.1s0-.1.1-.1c0 0 .1 0 .1.1zm.4.5c.1-.1.1-.1.2-.1s.1.1.2.2c-.1 0-.2.1-.3.1-.1 0-.1-.1-.1-.2 0 .1 0 0 0 0zm.7-24.7v-.1s.1-.1.1 0l.1.1h-.2zm-.4-.6c-.2-.3.1-.6.2-.8h.3c0 .3-.1.6-.5.8zm0-1.3c0-.1-.1-.2 0-.2l.1-.1c0 .1.1.1.1.2 0 0-.1.1-.2.1zm-.3 3.8s0 .1 0 0c.1.1 0 .1 0 .1-.1 0-.1 0 0-.1-.1 0-.1 0 0 0zm.1.4c.1 0 .1.1.1.1v.2h-.8c.2-.3.4-.4.7-.3zm-.9-1.9h-.1v-.1h.1v.1zm-.1-.9s.1 0 0 0c.1 0 0 0 0 0zm-.4.9c.1 0 .1 0 .1.1l-.1.1s-.1 0-.1-.1l.1-.1zm.7 25.9h.1c0 .1.1.1.1.2.1.1.1.1.1.2-.1.4-.2.7-.3 1-.3-.5 0-.9 0-1.4zm.6.9c0-.3.1-.6.1-.9v-.3-.1c-.1-.2 0-.3.2-.4.2-.1.4-.1.5.1-.2.2-.3.3-.4.5-.1.2-.1.5.2.6.2.1.3.3.2.5-.1.1-.3.2-.4.2-.2 0-.4-.2-.4-.2zm1.8-27.9c-.1 0-.1.1-.3.3-.1-.4.2-.4.4-.6.1.1.2.2.3.4-.2-.1-.3-.1-.4-.1zm.6-.7c.2-.2.4-.3.6.1-.2.2-.3.5-.5.3-.2-.1-.2-.4-.1-.4zm.6.8c.1.1.1.2.1.2v.1s-.1 0-.1-.1v-.2zm-4.7-.4l-.1-.1.1-.1s.1 0 .2.1c-.1 0-.2.1-.2.1zm.3 2.6c.1-.1.1-.1 0 0 .1 0 .1 0 .2.1h-.1c0-.1 0-.1-.1-.1.1 0 .1 0 0 0z"/>
  </g>
  <g>
    <path class="st0" d="M31.6 42.4l.6 4.9.9-5.8c0-.3.1-.5.2-.6.1-.1.2-.2.3-.2.2 0 .3.1.4.2 0 .1.1.2.1.5l.9 5.9.6-5v-.5c0-.3-.1-.4-.3-.4h-.1H34.9c-.2 0-.3-.1-.3-.4 0-.3.1-.4.4-.4.1 0 .3 0 .5.1.2 0 .4.1.5.1.1 0 .3 0 .5-.1.2 0 .4-.1.5-.1.2 0 .4.1.4.4 0 .3-.1.4-.3.4h-.2-.1c-.1 0-.2.2-.3.6 0 0 0 .2-.1.5l-.1.7-.8 5.1c-.1.4-.2.5-.4.5-.3 0-.5-.2-.5-.6v-.4l-.8-5.4-.9 5.8c0 .2-.1.4-.1.4-.1.1-.2.2-.3.2-.2 0-.3 0-.3-.1-.1-.1-.1-.2-.1-.4l-.9-5.4c-.1-.7-.2-1.1-.2-1.2-.1-.2-.1-.2-.2-.2h-.2c-.2 0-.3-.1-.3-.4 0-.1 0-.2.1-.3.1-.1.2-.1.3-.1.1 0 .2 0 .4.1.2 0 .3.1.4.1.1 0 .3 0 .5-.1.2 0 .4-.1.5-.1.2 0 .4.1.4.4 0 .3-.1.4-.3.4h-.4c-.2 0-.3.1-.3.4v.1l-.3.4z"/>
    <path class="st0" d="M38.7 41.2v2.4c.4-.5.8-.7 1.2-.7.6 0 1 .2 1.2.7.2.3.3.8.3 1.5V48c0 .1.1.2.2.2h.2c.2 0 .3.1.3.4 0 .3-.1.4-.3.4h-.3c-.2 0-.4-.1-.5-.1h-.3c-.2 0-.3.1-.3.1-.2 0-.3-.1-.3-.4 0-.3.1-.4.3-.4h.2c.1 0 .2-.1.2-.2v-2.8c0-1.1-.3-1.6-.9-1.6-.4 0-.7.2-.9.7-.1.4-.2.8-.2 1.3v2.3c0 .1.1.2.2.2h.1c.2 0 .3.1.3.4 0 .3-.1.4-.3.4-.1 0-.2 0-.4-.1H37.5c-.2 0-.3-.1-.3-.4 0-.3.1-.4.3-.4h.2c.1 0 .2-.1.2-.2s0-.4.1-1v-3.4-.3V42c0-.3-.1-.4-.3-.4h-.1-.1c-.2 0-.3-.1-.3-.4 0-.1 0-.2.1-.3.1-.1.1-.1.2-.1H38.4c.2.1.3.2.3.4zM44.4 49.1c-.6 0-1-.3-1.3-.8-.3-.6-.5-1.3-.5-2.3 0-.9.2-1.7.5-2.3.3-.6.8-.8 1.3-.8.6 0 1 .3 1.3.8.3.6.5 1.3.5 2.3 0 .9-.2 1.7-.5 2.3-.2.5-.7.8-1.3.8zm0-5.4c-.3 0-.6.2-.8.6-.2.4-.3 1-.3 1.7s.1 1.2.3 1.7c.2.4.5.6.8.6.3 0 .6-.2.8-.6.2-.4.3-1 .3-1.7s-.1-1.2-.3-1.7c-.2-.4-.4-.6-.8-.6zM48.3 43.3V48c0 .1.1.2.2.2h.2c.1 0 .1 0 .2.1s.1.2.1.3c0 .3-.1.4-.3.4-.1 0-.2 0-.4-.1h-.8c-.2 0-.3.1-.3.1-.2 0-.3-.1-.3-.4 0-.3.1-.4.3-.4h.2c.1 0 .2-.1.2-.2s0-.4.1-1v-3.4-.3-1.1c0-.3-.1-.4-.3-.4h-.1-.1c-.2 0-.3-.1-.3-.4 0-.1 0-.2.1-.3.1-.1.1-.1.2-.1 0 0 .1 0 .2.1h.8c.1 0 .2.1.2.3v1.9zM53 45.5c0 .3 0 .5-.1.5 0 .1-.1.1-.3.1h-2.1c-.2 0-.3 0-.3.1 0 0-.1.1-.1.3 0 .5.1 1 .3 1.3.2.3.4.5.8.5.2 0 .4-.1.5-.2.2-.2.3-.3.3-.6l.1-.4c0-.2.2-.3.4-.3s.3.1.3.4c0 .5-.2 1-.5 1.4-.3.4-.7.6-1.2.6s-1-.3-1.3-.8c-.3-.6-.5-1.3-.5-2.2 0-.9.2-1.7.5-2.3.3-.6.8-.9 1.3-.9s.9.2 1.2.7c.5.4.7 1 .7 1.8zm-2.7-.4c0 .1.1.2.3.2h1.6s.1-.1.1-.2c0-.4-.1-.7-.3-1-.2-.3-.4-.4-.7-.4-.4 0-.7.3-.9.8-.1.2-.1.4-.1.5v.1zM58 42.6V44.4s.1.1.2.1h.2c.4 0 .5-.2.5-.5V43.4c0-.3.1-.5.3-.5.2 0 .3.1.3.4v2c0 .1 0 .4.1.7v.4c0 .3-.1.5-.3.5-.2 0-.3-.2-.3-.6V46v-.3c0-.3-.1-.5-.4-.5h-.4c-.1 0-.2 0-.2.1v2.4c0 .4.1.5.3.5h.4c.2 0 .3.1.3.4 0 .3-.1.5-.4.5-.1 0-.3 0-.5-.1-.2 0-.4-.1-.5-.1-.1 0-.3 0-.5.1-.2 0-.4.1-.5.1s-.2 0-.3-.1c-.1-.1-.1-.2-.1-.3 0-.3.1-.4.3-.4h.4c.1 0 .2-.1.2-.4 0-.2.1-.8.1-1.7v-2.3c0-.9 0-1.5-.1-1.8 0-.2-.1-.4-.2-.4h-.4c-.2 0-.3-.1-.3-.4 0-.1 0-.3.1-.3s.2-.1.3-.1c.1 0 .3 0 .6.1h3c.2 0 .3 0 .4.1.1.1.1.2.1.4v2.4c0 .3-.1.5-.3.5-.3 0-.4-.2-.4-.5v-.6-.2c0-.5 0-.9-.1-1s-.3-.2-.6-.2h-.8c-.5 0-.7.2-.7.5v.2zM63.3 49.1c-.6 0-1-.3-1.3-.8-.3-.6-.5-1.3-.5-2.3 0-.9.2-1.7.5-2.3.3-.6.8-.8 1.3-.8s1 .3 1.3.8.5 1.3.5 2.3c0 .9-.2 1.7-.5 2.3-.3.5-.8.8-1.3.8zm0-5.4c-.3 0-.6.2-.8.6-.2.4-.3 1-.3 1.7s.1 1.2.3 1.7c.2.4.5.6.8.6.3 0 .6-.2.8-.6.2-.4.3-1 .3-1.7s-.1-1.2-.3-1.7c-.2-.4-.5-.6-.8-.6zM67.7 49.1c-.6 0-1-.3-1.3-.8-.3-.6-.5-1.3-.5-2.3 0-.9.2-1.7.5-2.3.3-.6.8-.8 1.3-.8.6 0 1 .3 1.3.8s.5 1.3.5 2.3c0 .9-.2 1.7-.5 2.3-.3.5-.7.8-1.3.8zm0-5.4c-.3 0-.6.2-.8.6-.2.4-.3 1-.3 1.7s.1 1.2.3 1.7c.2.4.5.6.8.6.3 0 .6-.2.8-.6.2-.4.3-1 .3-1.7s-.1-1.2-.3-1.7c-.2-.4-.4-.6-.8-.6zM72.2 42.9c.4 0 .7.2 1 .5v-.7-.4-.2c0-.3-.1-.4-.2-.4h-.1-.1c-.2 0-.3-.1-.3-.4 0-.1 0-.2.1-.3.1-.1.1-.1.2-.1H73.7c.1 0 .2.1.2.3v6.5c0 .3.1.5.3.5h.2c.2 0 .3.1.3.4 0 .3-.1.4-.3.4H73.5c-.1 0-.2-.1-.2-.3v-.3c-.3.4-.7.7-1.1.7-.5 0-.9-.3-1.2-.8-.3-.6-.5-1.3-.5-2.2 0-.9.2-1.7.5-2.3.2-.6.6-.9 1.2-.9zm-.1.8c-.3 0-.6.2-.7.6-.2.4-.3.9-.3 1.6v.1c0 .7.1 1.3.3 1.6.2.4.4.6.7.6s.6-.2.7-.6c.2-.4.3-.9.3-1.6 0-.7-.1-1.3-.2-1.6-.1-.4-.4-.7-.8-.7zM79.8 41.6l1.2 6.1 1.2-6.2c.1-.4.2-.5.3-.5 0 0 .1 0 .4.1h.2c.1 0 .3 0 .5-.1.2 0 .3-.1.5-.1.1 0 .2 0 .3.1s.1.2.1.3c0 .1 0 .2-.1.3-.1.1-.1.1-.2.1H84c-.1 0-.2-.1-.2-.1-.2 0-.3.3-.3.9v4.7c0 .6.1.9.3.9h.4c.1 0 .2 0 .2.1.1.1.1.2.1.3 0 .1 0 .3-.1.3-.2.2-.3.2-.4.2-.1 0-.3 0-.5-.1-.2 0-.4-.1-.5-.1-.1 0-.2 0-.4.1-.2 0-.3.1-.4.1-.1 0-.2 0-.2-.1-.1-.1-.1-.2-.1-.3 0-.3.1-.4.4-.4h.2c.2 0 .3-.2.3-.5v-6l-1.3 7.2c0 .2-.2.3-.4.3s-.4-.1-.4-.3l-1.4-7.1V46c0 1 0 1.6.1 1.8 0 .2.1.4.2.4h.4c.2 0 .3.1.3.4 0 .3-.1.5-.4.5-.1 0-.2 0-.4-.1-.2 0-.3-.1-.5-.1-.1 0-.3 0-.5.1h-.6c-.3 0-.4-.2-.4-.5s.1-.4.3-.4h.4c.1 0 .2-.1.2-.4 0-.2.1-.8.1-1.7v-2.2c0-.9 0-1.5-.1-1.7 0-.2-.1-.4-.2-.4H78h-.2c-.2 0-.3-.1-.3-.4 0-.1 0-.3.1-.3.1-.1.2-.1.3-.1h1.5c.1 0 .2.1.3.2 0 .1.1.2.1.5zM88.3 49.1c-.4 0-.6-.2-.8-.7-.3.5-.7.7-1.2.7-.4 0-.7-.2-1-.5-.3-.3-.4-.8-.4-1.3 0-.7.2-1.1.5-1.4.2-.2.6-.3 1.2-.4.3 0 .5-.1.6-.3.1-.1.2-.4.2-.7 0-.7-.2-1-.7-1-.1 0-.3 0-.4.1-.2.1-.3.2-.3.4 0 0 0 .1.1.2.1.2.1.3.1.4 0 .3-.2.5-.5.5-.4 0-.5-.3-.5-.8 0-.4.1-.8.4-1.1.3-.3.6-.4 1.1-.4.3 0 .6.1.8.2.3.2.4.4.5.7.1.2.1.6.1 1.2v3c0 .2.1.3.2.3.2 0 .2-.3.2-.9V47c0-.3.1-.5.3-.5.2 0 .3.2.3.7 0 .7-.1 1.2-.2 1.4 0 .4-.2.5-.6.5zm-.8-2c0-.2 0-.5.1-1.1-.2.1-.4.2-.6.2l-.5.1c-.5.1-.8.4-.8 1 0 .3.1.5.2.7.1.2.3.3.6.3.2 0 .5-.1.6-.3.2-.2.3-.5.4-.9zM90.9 43.3v.2c.3-.4.6-.6 1-.6s.7.2.9.5c.2.3.3.7.3 1.2 0 .4-.1.6-.2.9-.1.2-.3.3-.5.3-.1 0-.3-.1-.4-.2v-.5c0-.3.2-.5.5-.6v-.2c0-.2-.1-.4-.2-.5-.1-.1-.3-.2-.4-.2-.6 0-.9.7-.9 2v2.3c0 .2.1.2.2.2h.4c.2 0 .3.1.3.4 0 .3-.1.4-.3.4-.1 0-.2 0-.5-.1H89.9c-.2 0-.3-.1-.3-.4 0-.3.1-.4.3-.4h.1c.1 0 .2-.1.2-.2v-3.1-1c0-.1-.1-.2-.2-.2h-.1-.1c-.2 0-.3-.1-.3-.4 0-.1 0-.2.1-.3.1-.1.1-.1.2-.1h.6c.1 0 .2 0 .3-.1h.1c.1.4.1.5.1.7zM94.9 43.2v2.6l1.2-1.5c.1-.1.2-.3.2-.3 0-.1 0-.1-.1-.1h-.1-.1c-.2 0-.3-.1-.3-.4 0-.1 0-.2.1-.3.1-.1.2-.1.2-.1.1 0 .2 0 .4.1.2 0 .3.1.4.1.1 0 .2 0 .4-.1.2 0 .3-.1.4-.1.2 0 .3.1.3.4 0 .1 0 .2-.1.3-.1.1-.1.1-.2.1h-.1c-.1 0-.3.2-.5.5l-.7.9c-.1.1-.1.2-.1.2s0 .1.1.2l.1.2 1 2.1c.1.2.2.3.4.3h.1c.2 0 .3.1.3.4 0 .3-.1.4-.3.4h-1.6c-.2 0-.3-.1-.3-.4 0-.3.1-.4.3-.4h.1c.1 0 .1 0 .1-.1 0 0 0-.1-.1-.2l-.1-.2-.5-1.2c-.1-.3-.2-.4-.3-.4 0 0-.1 0-.1.1l-.1.1-.3.2c-.1.1-.1.3-.1.4V47.9c0 .2.1.3.2.3h.2c.2 0 .3.1.3.4 0 .1 0 .2-.1.3-.1.1-.2.1-.3.1h-1.5c-.2 0-.3-.1-.3-.4 0-.3.1-.4.3-.4h.2c.1 0 .2-.1.2-.2s0-.4.1-1v-3.4-.3-1.1c0-.3-.1-.4-.3-.4h-.1-.1c-.2 0-.3-.1-.3-.4 0-.1 0-.2.1-.3.1-.1.1-.1.2-.1 0 0 .1 0 .2.1h.7c.1 0 .2.1.2.3v1.2c.1.2.1.4.1.6zM102 45.5c0 .3 0 .5-.1.5 0 .1-.1.1-.3.1h-2.1c-.2 0-.3 0-.3.1 0 0-.1.1-.1.3 0 .5.1 1 .3 1.3s.4.5.8.5c.2 0 .4-.1.5-.2.2-.2.3-.3.3-.6l.1-.4c0-.2.2-.3.4-.3s.3.1.3.4c0 .5-.2 1-.5 1.4-.3.4-.7.6-1.2.6s-1-.3-1.3-.8c-.3-.6-.5-1.3-.5-2.2 0-.9.2-1.7.5-2.3.3-.6.8-.9 1.3-.9s.9.2 1.2.7c.5.4.7 1 .7 1.8zm-2.8-.4c0 .1.1.2.3.2h1.6s.1-.1.1-.2c0-.4-.1-.7-.3-1-.2-.3-.4-.4-.7-.4-.4 0-.7.3-.9.8-.1.2-.1.4-.1.5v.1zM103.1 42.8v-1.1c0-.4.1-.5.4-.5.2 0 .4.2.4.5V43s.1.1.2.1h.6c.3 0 .4.1.4.4 0 .3-.1.5-.4.5h-.6c-.1 0-.1 0-.2.1s0 .1 0 .3v3.4c.1.4.2.7.4.7.3 0 .5-.4.5-1.3v-.1-.5c0-.2.1-.3.3-.3.2 0 .4.2.4.7v.8c-.1 1-.5 1.5-1.2 1.5-.5 0-.9-.3-1-.9-.1-.3-.1-.7-.1-1.3v-2.9c0-.2 0-.3-.1-.3h-.1-.2c-.2 0-.3-.2-.3-.5s.1-.4.3-.4h.2s.1-.1.1-.2z"/>
  </g>
</svg>
